ISO-10303-21;
HEADER;
FILE_DESCRIPTION (( 'STEP AP214' ),
    '1' );
FILE_NAME ('Model_MEu-CO.STEP',
    '2026-04-08T06:13:32',
    ( '' ),
    ( '' ),
    'SwSTEP 2.0',
    'SolidWorks 2024',
    '' );
FILE_SCHEMA (( 'AUTOMOTIVE_DESIGN' ));
ENDSEC;

DATA;
#1 = ORIENTED_EDGE ( 'NONE', *, *, #520, .F. ) ;
#2 = ORIENTED_EDGE ( 'NONE', *, *, #414, .T. ) ;
#3 = CIRCLE ( 'NONE', #633, 0.5999999999999998668 ) ;
#4 = AXIS2_PLACEMENT_3D ( 'NONE', #587, #118, #580 ) ;
#5 = ORIENTED_EDGE ( 'NONE', *, *, #649, .F. ) ;
#6 = AXIS2_PLACEMENT_3D ( 'NONE', #24, #618, #174 ) ;
#7 = DIRECTION ( 'NONE',  ( 1.000000000000000000, 0.000000000000000000, -0.000000000000000000 ) ) ;
#8 = ORIENTED_EDGE ( 'NONE', *, *, #132, .T. ) ;
#9 = DIRECTION ( 'NONE',  ( 0.000000000000000000, 0.000000000000000000, -1.000000000000000000 ) ) ;
#10 = PRODUCT_RELATED_PRODUCT_CATEGORY ( 'part', '', ( #516 ) ) ;
#11 = FACE_OUTER_BOUND ( 'NONE', #250, .T. ) ;
#12 = CARTESIAN_POINT ( 'NONE',  ( -8.850000000000001421, 1.083812417245407876E-15, 15.69999999999999929 ) ) ;
#13 = AXIS2_PLACEMENT_3D ( 'NONE', #606, #342, #199 ) ;
#14 = EDGE_CURVE ( 'NONE', #480, #507, #843, .T. ) ;
#15 = DIRECTION ( 'NONE',  ( 0.000000000000000000, 0.000000000000000000, -1.000000000000000000 ) ) ;
#16 = DIRECTION ( 'NONE',  ( 1.000000000000000000, 0.000000000000000000, 0.000000000000000000 ) ) ;
#17 = CIRCLE ( 'NONE', #635, 1.324999999999999734 ) ;
#18 = EDGE_LOOP ( 'NONE', ( #468, #328 ) ) ;
#19 = CARTESIAN_POINT ( 'NONE',  ( -3.450000000000001510, -4.775000000000001243, 20.69999999999999929 ) ) ;
#20 = EDGE_CURVE ( 'NONE', #397, #425, #110, .T. ) ;
#21 = DIRECTION ( 'NONE',  ( -0.000000000000000000, -0.000000000000000000, -1.000000000000000000 ) ) ;
#22 = VERTEX_POINT ( 'NONE', #553 ) ;
#23 = LINE ( 'NONE', #78, #72 ) ;
#24 = CARTESIAN_POINT ( 'NONE',  ( 0.000000000000000000, 0.000000000000000000, 16.39999999999999858 ) ) ;
#25 = EDGE_LOOP ( 'NONE', ( #300, #732, #549, #489 ) ) ;
#26 = CARTESIAN_POINT ( 'NONE',  ( -6.100000000000001421, 4.774999999999999467, 19.89999999999999858 ) ) ;
#27 = DIRECTION ( 'NONE',  ( -0.000000000000000000, -0.000000000000000000, -1.000000000000000000 ) ) ;
#28 = ADVANCED_FACE ( 'NONE', ( #735 ), #351, .F. ) ;
#29 = ORIENTED_EDGE ( 'NONE', *, *, #172, .F. ) ;
#30 = CYLINDRICAL_SURFACE ( 'NONE', #787, 0.5999999999999998668 ) ;
#31 = FACE_OUTER_BOUND ( 'NONE', #821, .T. ) ;
#32 = DIRECTION ( 'NONE',  ( -0.000000000000000000, -0.000000000000000000, -1.000000000000000000 ) ) ;
#33 = CYLINDRICAL_SURFACE ( 'NONE', #322, 8.850000000000001421 ) ;
#34 = ORIENTED_EDGE ( 'NONE', *, *, #340, .T. ) ;
#35 = DIRECTION ( 'NONE',  ( 0.000000000000000000, 0.000000000000000000, -1.000000000000000000 ) ) ;
#36 = DIRECTION ( 'NONE',  ( -0.000000000000000000, -0.000000000000000000, -1.000000000000000000 ) ) ;
#37 = VECTOR ( 'NONE', #178, 1000.000000000000114 ) ;
#38 = VERTEX_POINT ( 'NONE', #154 ) ;
#39 = DIRECTION ( 'NONE',  ( 0.000000000000000000, 0.000000000000000000, -1.000000000000000000 ) ) ;
#40 = AXIS2_PLACEMENT_3D ( 'NONE', #223, #707, #231 ) ;
#41 = AXIS2_PLACEMENT_3D ( 'NONE', #254, #321, #527 ) ;
#42 = CARTESIAN_POINT ( 'NONE',  ( -8.050000000000000711, 0.000000000000000000, 1.500000000000000000 ) ) ;
#43 = ORIENTED_EDGE ( 'NONE', *, *, #777, .F. ) ;
#44 = CARTESIAN_POINT ( 'NONE',  ( -8.850000000000001421, 1.083812417245407876E-15, 15.69999999999999929 ) ) ;
#45 = CARTESIAN_POINT ( 'NONE',  ( 10.00000000000000000, 1.224646799147353256E-15, 15.59999999999999787 ) ) ;
#46 = EDGE_CURVE ( 'NONE', #214, #452, #526, .T. ) ;
#47 = ORIENTED_EDGE ( 'NONE', *, *, #511, .F. ) ;
#48 = DIRECTION ( 'NONE',  ( 1.000000000000000000, 0.000000000000000000, 0.000000000000000000 ) ) ;
#49 = CARTESIAN_POINT ( 'NONE',  ( 0.000000000000000000, 0.000000000000000000, 4.500000000000000888 ) ) ;
#50 = CARTESIAN_POINT ( 'NONE',  ( 4.774999999999999467, 4.775000000000001243, 15.69999999999999929 ) ) ;
#51 = DIRECTION ( 'NONE',  ( 0.000000000000000000, 0.000000000000000000, -1.000000000000000000 ) ) ;
#52 = ORIENTED_EDGE ( 'NONE', *, *, #740, .F. ) ;
#53 = CARTESIAN_POINT ( 'NONE',  ( -9.199999999999999289, 1.126675055215564822E-15, 15.59999999999999787 ) ) ;
#54 = DIRECTION ( 'NONE',  ( 0.000000000000000000, 0.000000000000000000, -1.000000000000000000 ) ) ;
#55 = CIRCLE ( 'NONE', #566, 1.324999999999999734 ) ;
#56 = EDGE_CURVE ( 'NONE', #563, #646, #788, .T. ) ;
#57 = AXIS2_PLACEMENT_3D ( 'NONE', #355, #683, #691 ) ;
#58 = ORIENTED_EDGE ( 'NONE', *, *, #777, .T. ) ;
#59 = AXIS2_PLACEMENT_3D ( 'NONE', #297, #308, #514 ) ;
#60 = VERTEX_POINT ( 'NONE', #338 ) ;
#61 = CARTESIAN_POINT ( 'NONE',  ( -3.450000000000001510, -4.775000000000001243, 15.69999999999999929 ) ) ;
#62 = EDGE_LOOP ( 'NONE', ( #482, #267, #604, #258 ) ) ;
#63 = EDGE_CURVE ( 'NONE', #518, #138, #757, .T. ) ;
#64 = DIRECTION ( 'NONE',  ( 0.000000000000000000, 0.000000000000000000, 1.000000000000000000 ) ) ;
#65 = CIRCLE ( 'NONE', #294, 8.050000000000000711 ) ;
#66 = VECTOR ( 'NONE', #556, 1000.000000000000000 ) ;
#67 = ORIENTED_EDGE ( 'NONE', *, *, #497, .T. ) ;
#68 = ORIENTED_EDGE ( 'NONE', *, *, #182, .T. ) ;
#69 = ORIENTED_EDGE ( 'NONE', *, *, #20, .F. ) ;
#70 = ORIENTED_EDGE ( 'NONE', *, *, #404, .T. ) ;
#71 = EDGE_CURVE ( 'NONE', #411, #728, #384, .T. ) ;
#72 = VECTOR ( 'NONE', #679, 1000.000000000000000 ) ;
#73 = AXIS2_PLACEMENT_3D ( 'NONE', #478, #612, #229 ) ;
#74 = DIRECTION ( 'NONE',  ( -0.000000000000000000, -0.000000000000000000, -1.000000000000000000 ) ) ;
#75 = AXIS2_PLACEMENT_3D ( 'NONE', #304, #841, #582 ) ;
#76 =( NAMED_UNIT ( * ) PLANE_ANGLE_UNIT ( ) SI_UNIT ( $, .RADIAN. ) );
#77 = EDGE_LOOP ( 'NONE', ( #319, #335, #47, #97 ) ) ;
#78 = CARTESIAN_POINT ( 'NONE',  ( 0.5999999999999998668, 7.347880794884117764E-17, 4.500000000000000888 ) ) ;
#79 = DIRECTION ( 'NONE',  ( 1.000000000000000000, 0.000000000000000000, 0.000000000000000000 ) ) ;
#80 = DIRECTION ( 'NONE',  ( -0.000000000000000000, -0.000000000000000000, -1.000000000000000000 ) ) ;
#81 = ADVANCED_FACE ( 'NONE', ( #477 ), #122, .T. ) ;
#82 = ORIENTED_EDGE ( 'NONE', *, *, #791, .T. ) ;
#83 = DIRECTION ( 'NONE',  ( 1.000000000000000000, 0.000000000000000000, -0.000000000000000000 ) ) ;
#84 = PRODUCT_CONTEXT ( 'NONE', #847, 'mechanical' ) ;
#85 = VERTEX_POINT ( 'NONE', #469 ) ;
#86 = EDGE_LOOP ( 'NONE', ( #622, #793, #578, #769 ) ) ;
#87 = FACE_OUTER_BOUND ( 'NONE', #153, .T. ) ;
#88 = AXIS2_PLACEMENT_3D ( 'NONE', #422, #538, #623 ) ;
#89 = CYLINDRICAL_SURFACE ( 'NONE', #603, 10.00000000000000000 ) ;
#90 = PRESENTATION_LAYER_ASSIGNMENT (  '', '', ( #465 ) ) ;
#91 = ORIENTED_EDGE ( 'NONE', *, *, #340, .F. ) ;
#92 = CARTESIAN_POINT ( 'NONE',  ( -3.450000000000001510, 4.774999999999999467, 20.69999999999999929 ) ) ;
#93 = DIRECTION ( 'NONE',  ( -0.000000000000000000, -0.000000000000000000, 1.000000000000000000 ) ) ;
#94 = VERTEX_POINT ( 'NONE', #803 ) ;
#95 = DIRECTION ( 'NONE',  ( 1.000000000000000000, 0.000000000000000000, 0.000000000000000000 ) ) ;
#96 = LINE ( 'NONE', #838, #177 ) ;
#97 = ORIENTED_EDGE ( 'NONE', *, *, #63, .F. ) ;
#98 = PLANE ( 'NONE',  #444 ) ;
#99 = EDGE_CURVE ( 'NONE', #85, #665, #3, .T. ) ;
#100 = CARTESIAN_POINT ( 'NONE',  ( 0.000000000000000000, 0.000000000000000000, 1.500000000000000000 ) ) ;
#101 = CARTESIAN_POINT ( 'NONE',  ( 0.000000000000000000, 0.000000000000000000, 15.59999999999999787 ) ) ;
#102 = SURFACE_SIDE_STYLE ('',( #437 ) ) ;
#103 = ORIENTED_EDGE ( 'NONE', *, *, #433, .F. ) ;
#104 = AXIS2_PLACEMENT_3D ( 'NONE', #615, #268, #276 ) ;
#105 = DIRECTION ( 'NONE',  ( -0.000000000000000000, -0.000000000000000000, -1.000000000000000000 ) ) ;
#106 = CARTESIAN_POINT ( 'NONE',  ( -10.00000000000000000, 0.000000000000000000, 16.39999999999999858 ) ) ;
#107 = VERTEX_POINT ( 'NONE', #406 ) ;
#108 = PLANE ( 'NONE',  #40 ) ;
#109 = PRESENTATION_STYLE_ASSIGNMENT (( #701 ) ) ;
#110 = CIRCLE ( 'NONE', #263, 1.324999999999999734 ) ;
#111 = ORIENTED_EDGE ( 'NONE', *, *, #388, .F. ) ;
#112 = DIRECTION ( 'NONE',  ( -0.000000000000000000, -0.000000000000000000, -1.000000000000000000 ) ) ;
#113 = CIRCLE ( 'NONE', #706, 0.5250000000000011324 ) ;
#114 = DIRECTION ( 'NONE',  ( -0.000000000000000000, -0.000000000000000000, -1.000000000000000000 ) ) ;
#115 = CARTESIAN_POINT ( 'NONE',  ( 10.00000000000000000, 1.224646799147353256E-15, 16.39999999999999858 ) ) ;
#116 = DIRECTION ( 'NONE',  ( 1.000000000000000000, 0.000000000000000000, 0.000000000000000000 ) ) ;
#117 = FACE_OUTER_BOUND ( 'NONE', #77, .T. ) ;
#118 = DIRECTION ( 'NONE',  ( -0.000000000000000000, -0.000000000000000000, -1.000000000000000000 ) ) ;
#119 = EDGE_CURVE ( 'NONE', #636, #722, #602, .T. ) ;
#120 = ORIENTED_EDGE ( 'NONE', *, *, #134, .F. ) ;
#121 = DIRECTION ( 'NONE',  ( -0.000000000000000000, -0.000000000000000000, -1.000000000000000000 ) ) ;
#122 = TOROIDAL_SURFACE ( 'NONE', #314, 9.199999999999999289, 0.8000000000000000444 ) ;
#123 = EDGE_CURVE ( 'NONE', #107, #85, #23, .T. ) ;
#124 = VECTOR ( 'NONE', #522, 1000.000000000000000 ) ;
#125 = ORIENTED_EDGE ( 'NONE', *, *, #248, .T. ) ;
#126 = EDGE_LOOP ( 'NONE', ( #146, #203, #572, #347 ) ) ;
#127 = CONICAL_SURFACE ( 'NONE', #257, 0.5250000000000011324, 0.7853981633974459475 ) ;
#128 = EDGE_LOOP ( 'NONE', ( #681, #844 ) ) ;
#129 = EDGE_CURVE ( 'NONE', #38, #349, #55, .T. ) ;
#130 = AXIS2_PLACEMENT_3D ( 'NONE', #295, #443, #700 ) ;
#131 = TOROIDAL_SURFACE ( 'NONE', #739, 9.199999999999999289, 0.8000000000000000444 ) ;
#132 = EDGE_CURVE ( 'NONE', #518, #357, #670, .T. ) ;
#133 = ORIENTED_EDGE ( 'NONE', *, *, #809, .F. ) ;
#134 = EDGE_CURVE ( 'NONE', #188, #94, #325, .T. ) ;
#135 = EDGE_CURVE ( 'NONE', #728, #60, #204, .T. ) ;
#136 = VERTEX_POINT ( 'NONE', #12 ) ;
#137 = DIRECTION ( 'NONE',  ( 1.000000000000000000, 0.000000000000000000, 0.000000000000000000 ) ) ;
#138 = VERTEX_POINT ( 'NONE', #610 ) ;
#139 = FACE_OUTER_BOUND ( 'NONE', #180, .T. ) ;
#140 = EDGE_LOOP ( 'NONE', ( #498, #163, #345, #431 ) ) ;
#141 = CIRCLE ( 'NONE', #395, 1.324999999999999734 ) ;
#142 = CARTESIAN_POINT ( 'NONE',  ( 9.199999999999999289, 0.000000000000000000, 15.59999999999999787 ) ) ;
#143 = CARTESIAN_POINT ( 'NONE',  ( 0.000000000000000000, 0.000000000000000000, 0.8000000000000003775 ) ) ;
#144 = CARTESIAN_POINT ( 'NONE',  ( -4.775000000000001243, 4.774999999999999467, 20.69999999999999929 ) ) ;
#145 = CARTESIAN_POINT ( 'NONE',  ( 4.774999999999999467, 4.775000000000001243, 20.69999999999999929 ) ) ;
#146 = ORIENTED_EDGE ( 'NONE', *, *, #849, .F. ) ;
#147 = DIRECTION ( 'NONE',  ( 0.000000000000000000, 0.000000000000000000, 1.000000000000000000 ) ) ;
#148 = ADVANCED_FACE ( 'NONE', ( #87 ), #273, .T. ) ;
#149 = CYLINDRICAL_SURFACE ( 'NONE', #299, 1.324999999999999734 ) ;
#150 = EDGE_LOOP ( 'NONE', ( #669, #416, #589, #91 ) ) ;
#151 = DIRECTION ( 'NONE',  ( 1.000000000000000000, 0.000000000000000000, 0.000000000000000000 ) ) ;
#152 = DIRECTION ( 'NONE',  ( -1.000000000000000000, 0.000000000000000000, 0.000000000000000000 ) ) ;
#153 = EDGE_LOOP ( 'NONE', ( #279, #555 ) ) ;
#154 = CARTESIAN_POINT ( 'NONE',  ( -3.450000000000001510, 4.774999999999999467, 19.89999999999999858 ) ) ;
#155 = AXIS2_PLACEMENT_3D ( 'NONE', #816, #74, #676 ) ;
#156 = CARTESIAN_POINT ( 'NONE',  ( -4.775000000000001243, 4.774999999999999467, 20.69999999999999929 ) ) ;
#157 = CIRCLE ( 'NONE', #759, 1.324999999999999734 ) ;
#158 = EDGE_LOOP ( 'NONE', ( #656, #400, #125, #5 ) ) ;
#159 = DIRECTION ( 'NONE',  ( -1.000000000000000000, 0.000000000000000000, 0.000000000000000000 ) ) ;
#160 = DIRECTION ( 'NONE',  ( -0.000000000000000000, -0.000000000000000000, -1.000000000000000000 ) ) ;
#161 = CARTESIAN_POINT ( 'NONE',  ( 4.249999999999998224, 4.775000000000001243, 20.69999999999999929 ) ) ;
#162 = CARTESIAN_POINT ( 'NONE',  ( -4.775000000000001243, 4.774999999999999467, 20.69999999999999929 ) ) ;
#163 = ORIENTED_EDGE ( 'NONE', *, *, #354, .T. ) ;
#164 = DIRECTION ( 'NONE',  ( -0.000000000000000000, -0.000000000000000000, -1.000000000000000000 ) ) ;
#165 = ADVANCED_FACE ( 'NONE', ( #548 ), #213, .T. ) ;
#166 = CARTESIAN_POINT ( 'NONE',  ( 0.000000000000000000, 0.000000000000000000, 4.500000000000000888 ) ) ;
#167 = DIRECTION ( 'NONE',  ( -1.000000000000000000, 0.000000000000000000, 0.000000000000000000 ) ) ;
#168 = DIRECTION ( 'NONE',  ( -1.000000000000000000, 0.000000000000000000, 0.000000000000000000 ) ) ;
#169 = EDGE_LOOP ( 'NONE', ( #540, #663, #457, #539 ) ) ;
#170 = CARTESIAN_POINT ( 'NONE',  ( 0.000000000000000000, 0.000000000000000000, 15.69999999999999929 ) ) ;
#171 = CARTESIAN_POINT ( 'NONE',  ( -4.250000000000000000, 4.774999999999999467, 20.69999999999999929 ) ) ;
#172 = EDGE_CURVE ( 'NONE', #107, #473, #804, .T. ) ;
#173 = CARTESIAN_POINT ( 'NONE',  ( -4.775000000000001243, -4.775000000000001243, 20.69999999999999929 ) ) ;
#174 = DIRECTION ( 'NONE',  ( 1.000000000000000000, 0.000000000000000000, 0.000000000000000000 ) ) ;
#175 = AXIS2_PLACEMENT_3D ( 'NONE', #456, #54, #709 ) ;
#176 = CARTESIAN_POINT ( 'NONE',  ( 0.000000000000000000, 0.000000000000000000, 0.000000000000000000 ) ) ;
#177 = VECTOR ( 'NONE', #562, 1000.000000000000000 ) ;
#178 = DIRECTION ( 'NONE',  ( -0.7071067811865459074, 0.000000000000000000, -0.7071067811865491270 ) ) ;
#179 = CARTESIAN_POINT ( 'NONE',  ( -0.5999999999999998668, 0.000000000000000000, 4.500000000000000888 ) ) ;
#180 = EDGE_LOOP ( 'NONE', ( #716, #253 ) ) ;
#181 = DIRECTION ( 'NONE',  ( 0.000000000000000000, 0.000000000000000000, 1.000000000000000000 ) ) ;
#182 = EDGE_CURVE ( 'NONE', #22, #717, #65, .T. ) ;
#183 = CARTESIAN_POINT ( 'NONE',  ( -3.450000000000001510, -4.775000000000001243, 19.89999999999999858 ) ) ;
#184 = ORIENTED_EDGE ( 'NONE', *, *, #265, .T. ) ;
#185 =( NAMED_UNIT ( * ) PLANE_ANGLE_UNIT ( ) SI_UNIT ( $, .RADIAN. ) );
#186 = ADVANCED_FACE ( 'NONE', ( #710 ), #30, .F. ) ;
#187 = AXIS2_PLACEMENT_3D ( 'NONE', #499, #550, #151 ) ;
#188 = VERTEX_POINT ( 'NONE', #290 ) ;
#189 = AXIS2_PLACEMENT_3D ( 'NONE', #53, #711, #462 ) ;
#190 = CARTESIAN_POINT ( 'NONE',  ( -9.199999999999999289, 1.175660927181458842E-15, 0.000000000000000000 ) ) ;
#191 = ORIENTED_EDGE ( 'NONE', *, *, #99, .T. ) ;
#192 = EDGE_CURVE ( 'NONE', #94, #425, #642, .T. ) ;
#193 = CONICAL_SURFACE ( 'NONE', #747, 0.5250000000000011324, 0.7853981633974459475 ) ;
#194 = EDGE_CURVE ( 'NONE', #722, #480, #736, .T. ) ;
#195 = AXIS2_PLACEMENT_3D ( 'NONE', #145, #32, #159 ) ;
#196 = EDGE_CURVE ( 'NONE', #357, #518, #856, .T. ) ;
#197 = ADVANCED_FACE ( 'NONE', ( #375 ), #581, .F. ) ;
#198 = EDGE_LOOP ( 'NONE', ( #382, #283, #764, #353 ) ) ;
#199 = DIRECTION ( 'NONE',  ( 1.000000000000000000, 0.000000000000000000, 0.000000000000000000 ) ) ;
#200 = ORIENTED_EDGE ( 'NONE', *, *, #471, .T. ) ;
#201 = DIRECTION ( 'NONE',  ( 1.000000000000000000, 0.000000000000000000, 0.000000000000000000 ) ) ;
#202 = EDGE_LOOP ( 'NONE', ( #120, #786, #855, #687 ) ) ;
#203 = ORIENTED_EDGE ( 'NONE', *, *, #560, .F. ) ;
#204 = LINE ( 'NONE', #674, #459 ) ;
#205 = EDGE_CURVE ( 'NONE', #792, #438, #512, .T. ) ;
#206 = CARTESIAN_POINT ( 'NONE',  ( 0.000000000000000000, 0.000000000000000000, 15.69999999999999929 ) ) ;
#207 = AXIS2_PLACEMENT_3D ( 'NONE', #49, #767, #629 ) ;
#208 = CIRCLE ( 'NONE', #73, 1.324999999999999734 ) ;
#209 = COLOUR_RGB ( '',0.7921568627450980005, 0.8196078431372548767, 0.9333333333333333481 ) ;
#210 = CARTESIAN_POINT ( 'NONE',  ( -4.775000000000001243, 4.774999999999999467, 19.89999999999999858 ) ) ;
#211 = AXIS2_PLACEMENT_3D ( 'NONE', #379, #647, #383 ) ;
#212 = CARTESIAN_POINT ( 'NONE',  ( 3.449999999999999734, 4.775000000000001243, 20.69999999999999929 ) ) ;
#213 = CYLINDRICAL_SURFACE ( 'NONE', #401, 10.00000000000000000 ) ;
#214 = VERTEX_POINT ( 'NONE', #638 ) ;
#215 = FACE_OUTER_BOUND ( 'NONE', #86, .T. ) ;
#216 = CARTESIAN_POINT ( 'NONE',  ( 6.099999999999999645, 4.775000000000001243, 19.89999999999999858 ) ) ;
#217 = EDGE_LOOP ( 'NONE', ( #825, #312 ) ) ;
#218 = DIRECTION ( 'NONE',  ( -0.000000000000000000, -0.000000000000000000, -1.000000000000000000 ) ) ;
#219 = EDGE_LOOP ( 'NONE', ( #1, #331, #58, #68 ) ) ;
#220 = FACE_OUTER_BOUND ( 'NONE', #594, .T. ) ;
#221 = FACE_OUTER_BOUND ( 'NONE', #658, .T. ) ;
#222 = ORIENTED_EDGE ( 'NONE', *, *, #471, .F. ) ;
#223 = CARTESIAN_POINT ( 'NONE',  ( 4.774999999999999467, 4.775000000000001243, 20.69999999999999929 ) ) ;
#224 = FILL_AREA_STYLE_COLOUR ( '', #209 ) ;
#225 = AXIS2_PLACEMENT_3D ( 'NONE', #742, #625, #346 ) ;
#226 = EDGE_CURVE ( 'NONE', #690, #138, #724, .T. ) ;
#227 = AXIS2_PLACEMENT_3D ( 'NONE', #156, #577, #415 ) ;
#228 = ORIENTED_EDGE ( 'NONE', *, *, #261, .T. ) ;
#229 = DIRECTION ( 'NONE',  ( 1.000000000000000000, 0.000000000000000000, 0.000000000000000000 ) ) ;
#230 = CARTESIAN_POINT ( 'NONE',  ( 0.000000000000000000, 0.000000000000000000, 15.69999999999999929 ) ) ;
#231 = DIRECTION ( 'NONE',  ( 1.000000000000000000, 0.000000000000000000, -0.000000000000000000 ) ) ;
#232 = FACE_OUTER_BOUND ( 'NONE', #330, .T. ) ;
#233 = VERTEX_POINT ( 'NONE', #370 ) ;
#234 = CARTESIAN_POINT ( 'NONE',  ( -5.300000000000002487, 4.774999999999999467, 20.69999999999999929 ) ) ;
#235 = PLANE ( 'NONE',  #309 ) ;
#236 = FACE_OUTER_BOUND ( 'NONE', #485, .T. ) ;
#237 = CARTESIAN_POINT ( 'NONE',  ( -4.775000000000001243, -4.775000000000001243, 20.69999999999999929 ) ) ;
#238 = FACE_OUTER_BOUND ( 'NONE', #458, .T. ) ;
#239 = ADVANCED_FACE ( 'NONE', ( #236 ), #108, .T. ) ;
#240 = EDGE_CURVE ( 'NONE', #136, #611, #778, .T. ) ;
#241 = DIRECTION ( 'NONE',  ( -1.000000000000000000, 0.000000000000000000, 0.000000000000000000 ) ) ;
#242 = DIRECTION ( 'NONE',  ( -1.000000000000000000, 0.000000000000000000, 0.000000000000000000 ) ) ;
#243 = AXIS2_PLACEMENT_3D ( 'NONE', #840, #569, #241 ) ;
#244 = AXIS2_PLACEMENT_3D ( 'NONE', #143, #483, #280 ) ;
#245 = CARTESIAN_POINT ( 'NONE',  ( 3.449999999999999734, 4.775000000000001243, 19.89999999999999858 ) ) ;
#246 = AXIS2_PLACEMENT_3D ( 'NONE', #583, #316, #48 ) ;
#247 = ORIENTED_EDGE ( 'NONE', *, *, #487, .T. ) ;
#248 = EDGE_CURVE ( 'NONE', #852, #411, #495, .T. ) ;
#249 = DIRECTION ( 'NONE',  ( 1.000000000000000000, 0.000000000000000000, 0.000000000000000000 ) ) ;
#250 = EDGE_LOOP ( 'NONE', ( #654, #70 ) ) ;
#251 = ADVANCED_FACE ( 'NONE', ( #772 ), #385, .T. ) ;
#252 = CARTESIAN_POINT ( 'NONE',  ( 9.199999999999999289, 0.000000000000000000, 0.000000000000000000 ) ) ;
#253 = ORIENTED_EDGE ( 'NONE', *, *, #134, .T. ) ;
#254 = CARTESIAN_POINT ( 'NONE',  ( -4.775000000000001243, -4.775000000000001243, 15.69999999999999929 ) ) ;
#255 = CLOSED_SHELL ( 'NONE', ( #666, #664, #28, #584, #537, #628, #529, #256, #519, #369, #823, #165, #597, #336, #281, #197, #274, #505, #148, #814, #859, #449, #239, #344, #251, #755, #479, #850, #186, #800, #260, #81 ) ) ;
#256 = ADVANCED_FACE ( 'NONE', ( #427 ), #490, .T. ) ;
#257 = AXIS2_PLACEMENT_3D ( 'NONE', #720, #854, #391 ) ;
#258 = ORIENTED_EDGE ( 'NONE', *, *, #795, .F. ) ;
#259 = CIRCLE ( 'NONE', #327, 8.850000000000001421 ) ;
#260 = ADVANCED_FACE ( 'NONE', ( #215 ), #684, .T. ) ;
#261 = EDGE_CURVE ( 'NONE', #507, #480, #348, .T. ) ;
#262 = ORIENTED_EDGE ( 'NONE', *, *, #655, .T. ) ;
#263 = AXIS2_PLACEMENT_3D ( 'NONE', #741, #9, #16 ) ;
#264 = ORIENTED_EDGE ( 'NONE', *, *, #673, .T. ) ;
#265 = EDGE_CURVE ( 'NONE', #349, #38, #208, .T. ) ;
#266 = DIRECTION ( 'NONE',  ( 0.000000000000000000, 0.000000000000000000, -1.000000000000000000 ) ) ;
#267 = ORIENTED_EDGE ( 'NONE', *, *, #579, .T. ) ;
#268 = DIRECTION ( 'NONE',  ( 0.000000000000000000, 0.000000000000000000, -1.000000000000000000 ) ) ;
#269 = EDGE_LOOP ( 'NONE', ( #467, #619, #389, #730 ) ) ;
#270 = CARTESIAN_POINT ( 'NONE',  ( -4.775000000000001243, -4.775000000000001243, 20.69999999999999929 ) ) ;
#271 =( LENGTH_UNIT ( ) NAMED_UNIT ( * ) SI_UNIT ( .MILLI., .METRE. ) );
#272 = PRODUCT_DEFINITION_FORMATION_WITH_SPECIFIED_SOURCE ( 'ANY', '', #516, .NOT_KNOWN. ) ;
#273 = PLANE ( 'NONE',  #296 ) ;
#274 = ADVANCED_FACE ( 'NONE', ( #409, #748, #417, #758 ), #98, .T. ) ;
#275 = DIRECTION ( 'NONE',  ( -1.000000000000000000, 0.000000000000000000, 0.000000000000000000 ) ) ;
#276 = DIRECTION ( 'NONE',  ( -1.000000000000000000, 0.000000000000000000, -0.000000000000000000 ) ) ;
#277 = CIRCLE ( 'NONE', #464, 1.324999999999999734 ) ;
#278 = DIRECTION ( 'NONE',  ( -0.000000000000000000, -0.000000000000000000, -1.000000000000000000 ) ) ;
#279 = ORIENTED_EDGE ( 'NONE', *, *, #560, .T. ) ;
#280 = DIRECTION ( 'NONE',  ( 1.000000000000000000, 0.000000000000000000, 0.000000000000000000 ) ) ;
#281 = ADVANCED_FACE ( 'NONE', ( #675, #341 ), #360, .F. ) ;
#282 = DIRECTION ( 'NONE',  ( -1.000000000000000000, 0.000000000000000000, -0.000000000000000000 ) ) ;
#283 = ORIENTED_EDGE ( 'NONE', *, *, #833, .F. ) ;
#284 = DIRECTION ( 'NONE',  ( 1.000000000000000000, 0.000000000000000000, 0.000000000000000000 ) ) ;
#285 = LINE ( 'NONE', #753, #494 ) ;
#286 = EDGE_LOOP ( 'NONE', ( #29, #598, #191, #713 ) ) ;
#287 = DIRECTION ( 'NONE',  ( 1.000000000000000000, 0.000000000000000000, -0.000000000000000000 ) ) ;
#288 = CARTESIAN_POINT ( 'NONE',  ( -6.100000000000001421, 4.774999999999999467, 15.69999999999999929 ) ) ;
#289 = ORIENTED_EDGE ( 'NONE', *, *, #324, .F. ) ;
#290 = CARTESIAN_POINT ( 'NONE',  ( -4.250000000000000000, -4.775000000000001243, 20.69999999999999929 ) ) ;
#291 = CYLINDRICAL_SURFACE ( 'NONE', #326, 8.050000000000000711 ) ;
#292 = LINE ( 'NONE', #564, #298 ) ;
#293 = DIRECTION ( 'NONE',  ( 0.000000000000000000, 0.000000000000000000, -1.000000000000000000 ) ) ;
#294 = AXIS2_PLACEMENT_3D ( 'NONE', #429, #448, #693 ) ;
#295 = CARTESIAN_POINT ( 'NONE',  ( 0.000000000000000000, 0.000000000000000000, 15.69999999999999929 ) ) ;
#296 = AXIS2_PLACEMENT_3D ( 'NONE', #144, #408, #343 ) ;
#297 = CARTESIAN_POINT ( 'NONE',  ( 0.000000000000000000, 0.000000000000000000, 15.69999999999999929 ) ) ;
#298 = VECTOR ( 'NONE', #738, 1000.000000000000114 ) ;
#299 = AXIS2_PLACEMENT_3D ( 'NONE', #162, #639, #445 ) ;
#300 = ORIENTED_EDGE ( 'NONE', *, *, #662, .F. ) ;
#301 = FACE_OUTER_BOUND ( 'NONE', #126, .T. ) ;
#302 = ORIENTED_EDGE ( 'NONE', *, *, #192, .T. ) ;
#303 = DIRECTION ( 'NONE',  ( -0.000000000000000000, -0.000000000000000000, 1.000000000000000000 ) ) ;
#304 = CARTESIAN_POINT ( 'NONE',  ( 4.774999999999999467, 4.775000000000001243, 20.69999999999999929 ) ) ;
#305 = VERTEX_POINT ( 'NONE', #827 ) ;
#306 = DIRECTION ( 'NONE',  ( -1.000000000000000000, 0.000000000000000000, 0.000000000000000000 ) ) ;
#307 = DIRECTION ( 'NONE',  ( -0.000000000000000000, -0.000000000000000000, -1.000000000000000000 ) ) ;
#308 = DIRECTION ( 'NONE',  ( 0.000000000000000000, 0.000000000000000000, 1.000000000000000000 ) ) ;
#309 = AXIS2_PLACEMENT_3D ( 'NONE', #367, #551, #282 ) ;
#310 = DIRECTION ( 'NONE',  ( 1.000000000000000000, 0.000000000000000000, 0.000000000000000000 ) ) ;
#311 = EDGE_CURVE ( 'NONE', #365, #746, #567, .T. ) ;
#312 = ORIENTED_EDGE ( 'NONE', *, *, #590, .F. ) ;
#313 = DIRECTION ( 'NONE',  ( 1.000000000000000000, 0.000000000000000000, 0.000000000000000000 ) ) ;
#314 = AXIS2_PLACEMENT_3D ( 'NONE', #605, #486, #137 ) ;
#315 = AXIS2_PLACEMENT_3D ( 'NONE', #632, #366, #287 ) ;
#316 = DIRECTION ( 'NONE',  ( 0.000000000000000000, 0.000000000000000000, 1.000000000000000000 ) ) ;
#317 = ORIENTED_EDGE ( 'NONE', *, *, #795, .T. ) ;
#318 = DIRECTION ( 'NONE',  ( 1.000000000000000000, 0.000000000000000000, 0.000000000000000000 ) ) ;
#319 = ORIENTED_EDGE ( 'NONE', *, *, #196, .F. ) ;
#320 = EDGE_CURVE ( 'NONE', #425, #397, #277, .T. ) ;
#321 = DIRECTION ( 'NONE',  ( 0.000000000000000000, 0.000000000000000000, 1.000000000000000000 ) ) ;
#322 = AXIS2_PLACEMENT_3D ( 'NONE', #230, #634, #500 ) ;
#323 = ORIENTED_EDGE ( 'NONE', *, *, #248, .F. ) ;
#324 = EDGE_CURVE ( 'NONE', #452, #349, #292, .T. ) ;
#325 = CIRCLE ( 'NONE', #826, 0.5250000000000011324 ) ;
#326 = AXIS2_PLACEMENT_3D ( 'NONE', #763, #36, #423 ) ;
#327 = AXIS2_PLACEMENT_3D ( 'NONE', #626, #434, #686 ) ;
#328 = ORIENTED_EDGE ( 'NONE', *, *, #659, .F. ) ;
#329 = EDGE_CURVE ( 'NONE', #38, #365, #765, .T. ) ;
#330 = EDGE_LOOP ( 'NONE', ( #631, #650, #784, #289 ) ) ;
#331 = ORIENTED_EDGE ( 'NONE', *, *, #205, .F. ) ;
#332 = AXIS2_PLACEMENT_3D ( 'NONE', #794, #617, #201 ) ;
#333 = CONICAL_SURFACE ( 'NONE', #805, 0.5250000000000011324, 0.7853981633974463916 ) ;
#334 = CARTESIAN_POINT ( 'NONE',  ( 4.249999999999998224, 4.775000000000001243, 20.69999999999999929 ) ) ;
#335 = ORIENTED_EDGE ( 'NONE', *, *, #662, .T. ) ;
#336 = ADVANCED_FACE ( 'NONE', ( #432, #620 ), #697, .T. ) ;
#337 = AXIS2_PLACEMENT_3D ( 'NONE', #714, #181, #313 ) ;
#338 = CARTESIAN_POINT ( 'NONE',  ( 6.099999999999999645, 4.775000000000001243, 15.69999999999999929 ) ) ;
#339 = DIRECTION ( 'NONE',  ( 1.000000000000000000, 0.000000000000000000, 0.000000000000000000 ) ) ;
#340 = EDGE_CURVE ( 'NONE', #411, #305, #677, .T. ) ;
#341 = FACE_BOUND ( 'NONE', #672, .T. ) ;
#342 = DIRECTION ( 'NONE',  ( 0.000000000000000000, 0.000000000000000000, 1.000000000000000000 ) ) ;
#343 = DIRECTION ( 'NONE',  ( 1.000000000000000000, 0.000000000000000000, -0.000000000000000000 ) ) ;
#344 = ADVANCED_FACE ( 'NONE', ( #407 ), #333, .T. ) ;
#345 = ORIENTED_EDGE ( 'NONE', *, *, #659, .T. ) ;
#346 = DIRECTION ( 'NONE',  ( 1.000000000000000000, 0.000000000000000000, -0.000000000000000000 ) ) ;
#347 = ORIENTED_EDGE ( 'NONE', *, *, #129, .F. ) ;
#348 = CIRCLE ( 'NONE', #57, 10.00000000000000000 ) ;
#349 = VERTEX_POINT ( 'NONE', #26 ) ;
#350 = CONICAL_SURFACE ( 'NONE', #845, 0.5250000000000011324, 0.7853981633974459475 ) ;
#351 = CYLINDRICAL_SURFACE ( 'NONE', #155, 0.5999999999999998668 ) ;
#352 = CARTESIAN_POINT ( 'NONE',  ( 0.000000000000000000, 0.000000000000000000, 16.39999999999999858 ) ) ;
#353 = ORIENTED_EDGE ( 'NONE', *, *, #752, .T. ) ;
#354 = EDGE_CURVE ( 'NONE', #397, #646, #545, .T. ) ;
#355 = CARTESIAN_POINT ( 'NONE',  ( 0.000000000000000000, 0.000000000000000000, 0.8000000000000003775 ) ) ;
#356 = LINE ( 'NONE', #106, #558 ) ;
#357 = VERTEX_POINT ( 'NONE', #807 ) ;
#358 = CARTESIAN_POINT ( 'NONE',  ( -4.775000000000001243, 4.774999999999999467, 20.69999999999999929 ) ) ;
#359 = CYLINDRICAL_SURFACE ( 'NONE', #446, 1.324999999999999734 ) ;
#360 = PLANE ( 'NONE',  #225 ) ;
#361 = DIRECTION ( 'NONE',  ( 0.000000000000000000, 0.000000000000000000, -1.000000000000000000 ) ) ;
#362 = CARTESIAN_POINT ( 'NONE',  ( 9.199999999999999289, 0.000000000000000000, 0.8000000000000003775 ) ) ;
#363 = VECTOR ( 'NONE', #160, 1000.000000000000000 ) ;
#364 = DIRECTION ( 'NONE',  ( 0.000000000000000000, 0.000000000000000000, 1.000000000000000000 ) ) ;
#365 = VERTEX_POINT ( 'NONE', #819 ) ;
#366 = DIRECTION ( 'NONE',  ( 0.000000000000000000, 0.000000000000000000, 1.000000000000000000 ) ) ;
#367 = CARTESIAN_POINT ( 'NONE',  ( 0.000000000000000000, 0.000000000000000000, 4.500000000000000888 ) ) ;
#368 = AXIS2_PLACEMENT_3D ( 'NONE', #362, #831, #35 ) ;
#369 = ADVANCED_FACE ( 'NONE', ( #220 ), #774, .T. ) ;
#370 = CARTESIAN_POINT ( 'NONE',  ( 8.850000000000001421, 0.000000000000000000, 16.39999999999999858 ) ) ;
#371 = DIRECTION ( 'NONE',  ( -0.000000000000000000, -0.000000000000000000, -1.000000000000000000 ) ) ;
#372 = VECTOR ( 'NONE', #93, 1000.000000000000000 ) ;
#373 = ORIENTED_EDGE ( 'NONE', *, *, #388, .T. ) ;
#374 = CARTESIAN_POINT ( 'NONE',  ( 8.850000000000001421, 0.000000000000000000, 15.69999999999999929 ) ) ;
#375 = FACE_OUTER_BOUND ( 'NONE', #169, .T. ) ;
#376 = CARTESIAN_POINT ( 'NONE',  ( -10.00000000000000000, 0.000000000000000000, 0.8000000000000003775 ) ) ;
#377 = EDGE_CURVE ( 'NONE', #852, #536, #493, .T. ) ;
#378 = CARTESIAN_POINT ( 'NONE',  ( -0.5999999999999998668, 0.000000000000000000, 4.500000000000000888 ) ) ;
#379 = CARTESIAN_POINT ( 'NONE',  ( 0.000000000000000000, 0.000000000000000000, 15.59999999999999787 ) ) ;
#380 = AXIS2_PLACEMENT_3D ( 'NONE', #166, #574, #506 ) ;
#381 = DIRECTION ( 'NONE',  ( -1.000000000000000000, 0.000000000000000000, 0.000000000000000000 ) ) ;
#382 = ORIENTED_EDGE ( 'NONE', *, *, #123, .F. ) ;
#383 = DIRECTION ( 'NONE',  ( 1.000000000000000000, 0.000000000000000000, 0.000000000000000000 ) ) ;
#384 = CIRCLE ( 'NONE', #332, 1.324999999999999734 ) ;
#385 = CONICAL_SURFACE ( 'NONE', #546, 0.5250000000000011324, 0.7853981633974459475 ) ;
#386 = LINE ( 'NONE', #715, #124 ) ;
#387 = VECTOR ( 'NONE', #451, 1000.000000000000000 ) ;
#388 = EDGE_CURVE ( 'NONE', #717, #22, #828, .T. ) ;
#389 = ORIENTED_EDGE ( 'NONE', *, *, #809, .T. ) ;
#390 = ORIENTED_EDGE ( 'NONE', *, *, #644, .F. ) ;
#391 = DIRECTION ( 'NONE',  ( -1.000000000000000000, 0.000000000000000000, 0.000000000000000000 ) ) ;
#392 = EDGE_LOOP ( 'NONE', ( #52, #419 ) ) ;
#393 =( LENGTH_UNIT ( ) NAMED_UNIT ( * ) SI_UNIT ( .MILLI., .METRE. ) );
#394 = VECTOR ( 'NONE', #27, 1000.000000000000000 ) ;
#395 = AXIS2_PLACEMENT_3D ( 'NONE', #573, #835, #517 ) ;
#396 = AXIS2_PLACEMENT_3D ( 'NONE', #842, #780, #783 ) ;
#397 = VERTEX_POINT ( 'NONE', #183 ) ;
#398 = DIRECTION ( 'NONE',  ( 0.000000000000000000, 0.000000000000000000, -1.000000000000000000 ) ) ;
#399 = DIRECTION ( 'NONE',  ( 0.000000000000000000, 0.000000000000000000, -1.000000000000000000 ) ) ;
#400 = ORIENTED_EDGE ( 'NONE', *, *, #377, .F. ) ;
#401 = AXIS2_PLACEMENT_3D ( 'NONE', #481, #307, #501 ) ;
#402 = VECTOR ( 'NONE', #303, 1000.000000000000000 ) ;
#403 = VERTEX_POINT ( 'NONE', #374 ) ;
#404 = EDGE_CURVE ( 'NONE', #438, #792, #651, .T. ) ;
#405 = AXIS2_PLACEMENT_3D ( 'NONE', #630, #817, #643 ) ;
#406 = CARTESIAN_POINT ( 'NONE',  ( 0.5999999999999998668, 7.347880794884117764E-17, 4.500000000000000888 ) ) ;
#407 = FACE_OUTER_BOUND ( 'NONE', #158, .T. ) ;
#408 = DIRECTION ( 'NONE',  ( 0.000000000000000000, 0.000000000000000000, 1.000000000000000000 ) ) ;
#409 = FACE_BOUND ( 'NONE', #217, .T. ) ;
#410 = VECTOR ( 'NONE', #440, 1000.000000000000114 ) ;
#411 = VERTEX_POINT ( 'NONE', #245 ) ;
#412 = EDGE_LOOP ( 'NONE', ( #503, #523 ) ) ;
#413 = CARTESIAN_POINT ( 'NONE',  ( 0.000000000000000000, 0.000000000000000000, 0.000000000000000000 ) ) ;
#414 = EDGE_CURVE ( 'NONE', #536, #728, #386, .T. ) ;
#415 = DIRECTION ( 'NONE',  ( 1.000000000000000000, 0.000000000000000000, 0.000000000000000000 ) ) ;
#416 = ORIENTED_EDGE ( 'NONE', *, *, #135, .T. ) ;
#417 = FACE_BOUND ( 'NONE', #533, .T. ) ;
#418 = FACE_OUTER_BOUND ( 'NONE', #790, .T. ) ;
#419 = ORIENTED_EDGE ( 'NONE', *, *, #497, .F. ) ;
#420 = AXIS2_PLACEMENT_3D ( 'NONE', #846, #703, #310 ) ;
#421 = VECTOR ( 'NONE', #595, 1000.000000000000114 ) ;
#422 = CARTESIAN_POINT ( 'NONE',  ( -4.775000000000001243, -4.775000000000001243, 15.69999999999999929 ) ) ;
#423 = DIRECTION ( 'NONE',  ( -1.000000000000000000, 0.000000000000000000, 0.000000000000000000 ) ) ;
#424 = PRODUCT_DEFINITION_CONTEXT ( 'detailed design', #588, 'design' ) ;
#425 = VERTEX_POINT ( 'NONE', #641 ) ;
#426 = EDGE_CURVE ( 'NONE', #722, #636, #661, .T. ) ;
#427 = FACE_OUTER_BOUND ( 'NONE', #150, .T. ) ;
#428 = DIRECTION ( 'NONE',  ( 1.224646799147353207E-16, 1.000000000000000000, -0.000000000000000000 ) ) ;
#429 = CARTESIAN_POINT ( 'NONE',  ( 0.000000000000000000, 0.000000000000000000, 0.000000000000000000 ) ) ;
#430 = DIRECTION ( 'NONE',  ( 0.000000000000000000, 0.000000000000000000, -1.000000000000000000 ) ) ;
#431 = ORIENTED_EDGE ( 'NONE', *, *, #571, .F. ) ;
#432 = FACE_OUTER_BOUND ( 'NONE', #412, .T. ) ;
#433 = EDGE_CURVE ( 'NONE', #746, #365, #141, .T. ) ;
#434 = DIRECTION ( 'NONE',  ( 0.000000000000000000, 0.000000000000000000, 1.000000000000000000 ) ) ;
#435 = CARTESIAN_POINT ( 'NONE',  ( 0.000000000000000000, 0.000000000000000000, 4.500000000000000888 ) ) ;
#436 =( GEOMETRIC_REPRESENTATION_CONTEXT ( 3 ) GLOBAL_UNCERTAINTY_ASSIGNED_CONTEXT ( ( #754 ) ) GLOBAL_UNIT_ASSIGNED_CONTEXT ( ( #271, #76, #599 ) ) REPRESENTATION_CONTEXT ( 'NONE', 'WORKASPACE' ) );
#437 = SURFACE_STYLE_FILL_AREA ( #496 ) ;
#438 = VERTEX_POINT ( 'NONE', #648 ) ;
#439 = CARTESIAN_POINT ( 'NONE',  ( 0.000000000000000000, 0.000000000000000000, 1.500000000000000000 ) ) ;
#440 = DIRECTION ( 'NONE',  ( 0.7071067811865459074, 8.659560562354913137E-17, -0.7071067811865491270 ) ) ;
#441 = AXIS2_PLACEMENT_3D ( 'NONE', #413, #80, #543 ) ;
#442 = EDGE_CURVE ( 'NONE', #94, #188, #685, .T. ) ;
#443 = DIRECTION ( 'NONE',  ( -0.000000000000000000, -0.000000000000000000, 1.000000000000000000 ) ) ;
#444 = AXIS2_PLACEMENT_3D ( 'NONE', #206, #801, #83 ) ;
#445 = DIRECTION ( 'NONE',  ( -1.000000000000000000, 0.000000000000000000, 0.000000000000000000 ) ) ;
#446 = AXIS2_PLACEMENT_3D ( 'NONE', #237, #371, #168 ) ;
#447 = CYLINDRICAL_SURFACE ( 'NONE', #857, 8.050000000000000711 ) ;
#448 = DIRECTION ( 'NONE',  ( 0.000000000000000000, 0.000000000000000000, -1.000000000000000000 ) ) ;
#449 = ADVANCED_FACE ( 'NONE', ( #238 ), #510, .T. ) ;
#450 = DIRECTION ( 'NONE',  ( 1.000000000000000000, 0.000000000000000000, 0.000000000000000000 ) ) ;
#451 = DIRECTION ( 'NONE',  ( -0.000000000000000000, -0.000000000000000000, -1.000000000000000000 ) ) ;
#452 = VERTEX_POINT ( 'NONE', #234 ) ;
#453 = DIRECTION ( 'NONE',  ( 0.000000000000000000, 0.000000000000000000, -1.000000000000000000 ) ) ;
#454 = AXIS2_PLACEMENT_3D ( 'NONE', #766, #21, #152 ) ;
#455 = EDGE_CURVE ( 'NONE', #473, #665, #504, .T. ) ;
#456 = CARTESIAN_POINT ( 'NONE',  ( 0.000000000000000000, 0.000000000000000000, 1.500000000000000000 ) ) ;
#457 = ORIENTED_EDGE ( 'NONE', *, *, #725, .T. ) ;
#458 = EDGE_LOOP ( 'NONE', ( #616, #796, #34, #262 ) ) ;
#459 = VECTOR ( 'NONE', #607, 1000.000000000000000 ) ;
#460 = AXIS2_PLACEMENT_3D ( 'NONE', #176, #121, #249 ) ;
#461 = ORIENTED_EDGE ( 'NONE', *, *, #377, .T. ) ;
#462 = DIRECTION ( 'NONE',  ( -1.000000000000000000, 1.224646799147353207E-16, 0.000000000000000000 ) ) ;
#463 = ORIENTED_EDGE ( 'NONE', *, *, #354, .F. ) ;
#464 = AXIS2_PLACEMENT_3D ( 'NONE', #475, #39, #79 ) ;
#465 = STYLED_ITEM ( 'NONE', ( #109 ), #613 ) ;
#466 = DIRECTION ( 'NONE',  ( 0.000000000000000000, 0.000000000000000000, 1.000000000000000000 ) ) ;
#467 = ORIENTED_EDGE ( 'NONE', *, *, #329, .F. ) ;
#468 = ORIENTED_EDGE ( 'NONE', *, *, #56, .F. ) ;
#469 = CARTESIAN_POINT ( 'NONE',  ( 0.5999999999999998668, 7.347880794884117764E-17, 1.500000000000000000 ) ) ;
#470 = ORIENTED_EDGE ( 'NONE', *, *, #172, .T. ) ;
#471 = EDGE_CURVE ( 'NONE', #136, #403, #653, .T. ) ;
#472 = PLANE ( 'NONE',  #699 ) ;
#473 = VERTEX_POINT ( 'NONE', #378 ) ;
#474 = DIRECTION ( 'NONE',  ( 0.000000000000000000, 0.000000000000000000, 1.000000000000000000 ) ) ;
#475 = CARTESIAN_POINT ( 'NONE',  ( -4.775000000000001243, -4.775000000000001243, 19.89999999999999858 ) ) ;
#476 = CIRCLE ( 'NONE', #227, 0.5250000000000011324 ) ;
#477 = FACE_OUTER_BOUND ( 'NONE', #25, .T. ) ;
#478 = CARTESIAN_POINT ( 'NONE',  ( -4.775000000000001243, 4.774999999999999467, 19.89999999999999858 ) ) ;
#479 = ADVANCED_FACE ( 'NONE', ( #712 ), #447, .F. ) ;
#480 = VERTEX_POINT ( 'NONE', #839 ) ;
#481 = CARTESIAN_POINT ( 'NONE',  ( 0.000000000000000000, 0.000000000000000000, 16.39999999999999858 ) ) ;
#482 = ORIENTED_EDGE ( 'NONE', *, *, #196, .T. ) ;
#483 = DIRECTION ( 'NONE',  ( 0.000000000000000000, 0.000000000000000000, 1.000000000000000000 ) ) ;
#484 = FACE_OUTER_BOUND ( 'NONE', #797, .T. ) ;
#485 = EDGE_LOOP ( 'NONE', ( #461, #264 ) ) ;
#486 = DIRECTION ( 'NONE',  ( 0.000000000000000000, 0.000000000000000000, 1.000000000000000000 ) ) ;
#487 = EDGE_CURVE ( 'NONE', #403, #136, #721, .T. ) ;
#488 = CARTESIAN_POINT ( 'NONE',  ( -4.775000000000001243, 4.774999999999999467, 20.69999999999999929 ) ) ;
#489 = ORIENTED_EDGE ( 'NONE', *, *, #226, .F. ) ;
#490 = CYLINDRICAL_SURFACE ( 'NONE', #195, 1.324999999999999734 ) ;
#491 = CYLINDRICAL_SURFACE ( 'NONE', #454, 1.324999999999999734 ) ;
#492 = ORIENTED_EDGE ( 'NONE', *, *, #571, .T. ) ;
#493 = CIRCLE ( 'NONE', #420, 0.5250000000000011324 ) ;
#494 = VECTOR ( 'NONE', #218, 1000.000000000000000 ) ;
#495 = LINE ( 'NONE', #161, #586 ) ;
#496 = FILL_AREA_STYLE ('',( #224 ) ) ;
#497 = EDGE_CURVE ( 'NONE', #611, #233, #726, .T. ) ;
#498 = ORIENTED_EDGE ( 'NONE', *, *, #320, .T. ) ;
#499 = CARTESIAN_POINT ( 'NONE',  ( -4.775000000000001243, 4.774999999999999467, 15.69999999999999929 ) ) ;
#500 = DIRECTION ( 'NONE',  ( 1.000000000000000000, 0.000000000000000000, 0.000000000000000000 ) ) ;
#501 = DIRECTION ( 'NONE',  ( -1.000000000000000000, 0.000000000000000000, 0.000000000000000000 ) ) ;
#502 = DIRECTION ( 'NONE',  ( 1.000000000000000000, 0.000000000000000000, 0.000000000000000000 ) ) ;
#503 = ORIENTED_EDGE ( 'NONE', *, *, #511, .T. ) ;
#504 = LINE ( 'NONE', #179, #387 ) ;
#505 = ADVANCED_FACE ( 'NONE', ( #554 ), #149, .T. ) ;
#506 = DIRECTION ( 'NONE',  ( -1.000000000000000000, 0.000000000000000000, 0.000000000000000000 ) ) ;
#507 = VERTEX_POINT ( 'NONE', #376 ) ;
#508 = DIRECTION ( 'NONE',  ( -0.7071067811865462405, 0.000000000000000000, -0.7071067811865489050 ) ) ;
#509 = DIRECTION ( 'NONE',  ( -0.000000000000000000, -0.000000000000000000, -1.000000000000000000 ) ) ;
#510 = CYLINDRICAL_SURFACE ( 'NONE', #396, 1.324999999999999734 ) ;
#511 = EDGE_CURVE ( 'NONE', #138, #690, #614, .T. ) ;
#512 = CIRCLE ( 'NONE', #243, 8.050000000000000711 ) ;
#513 = CARTESIAN_POINT ( 'NONE',  ( 0.000000000000000000, 0.000000000000000000, 16.39999999999999858 ) ) ;
#514 = DIRECTION ( 'NONE',  ( 1.000000000000000000, 0.000000000000000000, 0.000000000000000000 ) ) ;
#515 = CIRCLE ( 'NONE', #189, 0.8000000000000003775 ) ;
#516 = PRODUCT ( 'Model_MEu-CO', 'Model_MEu-CO', '', ( #84 ) ) ;
#517 = DIRECTION ( 'NONE',  ( 1.000000000000000000, 0.000000000000000000, 0.000000000000000000 ) ) ;
#518 = VERTEX_POINT ( 'NONE', #45 ) ;
#519 = ADVANCED_FACE ( 'NONE', ( #832 ), #359, .T. ) ;
#520 = EDGE_CURVE ( 'NONE', #438, #717, #285, .T. ) ;
#521 = FACE_OUTER_BOUND ( 'NONE', #531, .T. ) ;
#522 = DIRECTION ( 'NONE',  ( 0.7071067811865462405, 8.659560562354915602E-17, -0.7071067811865489050 ) ) ;
#523 = ORIENTED_EDGE ( 'NONE', *, *, #226, .T. ) ;
#524 = DIRECTION ( 'NONE',  ( 0.000000000000000000, 0.000000000000000000, 1.000000000000000000 ) ) ;
#525 = ORIENTED_EDGE ( 'NONE', *, *, #520, .T. ) ;
#526 = CIRCLE ( 'NONE', #775, 0.5250000000000011324 ) ;
#527 = DIRECTION ( 'NONE',  ( 1.000000000000000000, 0.000000000000000000, 0.000000000000000000 ) ) ;
#528 = VECTOR ( 'NONE', #164, 1000.000000000000000 ) ;
#529 = ADVANCED_FACE ( 'NONE', ( #31 ), #530, .T. ) ;
#530 = CONICAL_SURFACE ( 'NONE', #75, 0.5250000000000011324, 0.7853981633974463916 ) ;
#531 = EDGE_LOOP ( 'NONE', ( #761, #82, #702, #811 ) ) ;
#532 = SHAPE_DEFINITION_REPRESENTATION ( #829, #727 ) ;
#533 = EDGE_LOOP ( 'NONE', ( #103, #781 ) ) ;
#534 = AXIS2_PLACEMENT_3D ( 'NONE', #645, #51, #381 ) ;
#535 = APPLICATION_PROTOCOL_DEFINITION ( 'draft international standard', 'automotive_design', 1998, #588 ) ;
#536 = VERTEX_POINT ( 'NONE', #689 ) ;
#537 = ADVANCED_FACE ( 'NONE', ( #232 ), #350, .T. ) ;
#538 = DIRECTION ( 'NONE',  ( 0.000000000000000000, 0.000000000000000000, 1.000000000000000000 ) ) ;
#539 = ORIENTED_EDGE ( 'NONE', *, *, #740, .T. ) ;
#540 = ORIENTED_EDGE ( 'NONE', *, *, #240, .F. ) ;
#541 = DIRECTION ( 'NONE',  ( 0.000000000000000000, 0.000000000000000000, 1.000000000000000000 ) ) ;
#542 = AXIS2_PLACEMENT_3D ( 'NONE', #557, #428, #621 ) ;
#543 = DIRECTION ( 'NONE',  ( 1.000000000000000000, 0.000000000000000000, 0.000000000000000000 ) ) ;
#544 = AXIS2_PLACEMENT_3D ( 'NONE', #101, #114, #837 ) ;
#545 = LINE ( 'NONE', #19, #66 ) ;
#546 = AXIS2_PLACEMENT_3D ( 'NONE', #173, #398, #812 ) ;
#547 = AXIS2_PLACEMENT_3D ( 'NONE', #170, #770, #116 ) ;
#548 = FACE_OUTER_BOUND ( 'NONE', #62, .T. ) ;
#549 = ORIENTED_EDGE ( 'NONE', *, *, #63, .T. ) ;
#550 = DIRECTION ( 'NONE',  ( 0.000000000000000000, 0.000000000000000000, 1.000000000000000000 ) ) ;
#551 = DIRECTION ( 'NONE',  ( 0.000000000000000000, 0.000000000000000000, -1.000000000000000000 ) ) ;
#552 = ORIENTED_EDGE ( 'NONE', *, *, #833, .T. ) ;
#553 = CARTESIAN_POINT ( 'NONE',  ( -8.050000000000000711, 0.000000000000000000, 0.000000000000000000 ) ) ;
#554 = FACE_OUTER_BOUND ( 'NONE', #269, .T. ) ;
#555 = ORIENTED_EDGE ( 'NONE', *, *, #46, .T. ) ;
#556 = DIRECTION ( 'NONE',  ( -0.000000000000000000, -0.000000000000000000, -1.000000000000000000 ) ) ;
#557 = CARTESIAN_POINT ( 'NONE',  ( -9.199999999999999289, 1.126675055215564822E-15, 0.8000000000000003775 ) ) ;
#558 = VECTOR ( 'NONE', #692, 1000.000000000000000 ) ;
#559 = EDGE_LOOP ( 'NONE', ( #734, #696 ) ) ;
#560 = EDGE_CURVE ( 'NONE', #452, #214, #476, .T. ) ;
#561 = DIRECTION ( 'NONE',  ( 0.000000000000000000, 0.000000000000000000, 1.000000000000000000 ) ) ;
#562 = DIRECTION ( 'NONE',  ( -0.000000000000000000, -0.000000000000000000, -1.000000000000000000 ) ) ;
#563 = VERTEX_POINT ( 'NONE', #708 ) ;
#564 = CARTESIAN_POINT ( 'NONE',  ( -5.300000000000002487, 4.774999999999999467, 20.69999999999999929 ) ) ;
#565 = LINE ( 'NONE', #42, #363 ) ;
#566 = AXIS2_PLACEMENT_3D ( 'NONE', #210, #399, #339 ) ;
#567 = CIRCLE ( 'NONE', #187, 1.324999999999999734 ) ;
#568 = CIRCLE ( 'NONE', #41, 1.324999999999999734 ) ;
#569 = DIRECTION ( 'NONE',  ( 0.000000000000000000, 0.000000000000000000, -1.000000000000000000 ) ) ;
#570 = DIRECTION ( 'NONE',  ( -0.000000000000000000, -0.000000000000000000, -1.000000000000000000 ) ) ;
#571 = EDGE_CURVE ( 'NONE', #425, #563, #96, .T. ) ;
#572 = ORIENTED_EDGE ( 'NONE', *, *, #324, .T. ) ;
#573 = CARTESIAN_POINT ( 'NONE',  ( -4.775000000000001243, 4.774999999999999467, 15.69999999999999929 ) ) ;
#574 = DIRECTION ( 'NONE',  ( 0.000000000000000000, 0.000000000000000000, -1.000000000000000000 ) ) ;
#575 = ORIENTED_EDGE ( 'NONE', *, *, #240, .T. ) ;
#576 = DIRECTION ( 'NONE',  ( -0.000000000000000000, -0.000000000000000000, -1.000000000000000000 ) ) ;
#577 = DIRECTION ( 'NONE',  ( 0.000000000000000000, 0.000000000000000000, 1.000000000000000000 ) ) ;
#578 = ORIENTED_EDGE ( 'NONE', *, *, #194, .T. ) ;
#579 = EDGE_CURVE ( 'NONE', #518, #480, #680, .T. ) ;
#580 = DIRECTION ( 'NONE',  ( -1.000000000000000000, 0.000000000000000000, 0.000000000000000000 ) ) ;
#581 = CYLINDRICAL_SURFACE ( 'NONE', #130, 8.850000000000001421 ) ;
#582 = DIRECTION ( 'NONE',  ( -1.000000000000000000, 0.000000000000000000, 0.000000000000000000 ) ) ;
#583 = CARTESIAN_POINT ( 'NONE',  ( -4.775000000000001243, -4.775000000000001243, 20.69999999999999929 ) ) ;
#584 = ADVANCED_FACE ( 'NONE', ( #694 ), #291, .F. ) ;
#585 = ORIENTED_EDGE ( 'NONE', *, *, #725, .F. ) ;
#586 = VECTOR ( 'NONE', #508, 1000.000000000000000 ) ;
#587 = CARTESIAN_POINT ( 'NONE',  ( -4.775000000000001243, 4.774999999999999467, 20.69999999999999929 ) ) ;
#588 = APPLICATION_CONTEXT ( 'automotive_design' ) ;
#589 = ORIENTED_EDGE ( 'NONE', *, *, #590, .T. ) ;
#590 = EDGE_CURVE ( 'NONE', #60, #305, #17, .T. ) ;
#591 = CARTESIAN_POINT ( 'NONE',  ( -9.199999999999999289, 1.175660927181458842E-15, 16.39999999999999858 ) ) ;
#592 = ORIENTED_EDGE ( 'NONE', *, *, #311, .T. ) ;
#593 = CARTESIAN_POINT ( 'NONE',  ( -0.5999999999999998668, 0.000000000000000000, 1.500000000000000000 ) ) ;
#594 = EDGE_LOOP ( 'NONE', ( #184, #818, #592, #133 ) ) ;
#595 = DIRECTION ( 'NONE',  ( 0.7071067811865459074, 8.659560562354913137E-17, -0.7071067811865491270 ) ) ;
#596 = VECTOR ( 'NONE', #509, 1000.000000000000000 ) ;
#597 = ADVANCED_FACE ( 'NONE', ( #773 ), #89, .T. ) ;
#598 = ORIENTED_EDGE ( 'NONE', *, *, #123, .T. ) ;
#599 =( NAMED_UNIT ( * ) SI_UNIT ( $, .STERADIAN. ) SOLID_ANGLE_UNIT ( ) );
#600 = ORIENTED_EDGE ( 'NONE', *, *, #404, .F. ) ;
#601 = EDGE_LOOP ( 'NONE', ( #247, #200 ) ) ;
#602 = CIRCLE ( 'NONE', #441, 9.199999999999999289 ) ;
#603 = AXIS2_PLACEMENT_3D ( 'NONE', #352, #570, #768 ) ;
#604 = ORIENTED_EDGE ( 'NONE', *, *, #14, .T. ) ;
#605 = CARTESIAN_POINT ( 'NONE',  ( 0.000000000000000000, 0.000000000000000000, 15.59999999999999787 ) ) ;
#606 = CARTESIAN_POINT ( 'NONE',  ( 0.000000000000000000, 0.000000000000000000, 0.000000000000000000 ) ) ;
#607 = DIRECTION ( 'NONE',  ( -0.000000000000000000, -0.000000000000000000, -1.000000000000000000 ) ) ;
#608 = CARTESIAN_POINT ( 'NONE',  ( 4.774999999999999467, 4.775000000000001243, 20.69999999999999929 ) ) ;
#609 = PLANE ( 'NONE',  #104 ) ;
#610 = CARTESIAN_POINT ( 'NONE',  ( 9.199999999999999289, 0.000000000000000000, 16.39999999999999858 ) ) ;
#611 = VERTEX_POINT ( 'NONE', #624 ) ;
#612 = DIRECTION ( 'NONE',  ( 0.000000000000000000, 0.000000000000000000, -1.000000000000000000 ) ) ;
#613 = MANIFOLD_SOLID_BREP ( '\X2\0421043a044004430433043b0435043d04380435\X0\1', #255 ) ;
#614 = CIRCLE ( 'NONE', #405, 9.199999999999999289 ) ;
#615 = CARTESIAN_POINT ( 'NONE',  ( 0.000000000000000000, 0.000000000000000000, 1.500000000000000000 ) ) ;
#616 = ORIENTED_EDGE ( 'NONE', *, *, #135, .F. ) ;
#617 = DIRECTION ( 'NONE',  ( 0.000000000000000000, 0.000000000000000000, -1.000000000000000000 ) ) ;
#618 = DIRECTION ( 'NONE',  ( 0.000000000000000000, 0.000000000000000000, 1.000000000000000000 ) ) ;
#619 = ORIENTED_EDGE ( 'NONE', *, *, #129, .T. ) ;
#620 = FACE_BOUND ( 'NONE', #392, .T. ) ;
#621 = DIRECTION ( 'NONE',  ( -1.000000000000000000, 1.224646799147353207E-16, 0.000000000000000000 ) ) ;
#622 = ORIENTED_EDGE ( 'NONE', *, *, #791, .F. ) ;
#623 = DIRECTION ( 'NONE',  ( 1.000000000000000000, 0.000000000000000000, 0.000000000000000000 ) ) ;
#624 = CARTESIAN_POINT ( 'NONE',  ( -8.850000000000001421, 1.083812417245407876E-15, 16.39999999999999858 ) ) ;
#625 = DIRECTION ( 'NONE',  ( 0.000000000000000000, 0.000000000000000000, 1.000000000000000000 ) ) ;
#626 = CARTESIAN_POINT ( 'NONE',  ( 0.000000000000000000, 0.000000000000000000, 16.39999999999999858 ) ) ;
#627 = ORIENTED_EDGE ( 'NONE', *, *, #673, .F. ) ;
#628 = ADVANCED_FACE ( 'NONE', ( #824 ), #127, .T. ) ;
#629 = DIRECTION ( 'NONE',  ( -1.000000000000000000, 0.000000000000000000, 0.000000000000000000 ) ) ;
#630 = CARTESIAN_POINT ( 'NONE',  ( 0.000000000000000000, 0.000000000000000000, 16.39999999999999858 ) ) ;
#631 = ORIENTED_EDGE ( 'NONE', *, *, #46, .F. ) ;
#632 = CARTESIAN_POINT ( 'NONE',  ( 0.000000000000000000, 0.000000000000000000, 16.39999999999999858 ) ) ;
#633 = AXIS2_PLACEMENT_3D ( 'NONE', #810, #731, #751 ) ;
#634 = DIRECTION ( 'NONE',  ( -0.000000000000000000, -0.000000000000000000, 1.000000000000000000 ) ) ;
#635 = AXIS2_PLACEMENT_3D ( 'NONE', #50, #364, #502 ) ;
#636 = VERTEX_POINT ( 'NONE', #190 ) ;
#637 = CIRCLE ( 'NONE', #858, 0.5999999999999998668 ) ;
#638 = CARTESIAN_POINT ( 'NONE',  ( -4.250000000000000000, 4.774999999999999467, 20.69999999999999929 ) ) ;
#639 = DIRECTION ( 'NONE',  ( -0.000000000000000000, -0.000000000000000000, -1.000000000000000000 ) ) ;
#640 = ORIENTED_EDGE ( 'NONE', *, *, #56, .T. ) ;
#641 = CARTESIAN_POINT ( 'NONE',  ( -6.100000000000001421, -4.775000000000001243, 19.89999999999999858 ) ) ;
#642 = LINE ( 'NONE', #762, #37 ) ;
#643 = DIRECTION ( 'NONE',  ( 1.000000000000000000, 0.000000000000000000, 0.000000000000000000 ) ) ;
#644 = EDGE_CURVE ( 'NONE', #188, #397, #657, .T. ) ;
#645 = CARTESIAN_POINT ( 'NONE',  ( 0.000000000000000000, 0.000000000000000000, 0.000000000000000000 ) ) ;
#646 = VERTEX_POINT ( 'NONE', #61 ) ;
#647 = DIRECTION ( 'NONE',  ( 0.000000000000000000, 0.000000000000000000, 1.000000000000000000 ) ) ;
#648 = CARTESIAN_POINT ( 'NONE',  ( 8.050000000000000711, 9.858406733136194415E-16, 1.500000000000000000 ) ) ;
#649 = EDGE_CURVE ( 'NONE', #728, #411, #157, .T. ) ;
#650 = ORIENTED_EDGE ( 'NONE', *, *, #849, .T. ) ;
#651 = CIRCLE ( 'NONE', #175, 8.050000000000000711 ) ;
#652 = CARTESIAN_POINT ( 'NONE',  ( 4.774999999999999467, 4.775000000000001243, 20.69999999999999929 ) ) ;
#653 = CIRCLE ( 'NONE', #547, 8.850000000000001421 ) ;
#654 = ORIENTED_EDGE ( 'NONE', *, *, #205, .T. ) ;
#655 = EDGE_CURVE ( 'NONE', #305, #60, #776, .T. ) ;
#656 = ORIENTED_EDGE ( 'NONE', *, *, #414, .F. ) ;
#657 = LINE ( 'NONE', #785, #421 ) ;
#658 = EDGE_LOOP ( 'NONE', ( #463, #750, #492, #640 ) ) ;
#659 = EDGE_CURVE ( 'NONE', #646, #563, #568, .T. ) ;
#660 =( NAMED_UNIT ( * ) SI_UNIT ( $, .STERADIAN. ) SOLID_ANGLE_UNIT ( ) );
#661 = CIRCLE ( 'NONE', #460, 9.199999999999999289 ) ;
#662 = EDGE_CURVE ( 'NONE', #357, #690, #515, .T. ) ;
#663 = ORIENTED_EDGE ( 'NONE', *, *, #487, .F. ) ;
#664 = ADVANCED_FACE ( 'NONE', ( #521 ), #131, .T. ) ;
#665 = VERTEX_POINT ( 'NONE', #593 ) ;
#666 = ADVANCED_FACE ( 'NONE', ( #117 ), #808, .T. ) ;
#667 = CARTESIAN_POINT ( 'NONE',  ( 0.000000000000000000, 0.000000000000000000, 0.8000000000000003775 ) ) ;
#668 = CARTESIAN_POINT ( 'NONE',  ( 0.000000000000000000, 0.000000000000000000, 15.59999999999999787 ) ) ;
#669 = ORIENTED_EDGE ( 'NONE', *, *, #71, .T. ) ;
#670 = CIRCLE ( 'NONE', #718, 10.00000000000000000 ) ;
#671 = CARTESIAN_POINT ( 'NONE',  ( -4.775000000000001243, -4.775000000000001243, 20.69999999999999929 ) ) ;
#672 = EDGE_LOOP ( 'NONE', ( #743, #111 ) ) ;
#673 = EDGE_CURVE ( 'NONE', #536, #852, #113, .T. ) ;
#674 = CARTESIAN_POINT ( 'NONE',  ( 6.099999999999999645, 4.775000000000001243, 20.69999999999999929 ) ) ;
#675 = FACE_OUTER_BOUND ( 'NONE', #128, .T. ) ;
#676 = DIRECTION ( 'NONE',  ( -1.000000000000000000, 0.000000000000000000, 0.000000000000000000 ) ) ;
#677 = LINE ( 'NONE', #212, #719 ) ;
#678 = EDGE_LOOP ( 'NONE', ( #815, #8, #317, #228 ) ) ;
#679 = DIRECTION ( 'NONE',  ( -0.000000000000000000, -0.000000000000000000, -1.000000000000000000 ) ) ;
#680 = LINE ( 'NONE', #115, #596 ) ;
#681 = ORIENTED_EDGE ( 'NONE', *, *, #426, .T. ) ;
#682 = AXIS2_PLACEMENT_3D ( 'NONE', #667, #474, #284 ) ;
#683 = DIRECTION ( 'NONE',  ( 0.000000000000000000, 0.000000000000000000, 1.000000000000000000 ) ) ;
#684 = TOROIDAL_SURFACE ( 'NONE', #244, 9.199999999999999289, 0.8000000000000000444 ) ;
#685 = CIRCLE ( 'NONE', #246, 0.5250000000000011324 ) ;
#686 = DIRECTION ( 'NONE',  ( 1.000000000000000000, 0.000000000000000000, 0.000000000000000000 ) ) ;
#687 = ORIENTED_EDGE ( 'NONE', *, *, #192, .F. ) ;
#688 = DIRECTION ( 'NONE',  ( 1.000000000000000000, 0.000000000000000000, 0.000000000000000000 ) ) ;
#689 = CARTESIAN_POINT ( 'NONE',  ( 5.300000000000000711, 4.775000000000001243, 20.69999999999999929 ) ) ;
#690 = VERTEX_POINT ( 'NONE', #591 ) ;
#691 = DIRECTION ( 'NONE',  ( 1.000000000000000000, 0.000000000000000000, 0.000000000000000000 ) ) ;
#692 = DIRECTION ( 'NONE',  ( -0.000000000000000000, -0.000000000000000000, -1.000000000000000000 ) ) ;
#693 = DIRECTION ( 'NONE',  ( -1.000000000000000000, 0.000000000000000000, 0.000000000000000000 ) ) ;
#694 = FACE_OUTER_BOUND ( 'NONE', #756, .T. ) ;
#695 = UNCERTAINTY_MEASURE_WITH_UNIT (LENGTH_MEASURE( 1.000000000000000082E-05 ), #393, 'distance_accuracy_value', 'NONE');
#696 = ORIENTED_EDGE ( 'NONE', *, *, #99, .F. ) ;
#697 = PLANE ( 'NONE',  #315 ) ;
#698 = DIRECTION ( 'NONE',  ( -1.000000000000000000, 0.000000000000000000, 0.000000000000000000 ) ) ;
#699 = AXIS2_PLACEMENT_3D ( 'NONE', #671, #466, #7 ) ;
#700 = DIRECTION ( 'NONE',  ( 1.000000000000000000, 0.000000000000000000, 0.000000000000000000 ) ) ;
#701 = SURFACE_STYLE_USAGE ( .BOTH. , #102 ) ;
#702 = ORIENTED_EDGE ( 'NONE', *, *, #14, .F. ) ;
#703 = DIRECTION ( 'NONE',  ( 0.000000000000000000, 0.000000000000000000, 1.000000000000000000 ) ) ;
#704 = AXIS2_PLACEMENT_3D ( 'NONE', #142, #745, #266 ) ;
#705 = CARTESIAN_POINT ( 'NONE',  ( -8.050000000000000711, 0.000000000000000000, 1.500000000000000000 ) ) ;
#706 = AXIS2_PLACEMENT_3D ( 'NONE', #652, #524, #318 ) ;
#707 = DIRECTION ( 'NONE',  ( 0.000000000000000000, 0.000000000000000000, 1.000000000000000000 ) ) ;
#708 = CARTESIAN_POINT ( 'NONE',  ( -6.100000000000001421, -4.775000000000001243, 15.69999999999999929 ) ) ;
#709 = DIRECTION ( 'NONE',  ( -1.000000000000000000, 0.000000000000000000, 0.000000000000000000 ) ) ;
#710 = FACE_OUTER_BOUND ( 'NONE', #198, .T. ) ;
#711 = DIRECTION ( 'NONE',  ( 1.224646799147353207E-16, 1.000000000000000000, -0.000000000000000000 ) ) ;
#712 = FACE_OUTER_BOUND ( 'NONE', #219, .T. ) ;
#713 = ORIENTED_EDGE ( 'NONE', *, *, #455, .F. ) ;
#714 = CARTESIAN_POINT ( 'NONE',  ( 4.774999999999999467, 4.775000000000001243, 15.69999999999999929 ) ) ;
#715 = CARTESIAN_POINT ( 'NONE',  ( 5.300000000000000711, 4.775000000000001243, 20.69999999999999929 ) ) ;
#716 = ORIENTED_EDGE ( 'NONE', *, *, #442, .T. ) ;
#717 = VERTEX_POINT ( 'NONE', #851 ) ;
#718 = AXIS2_PLACEMENT_3D ( 'NONE', #668, #278, #688 ) ;
#719 = VECTOR ( 'NONE', #105, 1000.000000000000000 ) ;
#720 = CARTESIAN_POINT ( 'NONE',  ( -4.775000000000001243, -4.775000000000001243, 20.69999999999999929 ) ) ;
#721 = CIRCLE ( 'NONE', #59, 8.850000000000001421 ) ;
#722 = VERTEX_POINT ( 'NONE', #252 ) ;
#723 = CARTESIAN_POINT ( 'NONE',  ( 0.000000000000000000, 0.000000000000000000, 0.8000000000000003775 ) ) ;
#724 = CIRCLE ( 'NONE', #737, 9.199999999999999289 ) ;
#725 = EDGE_CURVE ( 'NONE', #403, #233, #820, .T. ) ;
#726 = CIRCLE ( 'NONE', #6, 8.850000000000001421 ) ;
#727 = ADVANCED_BREP_SHAPE_REPRESENTATION ( 'Model_MEu-CO', ( #613, #13 ), #436 ) ;
#728 = VERTEX_POINT ( 'NONE', #216 ) ;
#729 = PRODUCT_DEFINITION ( 'UNKNOWN', '', #272, #424 ) ;
#730 = ORIENTED_EDGE ( 'NONE', *, *, #433, .T. ) ;
#731 = DIRECTION ( 'NONE',  ( 0.000000000000000000, 0.000000000000000000, -1.000000000000000000 ) ) ;
#732 = ORIENTED_EDGE ( 'NONE', *, *, #132, .F. ) ;
#733 = APPLICATION_PROTOCOL_DEFINITION ( 'draft international standard', 'automotive_design', 1998, #847 ) ;
#734 = ORIENTED_EDGE ( 'NONE', *, *, #752, .F. ) ;
#735 = FACE_OUTER_BOUND ( 'NONE', #286, .T. ) ;
#736 = CIRCLE ( 'NONE', #368, 0.8000000000000000444 ) ;
#737 = AXIS2_PLACEMENT_3D ( 'NONE', #513, #561, #822 ) ;
#738 = DIRECTION ( 'NONE',  ( -0.7071067811865459074, 0.000000000000000000, -0.7071067811865491270 ) ) ;
#739 = AXIS2_PLACEMENT_3D ( 'NONE', #723, #64, #779 ) ;
#740 = EDGE_CURVE ( 'NONE', #233, #611, #259, .T. ) ;
#741 = CARTESIAN_POINT ( 'NONE',  ( -4.775000000000001243, -4.775000000000001243, 19.89999999999999858 ) ) ;
#742 = CARTESIAN_POINT ( 'NONE',  ( 0.000000000000000000, 0.000000000000000000, 0.000000000000000000 ) ) ;
#743 = ORIENTED_EDGE ( 'NONE', *, *, #182, .F. ) ;
#744 = EDGE_LOOP ( 'NONE', ( #390, #848, #302, #69 ) ) ;
#745 = DIRECTION ( 'NONE',  ( 0.000000000000000000, -1.000000000000000000, 0.000000000000000000 ) ) ;
#746 = VERTEX_POINT ( 'NONE', #288 ) ;
#747 = AXIS2_PLACEMENT_3D ( 'NONE', #830, #293, #749 ) ;
#748 = FACE_BOUND ( 'NONE', #18, .T. ) ;
#749 = DIRECTION ( 'NONE',  ( -1.000000000000000000, 0.000000000000000000, 0.000000000000000000 ) ) ;
#750 = ORIENTED_EDGE ( 'NONE', *, *, #20, .T. ) ;
#751 = DIRECTION ( 'NONE',  ( -1.000000000000000000, 0.000000000000000000, 0.000000000000000000 ) ) ;
#752 = EDGE_CURVE ( 'NONE', #665, #85, #637, .T. ) ;
#753 = CARTESIAN_POINT ( 'NONE',  ( 8.050000000000000711, 9.858406733136194415E-16, 1.500000000000000000 ) ) ;
#754 = UNCERTAINTY_MEASURE_WITH_UNIT (LENGTH_MEASURE( 1.000000000000000082E-05 ), #271, 'distance_accuracy_value', 'NONE');
#755 = ADVANCED_FACE ( 'NONE', ( #301 ), #193, .T. ) ;
#756 = EDGE_LOOP ( 'NONE', ( #600, #525, #373, #43 ) ) ;
#757 = CIRCLE ( 'NONE', #704, 0.8000000000000003775 ) ;
#758 = FACE_OUTER_BOUND ( 'NONE', #601, .T. ) ;
#759 = AXIS2_PLACEMENT_3D ( 'NONE', #782, #453, #450 ) ;
#760 = CARTESIAN_POINT ( 'NONE',  ( 8.850000000000001421, 0.000000000000000000, 15.69999999999999929 ) ) ;
#761 = ORIENTED_EDGE ( 'NONE', *, *, #119, .F. ) ;
#762 = CARTESIAN_POINT ( 'NONE',  ( -5.300000000000002487, -4.775000000000001243, 20.69999999999999929 ) ) ;
#763 = CARTESIAN_POINT ( 'NONE',  ( 0.000000000000000000, 0.000000000000000000, 1.500000000000000000 ) ) ;
#764 = ORIENTED_EDGE ( 'NONE', *, *, #455, .T. ) ;
#765 = LINE ( 'NONE', #92, #528 ) ;
#766 = CARTESIAN_POINT ( 'NONE',  ( -4.775000000000001243, -4.775000000000001243, 20.69999999999999929 ) ) ;
#767 = DIRECTION ( 'NONE',  ( 0.000000000000000000, 0.000000000000000000, -1.000000000000000000 ) ) ;
#768 = DIRECTION ( 'NONE',  ( -1.000000000000000000, 0.000000000000000000, 0.000000000000000000 ) ) ;
#769 = ORIENTED_EDGE ( 'NONE', *, *, #261, .F. ) ;
#770 = DIRECTION ( 'NONE',  ( 0.000000000000000000, 0.000000000000000000, 1.000000000000000000 ) ) ;
#771 = LINE ( 'NONE', #171, #410 ) ;
#772 = FACE_OUTER_BOUND ( 'NONE', #744, .T. ) ;
#773 = FACE_OUTER_BOUND ( 'NONE', #678, .T. ) ;
#774 = CYLINDRICAL_SURFACE ( 'NONE', #4, 1.324999999999999734 ) ;
#775 = AXIS2_PLACEMENT_3D ( 'NONE', #358, #147, #95 ) ;
#776 = CIRCLE ( 'NONE', #337, 1.324999999999999734 ) ;
#777 = EDGE_CURVE ( 'NONE', #792, #22, #565, .T. ) ;
#778 = LINE ( 'NONE', #44, #402 ) ;
#779 = DIRECTION ( 'NONE',  ( 1.000000000000000000, 0.000000000000000000, 0.000000000000000000 ) ) ;
#780 = DIRECTION ( 'NONE',  ( -0.000000000000000000, -0.000000000000000000, -1.000000000000000000 ) ) ;
#781 = ORIENTED_EDGE ( 'NONE', *, *, #311, .F. ) ;
#782 = CARTESIAN_POINT ( 'NONE',  ( 4.774999999999999467, 4.775000000000001243, 19.89999999999999858 ) ) ;
#783 = DIRECTION ( 'NONE',  ( -1.000000000000000000, 0.000000000000000000, 0.000000000000000000 ) ) ;
#784 = ORIENTED_EDGE ( 'NONE', *, *, #265, .F. ) ;
#785 = CARTESIAN_POINT ( 'NONE',  ( -4.250000000000000000, -4.775000000000001243, 20.69999999999999929 ) ) ;
#786 = ORIENTED_EDGE ( 'NONE', *, *, #644, .T. ) ;
#787 = AXIS2_PLACEMENT_3D ( 'NONE', #435, #576, #167 ) ;
#788 = CIRCLE ( 'NONE', #88, 1.324999999999999734 ) ;
#789 = MECHANICAL_DESIGN_GEOMETRIC_PRESENTATION_REPRESENTATION (  '', ( #465 ), #806 ) ;
#790 = EDGE_LOOP ( 'NONE', ( #222, #575, #67, #585 ) ) ;
#791 = EDGE_CURVE ( 'NONE', #636, #507, #853, .T. ) ;
#792 = VERTEX_POINT ( 'NONE', #705 ) ;
#793 = ORIENTED_EDGE ( 'NONE', *, *, #426, .F. ) ;
#794 = CARTESIAN_POINT ( 'NONE',  ( 4.774999999999999467, 4.775000000000001243, 19.89999999999999858 ) ) ;
#795 = EDGE_CURVE ( 'NONE', #357, #507, #356, .T. ) ;
#796 = ORIENTED_EDGE ( 'NONE', *, *, #649, .T. ) ;
#797 = EDGE_LOOP ( 'NONE', ( #552, #470 ) ) ;
#798 = DIRECTION ( 'NONE',  ( 1.000000000000000000, 0.000000000000000000, 0.000000000000000000 ) ) ;
#799 = CIRCLE ( 'NONE', #380, 0.5999999999999998668 ) ;
#800 = ADVANCED_FACE ( 'NONE', ( #484 ), #235, .T. ) ;
#801 = DIRECTION ( 'NONE',  ( 0.000000000000000000, 0.000000000000000000, 1.000000000000000000 ) ) ;
#802 = FACE_BOUND ( 'NONE', #559, .T. ) ;
#803 = CARTESIAN_POINT ( 'NONE',  ( -5.300000000000002487, -4.775000000000001243, 20.69999999999999929 ) ) ;
#804 = CIRCLE ( 'NONE', #207, 0.5999999999999998668 ) ;
#805 = AXIS2_PLACEMENT_3D ( 'NONE', #608, #15, #275 ) ;
#806 =( GEOMETRIC_REPRESENTATION_CONTEXT ( 3 ) GLOBAL_UNCERTAINTY_ASSIGNED_CONTEXT ( ( #695 ) ) GLOBAL_UNIT_ASSIGNED_CONTEXT ( ( #393, #185, #660 ) ) REPRESENTATION_CONTEXT ( 'NONE', 'WORKASPACE' ) );
#807 = CARTESIAN_POINT ( 'NONE',  ( -10.00000000000000000, 0.000000000000000000, 15.59999999999999787 ) ) ;
#808 = TOROIDAL_SURFACE ( 'NONE', #211, 9.199999999999999289, 0.8000000000000000444 ) ;
#809 = EDGE_CURVE ( 'NONE', #349, #746, #836, .T. ) ;
#810 = CARTESIAN_POINT ( 'NONE',  ( 0.000000000000000000, 0.000000000000000000, 1.500000000000000000 ) ) ;
#811 = ORIENTED_EDGE ( 'NONE', *, *, #194, .F. ) ;
#812 = DIRECTION ( 'NONE',  ( -1.000000000000000000, 0.000000000000000000, 0.000000000000000000 ) ) ;
#813 = CARTESIAN_POINT ( 'NONE',  ( -6.100000000000001421, 4.774999999999999467, 20.69999999999999929 ) ) ;
#814 = ADVANCED_FACE ( 'NONE', ( #221 ), #491, .T. ) ;
#815 = ORIENTED_EDGE ( 'NONE', *, *, #579, .F. ) ;
#816 = CARTESIAN_POINT ( 'NONE',  ( 0.000000000000000000, 0.000000000000000000, 4.500000000000000888 ) ) ;
#817 = DIRECTION ( 'NONE',  ( 0.000000000000000000, 0.000000000000000000, 1.000000000000000000 ) ) ;
#818 = ORIENTED_EDGE ( 'NONE', *, *, #329, .T. ) ;
#819 = CARTESIAN_POINT ( 'NONE',  ( -3.450000000000001510, 4.774999999999999467, 15.69999999999999929 ) ) ;
#820 = LINE ( 'NONE', #760, #372 ) ;
#821 = EDGE_LOOP ( 'NONE', ( #627, #2, #834, #323 ) ) ;
#822 = DIRECTION ( 'NONE',  ( 1.000000000000000000, 0.000000000000000000, 0.000000000000000000 ) ) ;
#823 = ADVANCED_FACE ( 'NONE', ( #418 ), #33, .F. ) ;
#824 = FACE_OUTER_BOUND ( 'NONE', #202, .T. ) ;
#825 = ORIENTED_EDGE ( 'NONE', *, *, #655, .F. ) ;
#826 = AXIS2_PLACEMENT_3D ( 'NONE', #270, #541, #798 ) ;
#827 = CARTESIAN_POINT ( 'NONE',  ( 3.449999999999999734, 4.775000000000001243, 15.69999999999999929 ) ) ;
#828 = CIRCLE ( 'NONE', #534, 8.050000000000000711 ) ;
#829 = PRODUCT_DEFINITION_SHAPE ( 'NONE', 'NONE',  #729 ) ;
#830 = CARTESIAN_POINT ( 'NONE',  ( -4.775000000000001243, 4.774999999999999467, 20.69999999999999929 ) ) ;
#831 = DIRECTION ( 'NONE',  ( 0.000000000000000000, -1.000000000000000000, 0.000000000000000000 ) ) ;
#832 = FACE_OUTER_BOUND ( 'NONE', #140, .T. ) ;
#833 = EDGE_CURVE ( 'NONE', #473, #107, #799, .T. ) ;
#834 = ORIENTED_EDGE ( 'NONE', *, *, #71, .F. ) ;
#835 = DIRECTION ( 'NONE',  ( 0.000000000000000000, 0.000000000000000000, 1.000000000000000000 ) ) ;
#836 = LINE ( 'NONE', #813, #394 ) ;
#837 = DIRECTION ( 'NONE',  ( 1.000000000000000000, 0.000000000000000000, 0.000000000000000000 ) ) ;
#838 = CARTESIAN_POINT ( 'NONE',  ( -6.100000000000001421, -4.775000000000001243, 20.69999999999999929 ) ) ;
#839 = CARTESIAN_POINT ( 'NONE',  ( 10.00000000000000000, 1.224646799147353256E-15, 0.8000000000000003775 ) ) ;
#840 = CARTESIAN_POINT ( 'NONE',  ( 0.000000000000000000, 0.000000000000000000, 1.500000000000000000 ) ) ;
#841 = DIRECTION ( 'NONE',  ( 0.000000000000000000, 0.000000000000000000, -1.000000000000000000 ) ) ;
#842 = CARTESIAN_POINT ( 'NONE',  ( 4.774999999999999467, 4.775000000000001243, 20.69999999999999929 ) ) ;
#843 = CIRCLE ( 'NONE', #682, 10.00000000000000000 ) ;
#844 = ORIENTED_EDGE ( 'NONE', *, *, #119, .T. ) ;
#845 = AXIS2_PLACEMENT_3D ( 'NONE', #488, #430, #242 ) ;
#846 = CARTESIAN_POINT ( 'NONE',  ( 4.774999999999999467, 4.775000000000001243, 20.69999999999999929 ) ) ;
#847 = APPLICATION_CONTEXT ( 'automotive_design' ) ;
#848 = ORIENTED_EDGE ( 'NONE', *, *, #442, .F. ) ;
#849 = EDGE_CURVE ( 'NONE', #214, #38, #771, .T. ) ;
#850 = ADVANCED_FACE ( 'NONE', ( #802, #11 ), #609, .T. ) ;
#851 = CARTESIAN_POINT ( 'NONE',  ( 8.050000000000000711, 9.858406733136194415E-16, 0.000000000000000000 ) ) ;
#852 = VERTEX_POINT ( 'NONE', #334 ) ;
#853 = CIRCLE ( 'NONE', #542, 0.8000000000000003775 ) ;
#854 = DIRECTION ( 'NONE',  ( 0.000000000000000000, 0.000000000000000000, -1.000000000000000000 ) ) ;
#855 = ORIENTED_EDGE ( 'NONE', *, *, #320, .F. ) ;
#856 = CIRCLE ( 'NONE', #544, 10.00000000000000000 ) ;
#857 = AXIS2_PLACEMENT_3D ( 'NONE', #439, #112, #306 ) ;
#858 = AXIS2_PLACEMENT_3D ( 'NONE', #100, #361, #698 ) ;
#859 = ADVANCED_FACE ( 'NONE', ( #139 ), #472, .T. ) ;
ENDSEC;
END-ISO-10303-21;
