ISO-10303-21;
HEADER;
FILE_DESCRIPTION (( 'STEP AP203' ),
    '1' );
FILE_NAME ('Model_ME4-CO.STEP',
    '2026-04-07T10:42:57',
    ( '' ),
    ( '' ),
    'SwSTEP 2.0',
    'SolidWorks 2024',
    '' );
FILE_SCHEMA (( 'CONFIG_CONTROL_DESIGN' ));
ENDSEC;

DATA;
#1 = DIRECTION ( 'NONE',  ( 0.000000000000000000, 0.000000000000000000, -1.000000000000000000 ) ) ;
#2 = ADVANCED_FACE ( 'NONE', ( #913 ), #1344, .F. ) ;
#3 = DIRECTION ( 'NONE',  ( -1.000000000000000000, 0.000000000000000000, 0.000000000000000000 ) ) ;
#4 = DIRECTION ( 'NONE',  ( 1.000000000000000000, 0.000000000000000000, 0.000000000000000000 ) ) ;
#5 = DIRECTION ( 'NONE',  ( 0.000000000000000000, 0.000000000000000000, 1.000000000000000000 ) ) ;
#6 = VERTEX_POINT ( 'NONE', #580 ) ;
#7 = AXIS2_PLACEMENT_3D ( 'NONE', #1212, #1018, #905 ) ;
#8 = CARTESIAN_POINT ( 'NONE',  ( -15.19999999999999929, 1.910449006669870914E-15, 14.50000000000000000 ) ) ;
#9 = FACE_OUTER_BOUND ( 'NONE', #990, .T. ) ;
#10 = CIRCLE ( 'NONE', #1220, 1.000000000000000000 ) ;
#11 = FACE_OUTER_BOUND ( 'NONE', #175, .T. ) ;
#12 = CARTESIAN_POINT ( 'NONE',  ( 5.938994047619050143, -5.940399793140653806, -5.200000000000001066 ) ) ;
#13 = VERTEX_POINT ( 'NONE', #258 ) ;
#14 = ORIENTED_EDGE ( 'NONE', *, *, #93, .T. ) ;
#15 = EDGE_CURVE ( 'NONE', #199, #999, #489, .T. ) ;
#16 = EDGE_CURVE ( 'NONE', #888, #264, #956, .T. ) ;
#17 = CARTESIAN_POINT ( 'NONE',  ( -7.900000000000000355, 0.000000000000000000, -5.200000000000001066 ) ) ;
#18 = DIRECTION ( 'NONE',  ( 1.000000000000000000, 0.000000000000000000, 0.000000000000000000 ) ) ;
#19 = DIRECTION ( 'NONE',  ( 1.000000000000000000, 0.000000000000000000, 0.000000000000000000 ) ) ;
#20 = ORIENTED_EDGE ( 'NONE', *, *, #1334, .F. ) ;
#21 = ORIENTED_EDGE ( 'NONE', *, *, #535, .F. ) ;
#22 = AXIS2_PLACEMENT_3D ( 'NONE', #129, #774, #1204 ) ;
#23 = DIRECTION ( 'NONE',  ( -0.000000000000000000, -0.000000000000000000, 1.000000000000000000 ) ) ;
#24 = DIRECTION ( 'NONE',  ( 0.000000000000000000, 0.000000000000000000, -1.000000000000000000 ) ) ;
#25 = FACE_OUTER_BOUND ( 'NONE', #639, .T. ) ;
#26 = ORIENTED_EDGE ( 'NONE', *, *, #251, .F. ) ;
#27 = VECTOR ( 'NONE', #298, 1000.000000000000000 ) ;
#28 = AXIS2_PLACEMENT_3D ( 'NONE', #439, #954, #325 ) ;
#29 = DIRECTION ( 'NONE',  ( 0.000000000000000000, 0.000000000000000000, -1.000000000000000000 ) ) ;
#30 = CARTESIAN_POINT ( 'NONE',  ( 0.000000000000000000, 0.000000000000000000, -1.199999999999999956 ) ) ;
#31 = EDGE_CURVE ( 'NONE', #1084, #751, #1057, .T. ) ;
#32 = ORIENTED_EDGE ( 'NONE', *, *, #1198, .T. ) ;
#33 = DIRECTION ( 'NONE',  ( 1.000000000000000000, 0.000000000000000000, 0.000000000000000000 ) ) ;
#34 = EDGE_CURVE ( 'NONE', #566, #1221, #1030, .T. ) ;
#35 = VERTEX_POINT ( 'NONE', #1350 ) ;
#36 = CIRCLE ( 'NONE', #631, 0.5000000000000004441 ) ;
#37 = VECTOR ( 'NONE', #1268, 1000.000000000000000 ) ;
#38 = DIRECTION ( 'NONE',  ( -1.000000000000000000, 0.000000000000000000, 0.000000000000000000 ) ) ;
#39 = DIRECTION ( 'NONE',  ( -1.000000000000000000, 0.000000000000000000, -0.000000000000000000 ) ) ;
#40 = EDGE_LOOP ( 'NONE', ( #507, #167, #402, #409 ) ) ;
#41 = EDGE_CURVE ( 'NONE', #415, #126, #308, .T. ) ;
#42 = DIRECTION ( 'NONE',  ( 0.000000000000000000, 0.000000000000000000, 1.000000000000000000 ) ) ;
#43 = ORIENTED_EDGE ( 'NONE', *, *, #738, .F. ) ;
#44 = ORIENTED_EDGE ( 'NONE', *, *, #244, .F. ) ;
#45 = AXIS2_PLACEMENT_3D ( 'NONE', #625, #1052, #850 ) ;
#46 = DIRECTION ( 'NONE',  ( 1.000000000000000000, 0.000000000000000000, 0.000000000000000000 ) ) ;
#47 = DIRECTION ( 'NONE',  ( -1.000000000000000000, 0.000000000000000000, 0.000000000000000000 ) ) ;
#48 = ORIENTED_EDGE ( 'NONE', *, *, #80, .T. ) ;
#49 = CARTESIAN_POINT ( 'NONE',  ( 0.000000000000000000, 0.000000000000000000, 0.000000000000000000 ) ) ;
#50 = DIRECTION ( 'NONE',  ( 1.000000000000000000, 0.000000000000000000, 0.000000000000000000 ) ) ;
#51 = ORIENTED_EDGE ( 'NONE', *, *, #576, .T. ) ;
#52 = AXIS2_PLACEMENT_3D ( 'NONE', #90, #283, #179 ) ;
#53 = DIRECTION ( 'NONE',  ( 1.000000000000000000, 0.000000000000000000, 0.000000000000000000 ) ) ;
#54 = DIRECTION ( 'NONE',  ( -1.000000000000000000, 0.000000000000000000, 0.000000000000000000 ) ) ;
#55 = CIRCLE ( 'NONE', #587, 16.00000000000000000 ) ;
#56 = LOCAL_TIME ( 14, 42, 57.00000000000000000, #1107 ) ;
#57 = FACE_OUTER_BOUND ( 'NONE', #340, .T. ) ;
#58 = EDGE_LOOP ( 'NONE', ( #44, #1338, #548, #369 ) ) ;
#59 = ORIENTED_EDGE ( 'NONE', *, *, #41, .T. ) ;
#60 = ADVANCED_FACE ( 'NONE', ( #598 ), #100, .F. ) ;
#61 = APPLICATION_PROTOCOL_DEFINITION ( 'international standard', 'config_control_design', 1994, #396 ) ;
#62 = CARTESIAN_POINT ( 'NONE',  ( -8.400000000000000355, 0.000000000000000000, -5.200000000000001066 ) ) ;
#63 = ORIENTED_EDGE ( 'NONE', *, *, #565, .F. ) ;
#64 = CYLINDRICAL_SURFACE ( 'NONE', #277, 12.65000000000000036 ) ;
#65 = VECTOR ( 'NONE', #1259, 1000.000000000000000 ) ;
#66 = ORIENTED_EDGE ( 'NONE', *, *, #395, .F. ) ;
#67 = DATE_AND_TIME ( #593, #1373 ) ;
#68 = DIRECTION ( 'NONE',  ( 1.000000000000000000, 0.000000000000000000, 0.000000000000000000 ) ) ;
#69 = CARTESIAN_POINT ( 'NONE',  ( -9.500000000000000000, 1.163414459189985485E-15, 14.10000000000000142 ) ) ;
#70 = ORIENTED_EDGE ( 'NONE', *, *, #929, .T. ) ;
#71 = CARTESIAN_POINT ( 'NONE',  ( 12.00000000000000178, 0.000000000000000000, -1.199999999999999956 ) ) ;
#72 = DIRECTION ( 'NONE',  ( 1.000000000000000000, 0.000000000000000000, 0.000000000000000000 ) ) ;
#73 = AXIS2_PLACEMENT_3D ( 'NONE', #1183, #1082, #873 ) ;
#74 = PLANE ( 'NONE',  #346 ) ;
#75 = CC_DESIGN_APPROVAL ( #910, ( #1036 ) ) ;
#76 = ORIENTED_EDGE ( 'NONE', *, *, #535, .T. ) ;
#77 = ADVANCED_FACE ( 'NONE', ( #621 ), #908, .T. ) ;
#78 = CARTESIAN_POINT ( 'NONE',  ( 5.938994047619050143, 5.940399793140653806, -5.200000000000001066 ) ) ;
#79 = EDGE_CURVE ( 'NONE', #415, #1084, #730, .T. ) ;
#80 = EDGE_CURVE ( 'NONE', #35, #1332, #1267, .T. ) ;
#81 = VECTOR ( 'NONE', #87, 1000.000000000000000 ) ;
#82 = DIRECTION ( 'NONE',  ( -0.000000000000000000, -0.000000000000000000, 1.000000000000000000 ) ) ;
#83 = CARTESIAN_POINT ( 'NONE',  ( 5.438994047619049255, 5.940399793140653806, -5.200000000000001066 ) ) ;
#84 = ORIENTED_EDGE ( 'NONE', *, *, #950, .T. ) ;
#85 = EDGE_LOOP ( 'NONE', ( #696, #542, #801, #418 ) ) ;
#86 = EDGE_CURVE ( 'NONE', #1096, #150, #740, .T. ) ;
#87 = DIRECTION ( 'NONE',  ( 0.7071067811865449082, 0.000000000000000000, 0.7071067811865501263 ) ) ;
#88 = CYLINDRICAL_SURFACE ( 'NONE', #226, 16.00000000000000000 ) ;
#89 = EDGE_LOOP ( 'NONE', ( #642, #386, #128, #1264 ) ) ;
#90 = CARTESIAN_POINT ( 'NONE',  ( -8.400000000000000355, 0.000000000000000000, -4.699999999999995737 ) ) ;
#91 = CARTESIAN_POINT ( 'NONE',  ( 0.000000000000000000, 0.000000000000000000, 14.10000000000000142 ) ) ;
#92 = SHAPE_DEFINITION_REPRESENTATION ( #1015, #349 ) ;
#93 = EDGE_CURVE ( 'NONE', #566, #6, #10, .T. ) ;
#94 = AXIS2_PLACEMENT_3D ( 'NONE', #368, #683, #4 ) ;
#95 = CARTESIAN_POINT ( 'NONE',  ( 8.400000000000000355, 0.000000000000000000, -1.000000000000000000 ) ) ;
#96 = AXIS2_PLACEMENT_3D ( 'NONE', #1302, #453, #552 ) ;
#97 = CARTESIAN_POINT ( 'NONE',  ( -10.90000000000000036, 1.334865011070615048E-15, -1.399999999999999911 ) ) ;
#98 = ORIENTED_EDGE ( 'NONE', *, *, #291, .T. ) ;
#99 = AXIS2_PLACEMENT_3D ( 'NONE', #705, #1137, #265 ) ;
#100 = CYLINDRICAL_SURFACE ( 'NONE', #1311, 9.500000000000000000 ) ;
#101 = APPROVAL_DATE_TIME ( #215, #773 ) ;
#102 = ADVANCED_FACE ( 'NONE', ( #1150, #1270 ), #1163, .T. ) ;
#103 = FACE_OUTER_BOUND ( 'NONE', #184, .T. ) ;
#104 = AXIS2_PLACEMENT_3D ( 'NONE', #916, #1004, #1224 ) ;
#105 = CARTESIAN_POINT ( 'NONE',  ( 0.000000000000000000, 0.000000000000000000, 13.70000000000000284 ) ) ;
#106 = VECTOR ( 'NONE', #520, 1000.000000000000000 ) ;
#107 = CARTESIAN_POINT ( 'NONE',  ( 5.938994047619050143, -5.940399793140653806, -4.699999999999997513 ) ) ;
#108 = DIRECTION ( 'NONE',  ( 0.000000000000000000, 0.000000000000000000, 1.000000000000000000 ) ) ;
#109 = DIRECTION ( 'NONE',  ( 0.000000000000000000, 0.000000000000000000, 1.000000000000000000 ) ) ;
#110 = ORIENTED_EDGE ( 'NONE', *, *, #378, .F. ) ;
#111 = AXIS2_PLACEMENT_3D ( 'NONE', #907, #689, #810 ) ;
#112 = DIRECTION ( 'NONE',  ( -0.000000000000000000, -0.000000000000000000, 1.000000000000000000 ) ) ;
#113 = CARTESIAN_POINT ( 'NONE',  ( 4.938994047619049255, -5.940399793140653806, -5.200000000000001066 ) ) ;
#114 = DIRECTION ( 'NONE',  ( -0.000000000000000000, -0.000000000000000000, 1.000000000000000000 ) ) ;
#115 = AXIS2_PLACEMENT_3D ( 'NONE', #613, #496, #837 ) ;
#116 = ORIENTED_EDGE ( 'NONE', *, *, #1358, .F. ) ;
#117 = VECTOR ( 'NONE', #249, 1000.000000000000000 ) ;
#118 = LOCAL_TIME ( 14, 42, 57.00000000000000000, #839 ) ;
#119 = ADVANCED_FACE ( 'NONE', ( #398 ), #1252, .T. ) ;
#120 = EDGE_LOOP ( 'NONE', ( #1002, #812 ) ) ;
#121 = CARTESIAN_POINT ( 'NONE',  ( 0.000000000000000000, 0.000000000000000000, 14.50000000000000000 ) ) ;
#122 = DIRECTION ( 'NONE',  ( 1.000000000000000000, 0.000000000000000000, 0.000000000000000000 ) ) ;
#123 = VERTEX_POINT ( 'NONE', #923 ) ;
#124 = CARTESIAN_POINT ( 'NONE',  ( 0.000000000000000000, 0.000000000000000000, 14.50000000000000000 ) ) ;
#125 = CARTESIAN_POINT ( 'NONE',  ( 0.000000000000000000, 0.000000000000000000, -1.199999999999999956 ) ) ;
#126 = VERTEX_POINT ( 'NONE', #196 ) ;
#127 = EDGE_CURVE ( 'NONE', #999, #199, #792, .T. ) ;
#128 = ORIENTED_EDGE ( 'NONE', *, *, #632, .T. ) ;
#129 = CARTESIAN_POINT ( 'NONE',  ( 0.000000000000000000, 0.000000000000000000, -1.399999999999999911 ) ) ;
#130 = AXIS2_PLACEMENT_3D ( 'NONE', #1325, #790, #365 ) ;
#131 = CARTESIAN_POINT ( 'NONE',  ( 5.438994047619049255, -5.940399793140653806, -5.200000000000001066 ) ) ;
#132 = DIRECTION ( 'NONE',  ( 0.000000000000000000, 0.000000000000000000, 1.000000000000000000 ) ) ;
#133 = ORIENTED_EDGE ( 'NONE', *, *, #816, .F. ) ;
#134 = ORIENTED_EDGE ( 'NONE', *, *, #427, .F. ) ;
#135 = CONICAL_SURFACE ( 'NONE', #754, 0.5000000000000004441, 0.7853981633974446153 ) ;
#136 = EDGE_CURVE ( 'NONE', #571, #794, #817, .T. ) ;
#137 = DIRECTION ( 'NONE',  ( 0.7071067811865450192, 0.000000000000000000, 0.7071067811865501263 ) ) ;
#138 = ADVANCED_FACE ( 'NONE', ( #290 ), #711, .T. ) ;
#139 = CARTESIAN_POINT ( 'NONE',  ( 12.00000000000000178, 0.000000000000000000, 0.000000000000000000 ) ) ;
#140 = EDGE_LOOP ( 'NONE', ( #561, #1250, #194, #66 ) ) ;
#141 = VECTOR ( 'NONE', #1038, 1000.000000000000000 ) ;
#142 = ORIENTED_EDGE ( 'NONE', *, *, #416, .F. ) ;
#143 = LINE ( 'NONE', #113, #912 ) ;
#144 = EDGE_CURVE ( 'NONE', #342, #867, #1142, .T. ) ;
#145 = LINE ( 'NONE', #563, #668 ) ;
#146 = ORIENTED_EDGE ( 'NONE', *, *, #1256, .T. ) ;
#147 = AXIS2_PLACEMENT_3D ( 'NONE', #568, #263, #50 ) ;
#148 = CARTESIAN_POINT ( 'NONE',  ( 8.400000000000000355, 0.000000000000000000, -5.200000000000001066 ) ) ;
#149 = PLANE ( 'NONE',  #586 ) ;
#150 = VERTEX_POINT ( 'NONE', #931 ) ;
#151 = CIRCLE ( 'NONE', #1354, 16.00000000000000000 ) ;
#152 = ORIENTED_EDGE ( 'NONE', *, *, #1121, .F. ) ;
#153 = PERSON_AND_ORGANIZATION ( #971, #456 ) ;
#154 = DIRECTION ( 'NONE',  ( -1.000000000000000000, 0.000000000000000000, 0.000000000000000000 ) ) ;
#155 = ORIENTED_EDGE ( 'NONE', *, *, #1067, .T. ) ;
#156 = CARTESIAN_POINT ( 'NONE',  ( -11.00000000000000000, 1.347111479062088405E-15, 13.10000000000000142 ) ) ;
#157 = ORIENTED_EDGE ( 'NONE', *, *, #1185, .F. ) ;
#158 = VECTOR ( 'NONE', #1086, 1000.000000000000000 ) ;
#159 = PERSON_AND_ORGANIZATION_ROLE ( 'creator' ) ;
#160 = LINE ( 'NONE', #713, #591 ) ;
#161 = VERTEX_POINT ( 'NONE', #509 ) ;
#162 = EDGE_CURVE ( 'NONE', #789, #1027, #544, .T. ) ;
#163 = AXIS2_PLACEMENT_3D ( 'NONE', #735, #108, #506 ) ;
#164 = AXIS2_PLACEMENT_3D ( 'NONE', #1178, #241, #583 ) ;
#165 = EDGE_CURVE ( 'NONE', #1363, #1006, #854, .T. ) ;
#166 = AXIS2_PLACEMENT_3D ( 'NONE', #934, #1361, #1263 ) ;
#167 = ORIENTED_EDGE ( 'NONE', *, *, #15, .F. ) ;
#168 = CARTESIAN_POINT ( 'NONE',  ( 8.900000000000002132, 0.000000000000000000, -5.200000000000001066 ) ) ;
#169 = AXIS2_PLACEMENT_3D ( 'NONE', #899, #957, #354 ) ;
#170 = CC_DESIGN_APPROVAL ( #320, ( #528 ) ) ;
#171 = DIRECTION ( 'NONE',  ( 0.000000000000000000, 0.000000000000000000, -1.000000000000000000 ) ) ;
#172 = ORIENTED_EDGE ( 'NONE', *, *, #856, .T. ) ;
#173 = CARTESIAN_POINT ( 'NONE',  ( 0.000000000000000000, 0.000000000000000000, 13.10000000000000142 ) ) ;
#174 = AXIS2_PLACEMENT_3D ( 'NONE', #1020, #793, #1335 ) ;
#175 = EDGE_LOOP ( 'NONE', ( #862, #363 ) ) ;
#176 = CARTESIAN_POINT ( 'NONE',  ( 8.900000000000002132, 0.000000000000000000, -5.200000000000001066 ) ) ;
#177 = DIRECTION ( 'NONE',  ( 0.000000000000000000, 0.000000000000000000, -1.000000000000000000 ) ) ;
#178 = ORIENTED_EDGE ( 'NONE', *, *, #609, .T. ) ;
#179 = DIRECTION ( 'NONE',  ( -1.000000000000000000, 0.000000000000000000, 0.000000000000000000 ) ) ;
#180 = AXIS2_PLACEMENT_3D ( 'NONE', #1135, #719, #72 ) ;
#181 = DIRECTION ( 'NONE',  ( 1.000000000000000000, 0.000000000000000000, -0.000000000000000000 ) ) ;
#182 = EDGE_CURVE ( 'NONE', #729, #758, #262, .T. ) ;
#183 = CARTESIAN_POINT ( 'NONE',  ( 0.000000000000000000, 0.000000000000000000, 13.10000000000000142 ) ) ;
#184 = EDGE_LOOP ( 'NONE', ( #1042, #1186, #1201, #152 ) ) ;
#185 = EDGE_CURVE ( 'NONE', #758, #729, #1106, .T. ) ;
#186 = CARTESIAN_POINT ( 'NONE',  ( 16.00000000000000000, 1.959434878635764737E-15, 0.8000000000000003775 ) ) ;
#187 = DIRECTION ( 'NONE',  ( -0.000000000000000000, -1.000000000000000000, -0.000000000000000000 ) ) ;
#188 = AXIS2_PLACEMENT_3D ( 'NONE', #227, #1080, #33 ) ;
#189 = AXIS2_PLACEMENT_3D ( 'NONE', #889, #1318, #18 ) ;
#190 = DIRECTION ( 'NONE',  ( 1.000000000000000000, 0.000000000000000000, 0.000000000000000000 ) ) ;
#191 = ADVANCED_FACE ( 'NONE', ( #788 ), #1072, .T. ) ;
#192 = ORIENTED_EDGE ( 'NONE', *, *, #34, .F. ) ;
#193 = DIRECTION ( 'NONE',  ( -1.000000000000000000, 0.000000000000000000, -0.000000000000000000 ) ) ;
#194 = ORIENTED_EDGE ( 'NONE', *, *, #270, .T. ) ;
#195 = VECTOR ( 'NONE', #82, 1000.000000000000000 ) ;
#196 = CARTESIAN_POINT ( 'NONE',  ( -7.399999999999999467, 0.000000000000000000, -1.000000000000000000 ) ) ;
#197 = APPROVAL_DATE_TIME ( #505, #910 ) ;
#198 = DIRECTION ( 'NONE',  ( -0.000000000000000000, -0.000000000000000000, 1.000000000000000000 ) ) ;
#199 = VERTEX_POINT ( 'NONE', #313 ) ;
#200 = FACE_OUTER_BOUND ( 'NONE', #759, .T. ) ;
#201 = ORIENTED_EDGE ( 'NONE', *, *, #162, .F. ) ;
#202 = DIRECTION ( 'NONE',  ( -0.000000000000000000, -0.000000000000000000, 1.000000000000000000 ) ) ;
#203 = CALENDAR_DATE ( 2026, 7, 4 ) ;
#204 = DIRECTION ( 'NONE',  ( -0.000000000000000000, -0.000000000000000000, 1.000000000000000000 ) ) ;
#205 = DIRECTION ( 'NONE',  ( 0.000000000000000000, 0.000000000000000000, -1.000000000000000000 ) ) ;
#206 = ORIENTED_EDGE ( 'NONE', *, *, #624, .T. ) ;
#207 = ADVANCED_FACE ( 'NONE', ( #855 ), #745, .T. ) ;
#208 = DIRECTION ( 'NONE',  ( -1.000000000000000000, 0.000000000000000000, 0.000000000000000000 ) ) ;
#209 = AXIS2_PLACEMENT_3D ( 'NONE', #1346, #392, #1353 ) ;
#210 = DIRECTION ( 'NONE',  ( 1.000000000000000000, 0.000000000000000000, 0.000000000000000000 ) ) ;
#211 = VECTOR ( 'NONE', #114, 1000.000000000000000 ) ;
#212 = DIRECTION ( 'NONE',  ( -0.000000000000000000, -0.000000000000000000, 1.000000000000000000 ) ) ;
#213 = ORIENTED_EDGE ( 'NONE', *, *, #757, .T. ) ;
#214 = DIRECTION ( 'NONE',  ( 0.000000000000000000, 0.000000000000000000, 1.000000000000000000 ) ) ;
#215 = DATE_AND_TIME ( #938, #118 ) ;
#216 = FACE_OUTER_BOUND ( 'NONE', #955, .T. ) ;
#217 = AXIS2_PLACEMENT_3D ( 'NONE', #124, #975, #1095 ) ;
#218 = FACE_BOUND ( 'NONE', #1321, .T. ) ;
#219 = AXIS2_PLACEMENT_3D ( 'NONE', #105, #866, #1068 ) ;
#220 = VERTEX_POINT ( 'NONE', #1112 ) ;
#221 = CARTESIAN_POINT ( 'NONE',  ( -9.500000000000000000, 1.163414459189985485E-15, 14.10000000000000142 ) ) ;
#222 = DIRECTION ( 'NONE',  ( -1.000000000000000000, 0.000000000000000000, 0.000000000000000000 ) ) ;
#223 = CARTESIAN_POINT ( 'NONE',  ( 7.000000000000000000, 0.000000000000000000, 13.70000000000000284 ) ) ;
#224 = EDGE_CURVE ( 'NONE', #1380, #35, #964, .T. ) ;
#225 = VERTEX_POINT ( 'NONE', #8 ) ;
#226 = AXIS2_PLACEMENT_3D ( 'NONE', #836, #1266, #1261 ) ;
#227 = CARTESIAN_POINT ( 'NONE',  ( 0.000000000000000000, 0.000000000000000000, -1.399999999999999911 ) ) ;
#228 = CYLINDRICAL_SURFACE ( 'NONE', #447, 1.000000000000000000 ) ;
#229 = DIRECTION ( 'NONE',  ( -0.000000000000000000, -0.000000000000000000, 1.000000000000000000 ) ) ;
#230 = CARTESIAN_POINT ( 'NONE',  ( 15.19999999999999929, 0.000000000000000000, 0.000000000000000000 ) ) ;
#231 = EDGE_CURVE ( 'NONE', #691, #758, #473, .T. ) ;
#232 = VECTOR ( 'NONE', #1075, 1000.000000000000000 ) ;
#233 = CIRCLE ( 'NONE', #115, 1.000000000000000000 ) ;
#234 = ORIENTED_EDGE ( 'NONE', *, *, #86, .F. ) ;
#235 = CIRCLE ( 'NONE', #1189, 1.000000000000000000 ) ;
#236 = VERTEX_POINT ( 'NONE', #477 ) ;
#237 = CARTESIAN_POINT ( 'NONE',  ( 0.000000000000000000, 0.000000000000000000, -1.199999999999999956 ) ) ;
#238 = DIRECTION ( 'NONE',  ( 0.000000000000000000, 0.000000000000000000, -1.000000000000000000 ) ) ;
#239 = CARTESIAN_POINT ( 'NONE',  ( 0.000000000000000000, 0.000000000000000000, 14.50000000000000000 ) ) ;
#240 = VERTEX_POINT ( 'NONE', #577 ) ;
#241 = DIRECTION ( 'NONE',  ( -0.000000000000000000, -0.000000000000000000, 1.000000000000000000 ) ) ;
#242 = ADVANCED_FACE ( 'NONE', ( #1320 ), #746, .T. ) ;
#243 = EDGE_LOOP ( 'NONE', ( #590, #885, #48, #660 ) ) ;
#244 = EDGE_CURVE ( 'NONE', #714, #566, #741, .T. ) ;
#245 = DIRECTION ( 'NONE',  ( 0.000000000000000000, 0.000000000000000000, -1.000000000000000000 ) ) ;
#246 = AXIS2_PLACEMENT_3D ( 'NONE', #809, #1115, #1242 ) ;
#247 = DIRECTION ( 'NONE',  ( 0.000000000000000000, 0.000000000000000000, -1.000000000000000000 ) ) ;
#248 = ORIENTED_EDGE ( 'NONE', *, *, #757, .F. ) ;
#249 = DIRECTION ( 'NONE',  ( -0.000000000000000000, -0.000000000000000000, 1.000000000000000000 ) ) ;
#250 = DIRECTION ( 'NONE',  ( 0.000000000000000000, 0.000000000000000000, 1.000000000000000000 ) ) ;
#251 = EDGE_CURVE ( 'NONE', #906, #867, #1016, .T. ) ;
#252 = CARTESIAN_POINT ( 'NONE',  ( 4.938994047619049255, 5.940399793140653806, -4.699999999999997513 ) ) ;
#253 = DIRECTION ( 'NONE',  ( 0.000000000000000000, 0.000000000000000000, -1.000000000000000000 ) ) ;
#254 = ORIENTED_EDGE ( 'NONE', *, *, #1262, .T. ) ;
#255 = CARTESIAN_POINT ( 'NONE',  ( 0.000000000000000000, 0.000000000000000000, 13.10000000000000142 ) ) ;
#256 = AXIS2_PLACEMENT_3D ( 'NONE', #967, #253, #1216 ) ;
#257 = PRODUCT_DEFINITION_FORMATION_WITH_SPECIFIED_SOURCE ( 'ANY', '', #364, .NOT_KNOWN. ) ;
#258 = CARTESIAN_POINT ( 'NONE',  ( 11.09999999999999964, 1.359357947053562156E-15, -1.399999999999999911 ) ) ;
#259 = DATE_TIME_ROLE ( 'creation_date' ) ;
#260 = CARTESIAN_POINT ( 'NONE',  ( 8.400000000000000355, 0.000000000000000000, -4.699999999999997513 ) ) ;
#261 = EDGE_LOOP ( 'NONE', ( #560, #882 ) ) ;
#262 = CIRCLE ( 'NONE', #1039, 11.00000000000000000 ) ;
#263 = DIRECTION ( 'NONE',  ( 0.000000000000000000, 0.000000000000000000, 1.000000000000000000 ) ) ;
#264 = VERTEX_POINT ( 'NONE', #892 ) ;
#265 = DIRECTION ( 'NONE',  ( 1.000000000000000000, 0.000000000000000000, 0.000000000000000000 ) ) ;
#266 = FACE_OUTER_BOUND ( 'NONE', #606, .T. ) ;
#267 = EDGE_CURVE ( 'NONE', #1105, #240, #235, .T. ) ;
#268 = EDGE_LOOP ( 'NONE', ( #142, #960, #490, #110 ) ) ;
#269 = PLANE ( 'NONE',  #1257 ) ;
#270 = EDGE_CURVE ( 'NONE', #468, #441, #55, .T. ) ;
#271 = ORIENTED_EDGE ( 'NONE', *, *, #442, .T. ) ;
#272 = AXIS2_PLACEMENT_3D ( 'NONE', #336, #658, #768 ) ;
#273 = FACE_OUTER_BOUND ( 'NONE', #786, .T. ) ;
#274 = DIRECTION ( 'NONE',  ( -0.7071067811865449082, 8.659560562354900811E-17, 0.7071067811865501263 ) ) ;
#275 = ORIENTED_EDGE ( 'NONE', *, *, #979, .F. ) ;
#276 = CIRCLE ( 'NONE', #739, 0.5000000000000004441 ) ;
#277 = AXIS2_PLACEMENT_3D ( 'NONE', #802, #661, #1000 ) ;
#278 = EDGE_LOOP ( 'NONE', ( #1368, #596 ) ) ;
#279 = AXIS2_PLACEMENT_3D ( 'NONE', #376, #474, #1229 ) ;
#280 = DIRECTION ( 'NONE',  ( -0.000000000000000000, -0.000000000000000000, 1.000000000000000000 ) ) ;
#281 = DIRECTION ( 'NONE',  ( 1.000000000000000000, 0.000000000000000000, 0.000000000000000000 ) ) ;
#282 = ORIENTED_EDGE ( 'NONE', *, *, #1209, .T. ) ;
#283 = DIRECTION ( 'NONE',  ( 0.000000000000000000, 0.000000000000000000, 1.000000000000000000 ) ) ;
#284 = CIRCLE ( 'NONE', #995, 0.8000000000000003775 ) ;
#285 = PERSON_AND_ORGANIZATION ( #971, #456 ) ;
#286 = EDGE_CURVE ( 'NONE', #999, #669, #1174, .T. ) ;
#287 = CARTESIAN_POINT ( 'NONE',  ( 0.000000000000000000, 0.000000000000000000, 0.000000000000000000 ) ) ;
#288 = ORIENTED_EDGE ( 'NONE', *, *, #165, .F. ) ;
#289 = CARTESIAN_POINT ( 'NONE',  ( 0.000000000000000000, 0.000000000000000000, -1.399999999999999911 ) ) ;
#290 = FACE_OUTER_BOUND ( 'NONE', #513, .T. ) ;
#291 = EDGE_CURVE ( 'NONE', #123, #1173, #1371, .T. ) ;
#292 = AXIS2_PLACEMENT_3D ( 'NONE', #324, #932, #210 ) ;
#293 = CARTESIAN_POINT ( 'NONE',  ( 5.938994047619050143, -5.940399793140653806, -5.200000000000001066 ) ) ;
#294 = ORIENTED_EDGE ( 'NONE', *, *, #1136, .F. ) ;
#295 = FACE_OUTER_BOUND ( 'NONE', #917, .T. ) ;
#296 = CARTESIAN_POINT ( 'NONE',  ( -11.80000000000000071, 0.000000000000000000, -1.199999999999999956 ) ) ;
#297 = AXIS2_PLACEMENT_3D ( 'NONE', #459, #24, #784 ) ;
#298 = DIRECTION ( 'NONE',  ( -0.000000000000000000, -0.000000000000000000, 1.000000000000000000 ) ) ;
#299 = ORIENTED_EDGE ( 'NONE', *, *, #623, .F. ) ;
#300 = CARTESIAN_POINT ( 'NONE',  ( -8.900000000000002132, 9.184850993605161996E-17, -5.200000000000001066 ) ) ;
#301 = DIRECTION ( 'NONE',  ( -0.000000000000000000, -0.000000000000000000, 1.000000000000000000 ) ) ;
#302 = APPROVAL_STATUS ( 'not_yet_approved' ) ;
#303 = CARTESIAN_POINT ( 'NONE',  ( 7.000000000000000000, 0.000000000000000000, 13.70000000000000284 ) ) ;
#304 = DIRECTION ( 'NONE',  ( 1.000000000000000000, 0.000000000000000000, 0.000000000000000000 ) ) ;
#305 = ADVANCED_FACE ( 'NONE', ( #644 ), #1179, .F. ) ;
#306 = ORIENTED_EDGE ( 'NONE', *, *, #876, .T. ) ;
#307 = CC_DESIGN_PERSON_AND_ORGANIZATION_ASSIGNMENT ( #522, #733, ( #1036 ) ) ;
#308 = LINE ( 'NONE', #1157, #530 ) ;
#309 = CARTESIAN_POINT ( 'NONE',  ( 0.000000000000000000, 0.000000000000000000, 14.50000000000000000 ) ) ;
#310 = DIRECTION ( 'NONE',  ( 1.000000000000000000, 0.000000000000000000, 0.000000000000000000 ) ) ;
#311 = CIRCLE ( 'NONE', #981, 1.000000000000000000 ) ;
#312 = ORIENTED_EDGE ( 'NONE', *, *, #1092, .F. ) ;
#313 = CARTESIAN_POINT ( 'NONE',  ( 9.500000000000000000, 0.000000000000000000, 14.10000000000000142 ) ) ;
#314 = APPROVAL_ROLE ( '' ) ;
#315 = DIRECTION ( 'NONE',  ( 0.000000000000000000, 0.000000000000000000, -1.000000000000000000 ) ) ;
#316 = AXIS2_PLACEMENT_3D ( 'NONE', #1087, #238, #551 ) ;
#317 = CARTESIAN_POINT ( 'NONE',  ( 5.938994047619050143, -5.940399793140653806, -5.200000000000001066 ) ) ;
#318 = VERTEX_POINT ( 'NONE', #1310 ) ;
#319 = DIRECTION ( 'NONE',  ( 1.000000000000000000, 0.000000000000000000, 0.000000000000000000 ) ) ;
#320 = APPROVAL ( #1213, 'UNSPECIFIED' ) ;
#321 = ADVANCED_FACE ( 'NONE', ( #462, #777 ), #1207, .T. ) ;
#322 = AXIS2_PLACEMENT_3D ( 'NONE', #1265, #1364, #610 ) ;
#323 = ADVANCED_FACE ( 'NONE', ( #795, #1227 ), #269, .T. ) ;
#324 = CARTESIAN_POINT ( 'NONE',  ( 0.000000000000000000, 0.000000000000000000, 14.50000000000000000 ) ) ;
#325 = DIRECTION ( 'NONE',  ( -1.000000000000000000, 0.000000000000000000, 0.000000000000000000 ) ) ;
#326 = AXIS2_PLACEMENT_3D ( 'NONE', #709, #941, #928 ) ;
#327 = ORIENTED_EDGE ( 'NONE', *, *, #15, .T. ) ;
#328 = DIRECTION ( 'NONE',  ( 0.000000000000000000, 0.000000000000000000, -1.000000000000000000 ) ) ;
#329 = ADVANCED_FACE ( 'NONE', ( #463 ), #149, .T. ) ;
#330 = DIRECTION ( 'NONE',  ( -0.000000000000000000, -0.000000000000000000, 1.000000000000000000 ) ) ;
#331 = CARTESIAN_POINT ( 'NONE',  ( 9.500000000000000000, 0.000000000000000000, 14.50000000000000000 ) ) ;
#332 = DIRECTION ( 'NONE',  ( -1.000000000000000000, 0.000000000000000000, 0.000000000000000000 ) ) ;
#333 = EDGE_LOOP ( 'NONE', ( #1219, #271, #798, #940 ) ) ;
#334 = AXIS2_PLACEMENT_3D ( 'NONE', #1317, #753, #665 ) ;
#335 = ORIENTED_EDGE ( 'NONE', *, *, #1010, .T. ) ;
#336 = CARTESIAN_POINT ( 'NONE',  ( 11.80000000000000071, 1.445083222993876839E-15, -1.199999999999999956 ) ) ;
#337 = VECTOR ( 'NONE', #617, 1000.000000000000000 ) ;
#338 = DIRECTION ( 'NONE',  ( 0.000000000000000000, 0.000000000000000000, -1.000000000000000000 ) ) ;
#339 = FACE_OUTER_BOUND ( 'NONE', #671, .T. ) ;
#340 = EDGE_LOOP ( 'NONE', ( #348, #708, #1144, #460 ) ) ;
#341 = VECTOR ( 'NONE', #435, 1000.000000000000000 ) ;
#342 = VERTEX_POINT ( 'NONE', #71 ) ;
#343 = DIRECTION ( 'NONE',  ( -0.000000000000000000, -0.000000000000000000, 1.000000000000000000 ) ) ;
#344 = CARTESIAN_POINT ( 'NONE',  ( 7.400000000000001243, 1.224646799147352714E-16, -1.000000000000000000 ) ) ;
#345 = ORIENTED_EDGE ( 'NONE', *, *, #1223, .F. ) ;
#346 = AXIS2_PLACEMENT_3D ( 'NONE', #62, #177, #581 ) ;
#347 = EDGE_CURVE ( 'NONE', #13, #464, #1369, .T. ) ;
#348 = ORIENTED_EDGE ( 'NONE', *, *, #442, .F. ) ;
#349 = ADVANCED_BREP_SHAPE_REPRESENTATION ( 'Model_ME4-CO', ( #1249, #1275 ), #695 ) ;
#350 = DIRECTION ( 'NONE',  ( -0.000000000000000000, -0.000000000000000000, 1.000000000000000000 ) ) ;
#351 = VECTOR ( 'NONE', #202, 1000.000000000000000 ) ;
#352 = CARTESIAN_POINT ( 'NONE',  ( 5.938994047619050143, 5.940399793140653806, -4.699999999999997513 ) ) ;
#353 = ORIENTED_EDGE ( 'NONE', *, *, #1273, .T. ) ;
#354 = DIRECTION ( 'NONE',  ( 1.000000000000000000, 0.000000000000000000, 0.000000000000000000 ) ) ;
#355 = EDGE_LOOP ( 'NONE', ( #192, #14, #1033, #1206 ) ) ;
#356 = AXIS2_PLACEMENT_3D ( 'NONE', #519, #315, #408 ) ;
#357 = CARTESIAN_POINT ( 'NONE',  ( 11.00000000000000000, 0.000000000000000000, 13.10000000000000142 ) ) ;
#358 = FACE_OUTER_BOUND ( 'NONE', #1126, .T. ) ;
#359 = ORIENTED_EDGE ( 'NONE', *, *, #1010, .F. ) ;
#360 = CARTESIAN_POINT ( 'NONE',  ( 0.000000000000000000, 0.000000000000000000, -1.000000000000000000 ) ) ;
#361 = CIRCLE ( 'NONE', #52, 1.000000000000000888 ) ;
#362 = CIRCLE ( 'NONE', #316, 0.5000000000000004441 ) ;
#363 = ORIENTED_EDGE ( 'NONE', *, *, #564, .T. ) ;
#364 = PRODUCT ( 'Model_ME4-CO', 'Model_ME4-CO', '', ( #383 ) ) ;
#365 = DIRECTION ( 'NONE',  ( 1.000000000000000000, 0.000000000000000000, 0.000000000000000000 ) ) ;
#366 = DIRECTION ( 'NONE',  ( 0.000000000000000000, 0.000000000000000000, 1.000000000000000000 ) ) ;
#367 = EDGE_CURVE ( 'NONE', #1196, #529, #963, .T. ) ;
#368 = CARTESIAN_POINT ( 'NONE',  ( 5.938994047619050143, 5.940399793140653806, -5.200000000000001066 ) ) ;
#369 = ORIENTED_EDGE ( 'NONE', *, *, #93, .F. ) ;
#370 = AXIS2_PLACEMENT_3D ( 'NONE', #360, #1064, #1001 ) ;
#371 = DIRECTION ( 'NONE',  ( 1.000000000000000000, 0.000000000000000000, -0.000000000000000000 ) ) ;
#372 = ADVANCED_FACE ( 'NONE', ( #1160 ), #1079, .T. ) ;
#373 = DIRECTION ( 'NONE',  ( 0.000000000000000000, 0.000000000000000000, 1.000000000000000000 ) ) ;
#374 = ORIENTED_EDGE ( 'NONE', *, *, #427, .T. ) ;
#375 = ORIENTED_EDGE ( 'NONE', *, *, #34, .T. ) ;
#376 = CARTESIAN_POINT ( 'NONE',  ( 0.000000000000000000, 0.000000000000000000, 13.70000000000000284 ) ) ;
#377 = APPLICATION_CONTEXT ( 'configuration controlled 3d designs of mechanical parts and assemblies' ) ;
#378 = EDGE_CURVE ( 'NONE', #1084, #415, #361, .T. ) ;
#379 = CARTESIAN_POINT ( 'NONE',  ( 0.000000000000000000, 0.000000000000000000, -1.199999999999999956 ) ) ;
#380 = EDGE_LOOP ( 'NONE', ( #43, #381 ) ) ;
#381 = ORIENTED_EDGE ( 'NONE', *, *, #1209, .F. ) ;
#382 = VECTOR ( 'NONE', #137, 1000.000000000000114 ) ;
#383 = MECHANICAL_CONTEXT ( 'NONE', #377, 'mechanical' ) ;
#384 = DIRECTION ( 'NONE',  ( 1.000000000000000000, 0.000000000000000000, -0.000000000000000000 ) ) ;
#385 = CARTESIAN_POINT ( 'NONE',  ( 10.90000000000000036, 0.000000000000000000, -1.000000000000000000 ) ) ;
#386 = ORIENTED_EDGE ( 'NONE', *, *, #472, .F. ) ;
#387 = CARTESIAN_POINT ( 'NONE',  ( 0.000000000000000000, 0.000000000000000000, 13.70000000000000107 ) ) ;
#388 = ADVANCED_FACE ( 'NONE', ( #295 ), #410, .T. ) ;
#389 = ORIENTED_EDGE ( 'NONE', *, *, #347, .F. ) ;
#390 = DATE_AND_TIME ( #1345, #56 ) ;
#391 = CARTESIAN_POINT ( 'NONE',  ( -9.500000000000000000, 1.163414459189985485E-15, 14.50000000000000000 ) ) ;
#392 = DIRECTION ( 'NONE',  ( 0.000000000000000000, 0.000000000000000000, 1.000000000000000000 ) ) ;
#393 = ORIENTED_EDGE ( 'NONE', *, *, #429, .T. ) ;
#394 = CARTESIAN_POINT ( 'NONE',  ( -12.65000000000000036, 1.549178200921401754E-15, 13.10000000000000142 ) ) ;
#395 = EDGE_CURVE ( 'NONE', #888, #441, #830, .T. ) ;
#396 = APPLICATION_CONTEXT ( 'configuration controlled 3d designs of mechanical parts and assemblies' ) ;
#397 = CIRCLE ( 'NONE', #1197, 12.65000000000000036 ) ;
#398 = FACE_OUTER_BOUND ( 'NONE', #1228, .T. ) ;
#399 = AXIS2_PLACEMENT_3D ( 'NONE', #860, #1, #976 ) ;
#400 = CARTESIAN_POINT ( 'NONE',  ( 0.000000000000000000, 0.000000000000000000, -1.399999999999999911 ) ) ;
#401 = CARTESIAN_POINT ( 'NONE',  ( 8.400000000000000355, 0.000000000000000000, -5.200000000000001066 ) ) ;
#402 = ORIENTED_EDGE ( 'NONE', *, *, #1121, .T. ) ;
#403 = DIRECTION ( 'NONE',  ( -0.7071067811865450192, 8.659560562354903276E-17, 0.7071067811865501263 ) ) ;
#404 = VERTEX_POINT ( 'NONE', #300 ) ;
#405 = CARTESIAN_POINT ( 'NONE',  ( 5.938994047619050143, -5.940399793140653806, -5.200000000000001066 ) ) ;
#406 = DATE_TIME_ROLE ( 'classification_date' ) ;
#407 = AXIS2_PLACEMENT_3D ( 'NONE', #974, #350, #38 ) ;
#408 = DIRECTION ( 'NONE',  ( -1.000000000000000000, 0.000000000000000000, 0.000000000000000000 ) ) ;
#409 = ORIENTED_EDGE ( 'NONE', *, *, #1051, .T. ) ;
#410 = CYLINDRICAL_SURFACE ( 'NONE', #1188, 1.000000000000000000 ) ;
#411 = ORIENTED_EDGE ( 'NONE', *, *, #1017, .T. ) ;
#412 = DIRECTION ( 'NONE',  ( 0.000000000000000000, 0.000000000000000000, 1.000000000000000000 ) ) ;
#413 = AXIS2_PLACEMENT_3D ( 'NONE', #541, #874, #983 ) ;
#414 = CARTESIAN_POINT ( 'NONE',  ( 6.938994047619050143, -5.940399793140653806, -4.699999999999997513 ) ) ;
#415 = VERTEX_POINT ( 'NONE', #723 ) ;
#416 = EDGE_CURVE ( 'NONE', #404, #1084, #597, .T. ) ;
#417 = CARTESIAN_POINT ( 'NONE',  ( 5.938994047619050143, 5.940399793140653806, -5.200000000000001066 ) ) ;
#418 = ORIENTED_EDGE ( 'NONE', *, *, #1273, .F. ) ;
#419 = DIRECTION ( 'NONE',  ( 1.000000000000000000, 0.000000000000000000, 0.000000000000000000 ) ) ;
#420 = AXIS2_PLACEMENT_3D ( 'NONE', #770, #338, #1191 ) ;
#421 = DIRECTION ( 'NONE',  ( 0.000000000000000000, 0.000000000000000000, -1.000000000000000000 ) ) ;
#422 = DIRECTION ( 'NONE',  ( 1.000000000000000000, 0.000000000000000000, 0.000000000000000000 ) ) ;
#423 = ORIENTED_EDGE ( 'NONE', *, *, #857, .F. ) ;
#424 = DIRECTION ( 'NONE',  ( 0.000000000000000000, 0.000000000000000000, 1.000000000000000000 ) ) ;
#425 = DIRECTION ( 'NONE',  ( -0.000000000000000000, -0.000000000000000000, -1.000000000000000000 ) ) ;
#426 = CARTESIAN_POINT ( 'NONE',  ( 7.400000000000001243, 1.224646799147352714E-16, -4.699999999999997513 ) ) ;
#427 = EDGE_CURVE ( 'NONE', #150, #861, #717, .T. ) ;
#428 = ADVANCED_FACE ( 'NONE', ( #200 ), #1041, .T. ) ;
#429 = EDGE_CURVE ( 'NONE', #240, #1105, #233, .T. ) ;
#430 = DIRECTION ( 'NONE',  ( 0.000000000000000000, 0.000000000000000000, 1.000000000000000000 ) ) ;
#431 = AXIS2_PLACEMENT_3D ( 'NONE', #1301, #667, #755 ) ;
#432 = CARTESIAN_POINT ( 'NONE',  ( 0.000000000000000000, 0.000000000000000000, 14.50000000000000000 ) ) ;
#433 = ORIENTED_EDGE ( 'NONE', *, *, #721, .T. ) ;
#434 = ADVANCED_FACE ( 'NONE', ( #1046 ), #602, .T. ) ;
#435 = DIRECTION ( 'NONE',  ( -0.000000000000000000, -0.000000000000000000, 1.000000000000000000 ) ) ;
#436 = CARTESIAN_POINT ( 'NONE',  ( -8.400000000000000355, 0.000000000000000000, -5.200000000000001066 ) ) ;
#437 = CARTESIAN_POINT ( 'NONE',  ( -11.09999999999999964, 0.000000000000000000, -1.399999999999999911 ) ) ;
#438 = FACE_BOUND ( 'NONE', #681, .T. ) ;
#439 = CARTESIAN_POINT ( 'NONE',  ( -8.400000000000000355, 0.000000000000000000, -5.200000000000001066 ) ) ;
#440 = EDGE_LOOP ( 'NONE', ( #574, #898, #1330, #744 ) ) ;
#441 = VERTEX_POINT ( 'NONE', #514 ) ;
#442 = EDGE_CURVE ( 'NONE', #1196, #441, #832, .T. ) ;
#443 = FACE_OUTER_BOUND ( 'NONE', #1078, .T. ) ;
#444 = DIRECTION ( 'NONE',  ( -1.000000000000000000, 0.000000000000000000, 0.000000000000000000 ) ) ;
#445 = CARTESIAN_POINT ( 'NONE',  ( 5.938994047619050143, -5.940399793140653806, -5.200000000000001066 ) ) ;
#446 = ORIENTED_EDGE ( 'NONE', *, *, #244, .T. ) ;
#447 = AXIS2_PLACEMENT_3D ( 'NONE', #449, #23, #1182 ) ;
#448 = ORIENTED_EDGE ( 'NONE', *, *, #1313, .T. ) ;
#449 = CARTESIAN_POINT ( 'NONE',  ( 5.938994047619050143, 5.940399793140653806, -5.200000000000001066 ) ) ;
#450 = EDGE_CURVE ( 'NONE', #318, #1363, #1370, .T. ) ;
#451 = AXIS2_PLACEMENT_3D ( 'NONE', #1230, #595, #1026 ) ;
#452 = DIRECTION ( 'NONE',  ( -0.000000000000000000, -0.000000000000000000, 1.000000000000000000 ) ) ;
#453 = DIRECTION ( 'NONE',  ( 0.000000000000000000, 0.000000000000000000, 1.000000000000000000 ) ) ;
#454 = AXIS2_PLACEMENT_3D ( 'NONE', #782, #1011, #53 ) ;
#455 = ORIENTED_EDGE ( 'NONE', *, *, #827, .T. ) ;
#456 = ORGANIZATION ( 'UNSPECIFIED', 'UNSPECIFIED', '' ) ;
#457 = ORIENTED_EDGE ( 'NONE', *, *, #1155, .T. ) ;
#458 = LINE ( 'NONE', #357, #158 ) ;
#459 = CARTESIAN_POINT ( 'NONE',  ( 0.000000000000000000, 0.000000000000000000, -1.000000000000000000 ) ) ;
#460 = ORIENTED_EDGE ( 'NONE', *, *, #1175, .F. ) ;
#461 = CIRCLE ( 'NONE', #420, 0.5000000000000004441 ) ;
#462 = FACE_BOUND ( 'NONE', #278, .T. ) ;
#463 = FACE_OUTER_BOUND ( 'NONE', #933, .T. ) ;
#464 = VERTEX_POINT ( 'NONE', #716 ) ;
#465 = ORIENTED_EDGE ( 'NONE', *, *, #816, .T. ) ;
#466 = CARTESIAN_POINT ( 'NONE',  ( 5.938994047619050143, 5.940399793140653806, -1.000000000000000000 ) ) ;
#467 = PLANE ( 'NONE',  #540 ) ;
#468 = VERTEX_POINT ( 'NONE', #186 ) ;
#469 = DIRECTION ( 'NONE',  ( -0.000000000000000000, -0.000000000000000000, -1.000000000000000000 ) ) ;
#470 = ORIENTED_EDGE ( 'NONE', *, *, #1069, .F. ) ;
#471 = AXIS2_PLACEMENT_3D ( 'NONE', #309, #425, #748 ) ;
#472 = EDGE_CURVE ( 'NONE', #264, #888, #151, .T. ) ;
#473 = LINE ( 'NONE', #156, #1349 ) ;
#474 = DIRECTION ( 'NONE',  ( -0.000000000000000000, -0.000000000000000000, 1.000000000000000000 ) ) ;
#475 = CARTESIAN_POINT ( 'NONE',  ( 8.400000000000000355, 0.000000000000000000, -5.200000000000001066 ) ) ;
#476 = ORIENTED_EDGE ( 'NONE', *, *, #1092, .T. ) ;
#477 = CARTESIAN_POINT ( 'NONE',  ( -12.65000000000000036, 1.549178200921401754E-15, 14.50000000000000000 ) ) ;
#478 = AXIS2_PLACEMENT_3D ( 'NONE', #728, #921, #1240 ) ;
#479 = ORIENTED_EDGE ( 'NONE', *, *, #450, .T. ) ;
#480 = ADVANCED_FACE ( 'NONE', ( #1348 ), #1108, .T. ) ;
#481 = DIRECTION ( 'NONE',  ( 0.000000000000000000, 0.000000000000000000, -1.000000000000000000 ) ) ;
#482 = CARTESIAN_POINT ( 'NONE',  ( 5.938994047619050143, -5.940399793140653806, -1.000000000000000000 ) ) ;
#483 = VERTEX_POINT ( 'NONE', #394 ) ;
#484 = ORIENTED_EDGE ( 'NONE', *, *, #1185, .T. ) ;
#485 = LINE ( 'NONE', #168, #1056 ) ;
#486 = DIRECTION ( 'NONE',  ( -1.000000000000000000, 0.000000000000000000, 0.000000000000000000 ) ) ;
#487 = ORIENTED_EDGE ( 'NONE', *, *, #731, .F. ) ;
#488 = ADVANCED_FACE ( 'NONE', ( #534 ), #756, .T. ) ;
#489 = CIRCLE ( 'NONE', #130, 9.500000000000000000 ) ;
#490 = ORIENTED_EDGE ( 'NONE', *, *, #1232, .T. ) ;
#491 = TOROIDAL_SURFACE ( 'NONE', #687, 11.09999999999999964, 0.2000000000000000111 ) ;
#492 = APPROVAL_DATE_TIME ( #67, #320 ) ;
#493 = DIRECTION ( 'NONE',  ( 0.000000000000000000, 0.000000000000000000, -1.000000000000000000 ) ) ;
#494 = ADVANCED_FACE ( 'NONE', ( #648, #949, #1293, #218, #627 ), #1060, .T. ) ;
#495 = EDGE_LOOP ( 'NONE', ( #656, #554 ) ) ;
#496 = DIRECTION ( 'NONE',  ( 0.000000000000000000, 0.000000000000000000, 1.000000000000000000 ) ) ;
#497 = CIRCLE ( 'NONE', #1274, 1.000000000000000000 ) ;
#498 = DIRECTION ( 'NONE',  ( 0.000000000000000000, 0.000000000000000000, 1.000000000000000000 ) ) ;
#499 = CARTESIAN_POINT ( 'NONE',  ( 15.19999999999999929, 0.000000000000000000, 14.50000000000000000 ) ) ;
#500 = EDGE_LOOP ( 'NONE', ( #294, #652, #984, #1040 ) ) ;
#501 = DIRECTION ( 'NONE',  ( 1.000000000000000000, 0.000000000000000000, 0.000000000000000000 ) ) ;
#502 = AXIS2_PLACEMENT_3D ( 'NONE', #834, #1277, #1104 ) ;
#503 = DIRECTION ( 'NONE',  ( 0.000000000000000000, 0.000000000000000000, -1.000000000000000000 ) ) ;
#504 = AXIS2_PLACEMENT_3D ( 'NONE', #813, #1035, #743 ) ;
#505 = DATE_AND_TIME ( #203, #626 ) ;
#506 = DIRECTION ( 'NONE',  ( 1.000000000000000000, 0.000000000000000000, -0.000000000000000000 ) ) ;
#507 = ORIENTED_EDGE ( 'NONE', *, *, #286, .F. ) ;
#508 = ORIENTED_EDGE ( 'NONE', *, *, #79, .F. ) ;
#509 = CARTESIAN_POINT ( 'NONE',  ( 12.65000000000000036, 0.000000000000000000, 14.50000000000000000 ) ) ;
#510 = EDGE_CURVE ( 'NONE', #13, #722, #567, .T. ) ;
#511 = CIRCLE ( 'NONE', #1073, 16.00000000000000000 ) ;
#512 = CARTESIAN_POINT ( 'NONE',  ( -12.00000000000000178, 1.469576158976824144E-15, -1.199999999999999956 ) ) ;
#513 = EDGE_LOOP ( 'NONE', ( #1217, #619, #353, #894 ) ) ;
#514 = CARTESIAN_POINT ( 'NONE',  ( -16.00000000000000000, 0.000000000000000000, 0.8000000000000003775 ) ) ;
#515 = VERTEX_POINT ( 'NONE', #641 ) ;
#516 = AXIS2_PLACEMENT_3D ( 'NONE', #95, #421, #1151 ) ;
#517 = DIRECTION ( 'NONE',  ( 1.000000000000000000, 0.000000000000000000, 0.000000000000000000 ) ) ;
#518 = AXIS2_PLACEMENT_3D ( 'NONE', #432, #5, #1272 ) ;
#519 = CARTESIAN_POINT ( 'NONE',  ( 0.000000000000000000, 0.000000000000000000, -1.199999999999999956 ) ) ;
#520 = DIRECTION ( 'NONE',  ( -0.000000000000000000, -0.000000000000000000, 1.000000000000000000 ) ) ;
#521 = CARTESIAN_POINT ( 'NONE',  ( 0.000000000000000000, 0.000000000000000000, 14.10000000000000142 ) ) ;
#522 = PERSON_AND_ORGANIZATION ( #971, #456 ) ;
#523 = AXIS2_PLACEMENT_3D ( 'NONE', #352, #647, #444 ) ;
#524 = LINE ( 'NONE', #1044, #760 ) ;
#525 = ADVANCED_FACE ( 'NONE', ( #339 ), #765, .T. ) ;
#526 = EDGE_LOOP ( 'NONE', ( #389, #21, #254, #248 ) ) ;
#527 = CARTESIAN_POINT ( 'NONE',  ( 9.400000000000000355, 0.000000000000000000, -5.200000000000001066 ) ) ;
#528 = PRODUCT_DEFINITION ( 'UNKNOWN', '', #257, #1022 ) ;
#529 = VERTEX_POINT ( 'NONE', #230 ) ;
#530 = VECTOR ( 'NONE', #301, 1000.000000000000000 ) ;
#531 = DIRECTION ( 'NONE',  ( 0.000000000000000000, 0.000000000000000000, 1.000000000000000000 ) ) ;
#532 = FACE_OUTER_BOUND ( 'NONE', #526, .T. ) ;
#533 = AXIS2_PLACEMENT_3D ( 'NONE', #878, #638, #1074 ) ;
#534 = FACE_OUTER_BOUND ( 'NONE', #886, .T. ) ;
#535 = EDGE_CURVE ( 'NONE', #722, #13, #747, .T. ) ;
#536 = EDGE_LOOP ( 'NONE', ( #1014, #608, #476, #1372 ) ) ;
#537 = DIRECTION ( 'NONE',  ( -0.000000000000000000, -0.000000000000000000, 1.000000000000000000 ) ) ;
#538 = AXIS2_PLACEMENT_3D ( 'NONE', #289, #205, #808 ) ;
#539 = CYLINDRICAL_SURFACE ( 'NONE', #1162, 1.000000000000001776 ) ;
#540 = AXIS2_PLACEMENT_3D ( 'NONE', #764, #865, #39 ) ;
#541 = CARTESIAN_POINT ( 'NONE',  ( 15.19999999999999929, 0.000000000000000000, 13.70000000000000107 ) ) ;
#542 = ORIENTED_EDGE ( 'NONE', *, *, #231, .T. ) ;
#543 = CARTESIAN_POINT ( 'NONE',  ( 0.000000000000000000, 0.000000000000000000, 0.8000000000000003775 ) ) ;
#544 = CIRCLE ( 'NONE', #502, 0.5000000000000004441 ) ;
#545 = DIRECTION ( 'NONE',  ( -0.7071067811865449082, 8.659560562354900811E-17, 0.7071067811865501263 ) ) ;
#546 = CARTESIAN_POINT ( 'NONE',  ( 5.438994047619049255, -5.940399793140653806, -5.200000000000001066 ) ) ;
#547 = CARTESIAN_POINT ( 'NONE',  ( 6.438994047619050143, 5.940399793140653806, -5.200000000000001066 ) ) ;
#548 = ORIENTED_EDGE ( 'NONE', *, *, #1358, .T. ) ;
#549 = ADVANCED_FACE ( 'NONE', ( #959 ), #1083, .F. ) ;
#550 = DIRECTION ( 'NONE',  ( -1.000000000000000000, 0.000000000000000000, 0.000000000000000000 ) ) ;
#551 = DIRECTION ( 'NONE',  ( -1.000000000000000000, 0.000000000000000000, 0.000000000000000000 ) ) ;
#552 = DIRECTION ( 'NONE',  ( 1.000000000000000000, 0.000000000000000000, 0.000000000000000000 ) ) ;
#553 = ORIENTED_EDGE ( 'NONE', *, *, #1127, .T. ) ;
#554 = ORIENTED_EDGE ( 'NONE', *, *, #80, .F. ) ;
#555 = CARTESIAN_POINT ( 'NONE',  ( -11.09999999999999964, 0.000000000000000000, -1.199999999999999956 ) ) ;
#556 = ORIENTED_EDGE ( 'NONE', *, *, #686, .T. ) ;
#557 = TOROIDAL_SURFACE ( 'NONE', #1054, 11.80000000000000071, 0.2000000000000000111 ) ;
#558 = DIRECTION ( 'NONE',  ( 0.000000000000000000, -1.000000000000000000, 0.000000000000000000 ) ) ;
#559 = ORIENTED_EDGE ( 'NONE', *, *, #510, .T. ) ;
#560 = ORIENTED_EDGE ( 'NONE', *, *, #182, .T. ) ;
#561 = ORIENTED_EDGE ( 'NONE', *, *, #16, .T. ) ;
#562 = DIRECTION ( 'NONE',  ( -1.000000000000000000, 0.000000000000000000, 0.000000000000000000 ) ) ;
#563 = CARTESIAN_POINT ( 'NONE',  ( 6.938994047619050143, 5.940399793140653806, -5.200000000000001066 ) ) ;
#564 = EDGE_CURVE ( 'NONE', #225, #1021, #880, .T. ) ;
#565 = EDGE_CURVE ( 'NONE', #318, #464, #633, .T. ) ;
#566 = VERTEX_POINT ( 'NONE', #426 ) ;
#567 = CIRCLE ( 'NONE', #930, 11.09999999999999964 ) ;
#568 = CARTESIAN_POINT ( 'NONE',  ( 8.400000000000000355, 0.000000000000000000, -5.200000000000001066 ) ) ;
#569 = ADVANCED_FACE ( 'NONE', ( #968 ), #815, .T. ) ;
#570 = ORIENTED_EDGE ( 'NONE', *, *, #715, .F. ) ;
#571 = VERTEX_POINT ( 'NONE', #547 ) ;
#572 = APPROVAL_STATUS ( 'not_yet_approved' ) ;
#573 = FACE_OUTER_BOUND ( 'NONE', #779, .T. ) ;
#574 = ORIENTED_EDGE ( 'NONE', *, *, #16, .F. ) ;
#575 = FACE_BOUND ( 'NONE', #1023, .T. ) ;
#576 = EDGE_CURVE ( 'NONE', #1298, #220, #635, .T. ) ;
#577 = CARTESIAN_POINT ( 'NONE',  ( 4.938994047619049255, -5.940399793140653806, -4.699999999999997513 ) ) ;
#578 = ORIENTED_EDGE ( 'NONE', *, *, #609, .F. ) ;
#579 = CIRCLE ( 'NONE', #407, 12.00000000000000178 ) ;
#580 = CARTESIAN_POINT ( 'NONE',  ( 9.400000000000000355, 0.000000000000000000, -4.699999999999997513 ) ) ;
#581 = DIRECTION ( 'NONE',  ( -1.000000000000000000, 0.000000000000000000, -0.000000000000000000 ) ) ;
#582 = EDGE_LOOP ( 'NONE', ( #172, #375, #457, #1231 ) ) ;
#583 = DIRECTION ( 'NONE',  ( 1.000000000000000000, 0.000000000000000000, 0.000000000000000000 ) ) ;
#584 = CIRCLE ( 'NONE', #28, 0.5000000000000004441 ) ;
#585 = DIRECTION ( 'NONE',  ( 1.000000000000000000, 0.000000000000000000, -0.000000000000000000 ) ) ;
#586 = AXIS2_PLACEMENT_3D ( 'NONE', #78, #701, #193 ) ;
#587 = AXIS2_PLACEMENT_3D ( 'NONE', #543, #430, #319 ) ;
#588 = FACE_OUTER_BOUND ( 'NONE', #1128, .T. ) ;
#589 = DIRECTION ( 'NONE',  ( -1.000000000000000000, 0.000000000000000000, 0.000000000000000000 ) ) ;
#590 = ORIENTED_EDGE ( 'NONE', *, *, #1241, .F. ) ;
#591 = VECTOR ( 'NONE', #1132, 1000.000000000000000 ) ;
#592 = EDGE_CURVE ( 'NONE', #1021, #225, #1297, .T. ) ;
#593 = CALENDAR_DATE ( 2026, 7, 4 ) ;
#594 = CC_DESIGN_DATE_AND_TIME_ASSIGNMENT ( #1169, #406, ( #1036 ) ) ;
#595 = DIRECTION ( 'NONE',  ( 0.000000000000000000, 0.000000000000000000, 1.000000000000000000 ) ) ;
#596 = ORIENTED_EDGE ( 'NONE', *, *, #1340, .F. ) ;
#597 = LINE ( 'NONE', #1154, #783 ) ;
#598 = FACE_OUTER_BOUND ( 'NONE', #40, .T. ) ;
#599 =( NAMED_UNIT ( * ) PLANE_ANGLE_UNIT ( ) SI_UNIT ( $, .RADIAN. ) );
#600 = DIRECTION ( 'NONE',  ( 0.000000000000000000, 0.000000000000000000, -1.000000000000000000 ) ) ;
#601 = ORIENTED_EDGE ( 'NONE', *, *, #902, .F. ) ;
#602 = CYLINDRICAL_SURFACE ( 'NONE', #1012, 11.00000000000000000 ) ;
#603 = AXIS2_PLACEMENT_3D ( 'NONE', #1102, #558, #247 ) ;
#604 = DIRECTION ( 'NONE',  ( 1.000000000000000000, 0.000000000000000000, 0.000000000000000000 ) ) ;
#605 = CARTESIAN_POINT ( 'NONE',  ( -15.19999999999999929, 1.910449006669870914E-15, 0.000000000000000000 ) ) ;
#606 = EDGE_LOOP ( 'NONE', ( #345, #1133, #134, #234 ) ) ;
#607 = DIRECTION ( 'NONE',  ( 1.000000000000000000, 0.000000000000000000, 0.000000000000000000 ) ) ;
#608 = ORIENTED_EDGE ( 'NONE', *, *, #929, .F. ) ;
#609 = EDGE_CURVE ( 'NONE', #861, #150, #807, .T. ) ;
#610 = DIRECTION ( 'NONE',  ( 1.000000000000000000, 0.000000000000000000, 0.000000000000000000 ) ) ;
#611 = FACE_OUTER_BOUND ( 'NONE', #942, .T. ) ;
#612 = EDGE_LOOP ( 'NONE', ( #767, #84 ) ) ;
#613 = CARTESIAN_POINT ( 'NONE',  ( 5.938994047619050143, -5.940399793140653806, -4.699999999999997513 ) ) ;
#614 = EDGE_CURVE ( 'NONE', #6, #1304, #736, .T. ) ;
#615 = CARTESIAN_POINT ( 'NONE',  ( -9.400000000000002132, 1.224646799147355179E-16, -5.200000000000001066 ) ) ;
#616 = CALENDAR_DATE ( 2026, 7, 4 ) ;
#617 = DIRECTION ( 'NONE',  ( -0.000000000000000000, -0.000000000000000000, -1.000000000000000000 ) ) ;
#618 = CARTESIAN_POINT ( 'NONE',  ( 0.000000000000000000, 0.000000000000000000, 13.10000000000000142 ) ) ;
#619 = ORIENTED_EDGE ( 'NONE', *, *, #1340, .T. ) ;
#620 = AXIS2_PLACEMENT_3D ( 'NONE', #401, #811, #896 ) ;
#621 = FACE_OUTER_BOUND ( 'NONE', #536, .T. ) ;
#622 = AXIS2_PLACEMENT_3D ( 'NONE', #852, #1172, #1280 ) ;
#623 = EDGE_CURVE ( 'NONE', #404, #515, #584, .T. ) ;
#624 = EDGE_CURVE ( 'NONE', #1177, #1332, #1176, .T. ) ;
#625 = CARTESIAN_POINT ( 'NONE',  ( 0.000000000000000000, 0.000000000000000000, -1.199999999999999956 ) ) ;
#626 = LOCAL_TIME ( 14, 42, 57.00000000000000000, #630 ) ;
#627 = FACE_OUTER_BOUND ( 'NONE', #1303, .T. ) ;
#628 = ORIENTED_EDGE ( 'NONE', *, *, #224, .F. ) ;
#629 = CARTESIAN_POINT ( 'NONE',  ( -7.000000000000000000, 8.572527594031473190E-16, 13.70000000000000284 ) ) ;
#630 = COORDINATED_UNIVERSAL_TIME_OFFSET ( 4, 0, .AHEAD. ) ;
#631 = AXIS2_PLACEMENT_3D ( 'NONE', #293, #171, #47 ) ;
#632 = EDGE_CURVE ( 'NONE', #264, #1021, #1367, .T. ) ;
#633 = CIRCLE ( 'NONE', #703, 10.90000000000000036 ) ;
#634 = CARTESIAN_POINT ( 'NONE',  ( 6.438994047619050143, -5.940399793140653806, -5.200000000000001066 ) ) ;
#635 = LINE ( 'NONE', #846, #37 ) ;
#636 = ORIENTED_EDGE ( 'NONE', *, *, #698, .T. ) ;
#637 = CARTESIAN_POINT ( 'NONE',  ( 0.000000000000000000, 0.000000000000000000, 14.50000000000000000 ) ) ;
#638 = DIRECTION ( 'NONE',  ( -0.000000000000000000, -0.000000000000000000, 1.000000000000000000 ) ) ;
#639 = EDGE_LOOP ( 'NONE', ( #1097, #487, #1342, #1187 ) ) ;
#640 = CIRCLE ( 'NONE', #1094, 0.2000000000000000944 ) ;
#641 = CARTESIAN_POINT ( 'NONE',  ( -7.900000000000000355, 0.000000000000000000, -5.200000000000001066 ) ) ;
#642 = ORIENTED_EDGE ( 'NONE', *, *, #947, .F. ) ;
#643 = ORIENTED_EDGE ( 'NONE', *, *, #267, .T. ) ;
#644 = FACE_OUTER_BOUND ( 'NONE', #893, .T. ) ;
#645 = AXIS2_PLACEMENT_3D ( 'NONE', #255, #1329, #371 ) ;
#646 = DIRECTION ( 'NONE',  ( -0.000000000000000000, -0.000000000000000000, 1.000000000000000000 ) ) ;
#647 = DIRECTION ( 'NONE',  ( 0.000000000000000000, 0.000000000000000000, 1.000000000000000000 ) ) ;
#648 = FACE_BOUND ( 'NONE', #380, .T. ) ;
#649 = ORIENTED_EDGE ( 'NONE', *, *, #738, .T. ) ;
#650 = ADVANCED_FACE ( 'NONE', ( #25 ), #693, .T. ) ;
#651 = ADVANCED_FACE ( 'NONE', ( #1071 ), #1194, .T. ) ;
#652 = ORIENTED_EDGE ( 'NONE', *, *, #472, .T. ) ;
#653 = FACE_OUTER_BOUND ( 'NONE', #700, .T. ) ;
#654 = CARTESIAN_POINT ( 'NONE',  ( 11.80000000000000071, 1.457329690985350393E-15, -1.399999999999999911 ) ) ;
#655 = DIRECTION ( 'NONE',  ( 0.000000000000000000, 0.000000000000000000, -1.000000000000000000 ) ) ;
#656 = ORIENTED_EDGE ( 'NONE', *, *, #686, .F. ) ;
#657 = ORIENTED_EDGE ( 'NONE', *, *, #842, .T. ) ;
#658 = DIRECTION ( 'NONE',  ( -1.224646799147353207E-16, 1.000000000000000000, 0.000000000000000000 ) ) ;
#659 = LINE ( 'NONE', #881, #848 ) ;
#660 = ORIENTED_EDGE ( 'NONE', *, *, #624, .F. ) ;
#661 = DIRECTION ( 'NONE',  ( -0.000000000000000000, -0.000000000000000000, 1.000000000000000000 ) ) ;
#662 = ORIENTED_EDGE ( 'NONE', *, *, #1256, .F. ) ;
#663 = ADVANCED_FACE ( 'NONE', ( #1337 ), #64, .F. ) ;
#664 = ADVANCED_FACE ( 'NONE', ( #1111, #575 ), #1007, .F. ) ;
#665 = DIRECTION ( 'NONE',  ( 1.000000000000000000, 0.000000000000000000, 0.000000000000000000 ) ) ;
#666 = CC_DESIGN_PERSON_AND_ORGANIZATION_ASSIGNMENT ( #1375, #1058, ( #257 ) ) ;
#667 = DIRECTION ( 'NONE',  ( 0.000000000000000000, 0.000000000000000000, -1.000000000000000000 ) ) ;
#668 = VECTOR ( 'NONE', #452, 1000.000000000000000 ) ;
#669 = VERTEX_POINT ( 'NONE', #391 ) ;
#670 = DIRECTION ( 'NONE',  ( 1.000000000000000000, 0.000000000000000000, 0.000000000000000000 ) ) ;
#671 = EDGE_LOOP ( 'NONE', ( #643, #448, #1009, #133 ) ) ;
#672 = ORIENTED_EDGE ( 'NONE', *, *, #721, .F. ) ;
#673 = CARTESIAN_POINT ( 'NONE',  ( -7.000000000000000000, 8.572527594031473190E-16, 13.70000000000000284 ) ) ;
#674 = AXIS2_PLACEMENT_3D ( 'NONE', #704, #937, #181 ) ;
#675 = ADVANCED_FACE ( 'NONE', ( #1352 ), #1235, .F. ) ;
#676 = DIRECTION ( 'NONE',  ( 0.000000000000000000, 0.000000000000000000, -1.000000000000000000 ) ) ;
#677 = ORIENTED_EDGE ( 'NONE', *, *, #31, .F. ) ;
#678 = AXIS2_PLACEMENT_3D ( 'NONE', #1378, #212, #332 ) ;
#679 = DIRECTION ( 'NONE',  ( 1.000000000000000000, 0.000000000000000000, 0.000000000000000000 ) ) ;
#680 = ORIENTED_EDGE ( 'NONE', *, *, #144, .T. ) ;
#681 = EDGE_LOOP ( 'NONE', ( #76, #559 ) ) ;
#682 =( NAMED_UNIT ( * ) SI_UNIT ( $, .STERADIAN. ) SOLID_ANGLE_UNIT ( ) );
#683 = DIRECTION ( 'NONE',  ( 0.000000000000000000, 0.000000000000000000, 1.000000000000000000 ) ) ;
#684 = ORIENTED_EDGE ( 'NONE', *, *, #136, .F. ) ;
#685 = CARTESIAN_POINT ( 'NONE',  ( 0.000000000000000000, 0.000000000000000000, 14.50000000000000000 ) ) ;
#686 = EDGE_CURVE ( 'NONE', #1332, #35, #1124, .T. ) ;
#687 = AXIS2_PLACEMENT_3D ( 'NONE', #237, #245, #222 ) ;
#688 = ORIENTED_EDGE ( 'NONE', *, *, #1313, .F. ) ;
#689 = DIRECTION ( 'NONE',  ( 0.000000000000000000, 0.000000000000000000, 1.000000000000000000 ) ) ;
#690 = CARTESIAN_POINT ( 'NONE',  ( -15.19999999999999929, 1.861463134703977092E-15, 13.70000000000000107 ) ) ;
#691 = VERTEX_POINT ( 'NONE', #1116 ) ;
#692 = CIRCLE ( 'NONE', #620, 0.5000000000000004441 ) ;
#693 = CONICAL_SURFACE ( 'NONE', #96, 0.5000000000000004441, 0.7853981633974446153 ) ;
#694 = EDGE_CURVE ( 'NONE', #1110, #691, #1055, .T. ) ;
#695 =( GEOMETRIC_REPRESENTATION_CONTEXT ( 3 ) GLOBAL_UNCERTAINTY_ASSIGNED_CONTEXT ( ( #1180 ) ) GLOBAL_UNIT_ASSIGNED_CONTEXT ( ( #895, #599, #682 ) ) REPRESENTATION_CONTEXT ( 'NONE', 'WORKASPACE' ) );
#696 = ORIENTED_EDGE ( 'NONE', *, *, #694, .T. ) ;
#697 = PERSON_AND_ORGANIZATION ( #971, #456 ) ;
#698 = EDGE_CURVE ( 'NONE', #1177, #1380, #1236, .T. ) ;
#699 = CARTESIAN_POINT ( 'NONE',  ( -8.400000000000000355, 0.000000000000000000, -1.000000000000000000 ) ) ;
#700 = EDGE_LOOP ( 'NONE', ( #724, #484, #680, #146 ) ) ;
#701 = DIRECTION ( 'NONE',  ( 0.000000000000000000, 0.000000000000000000, -1.000000000000000000 ) ) ;
#702 = CONICAL_SURFACE ( 'NONE', #104, 0.5000000000000004441, 0.7853981633974447263 ) ;
#703 = AXIS2_PLACEMENT_3D ( 'NONE', #125, #655, #1088 ) ;
#704 = CARTESIAN_POINT ( 'NONE',  ( 0.000000000000000000, 0.000000000000000000, 14.10000000000000142 ) ) ;
#705 = CARTESIAN_POINT ( 'NONE',  ( 0.000000000000000000, 0.000000000000000000, 13.10000000000000142 ) ) ;
#706 = DIRECTION ( 'NONE',  ( 1.000000000000000000, 0.000000000000000000, 0.000000000000000000 ) ) ;
#707 = CARTESIAN_POINT ( 'NONE',  ( 6.438994047619050143, -5.940399793140653806, -5.200000000000001066 ) ) ;
#708 = ORIENTED_EDGE ( 'NONE', *, *, #1017, .F. ) ;
#709 = CARTESIAN_POINT ( 'NONE',  ( -15.19999999999999929, 1.861463134703977092E-15, 0.8000000000000003775 ) ) ;
#710 = AXIS2_PLACEMENT_3D ( 'NONE', #871, #864, #562 ) ;
#711 = CYLINDRICAL_SURFACE ( 'NONE', #322, 11.00000000000000000 ) ;
#712 = EDGE_CURVE ( 'NONE', #1045, #483, #1324, .T. ) ;
#713 = CARTESIAN_POINT ( 'NONE',  ( 10.90000000000000036, 0.000000000000000000, -1.399999999999999911 ) ) ;
#714 = VERTEX_POINT ( 'NONE', #778 ) ;
#715 = EDGE_CURVE ( 'NONE', #1045, #161, #843, .T. ) ;
#716 = CARTESIAN_POINT ( 'NONE',  ( 10.90000000000000036, 0.000000000000000000, -1.199999999999999956 ) ) ;
#717 = CIRCLE ( 'NONE', #538, 11.80000000000000071 ) ;
#718 = AXIS2_PLACEMENT_3D ( 'NONE', #173, #373, #796 ) ;
#719 = DIRECTION ( 'NONE',  ( -0.000000000000000000, -0.000000000000000000, -1.000000000000000000 ) ) ;
#720 = PLANE ( 'NONE',  #163 ) ;
#721 = EDGE_CURVE ( 'NONE', #483, #236, #991, .T. ) ;
#722 = VERTEX_POINT ( 'NONE', #437 ) ;
#723 = CARTESIAN_POINT ( 'NONE',  ( -7.399999999999999467, 0.000000000000000000, -4.699999999999995737 ) ) ;
#724 = ORIENTED_EDGE ( 'NONE', *, *, #1127, .F. ) ;
#725 = DIRECTION ( 'NONE',  ( -0.000000000000000000, -0.000000000000000000, 1.000000000000000000 ) ) ;
#726 = SECURITY_CLASSIFICATION_LEVEL ( 'unclassified' ) ;
#727 = LINE ( 'NONE', #1271, #27 ) ;
#728 = CARTESIAN_POINT ( 'NONE',  ( 11.09999999999999964, 1.359357947053562156E-15, -1.199999999999999956 ) ) ;
#729 = VERTEX_POINT ( 'NONE', #822 ) ;
#730 = CIRCLE ( 'NONE', #1202, 1.000000000000000888 ) ;
#731 = EDGE_CURVE ( 'NONE', #571, #1122, #362, .T. ) ;
#732 = DIRECTION ( 'NONE',  ( -1.000000000000000000, 0.000000000000000000, 0.000000000000000000 ) ) ;
#733 = PERSON_AND_ORGANIZATION_ROLE ( 'classification_officer' ) ;
#734 = CIRCLE ( 'NONE', #1181, 7.000000000000000000 ) ;
#735 = CARTESIAN_POINT ( 'NONE',  ( 0.000000000000000000, 0.000000000000000000, 13.70000000000000284 ) ) ;
#736 = LINE ( 'NONE', #527, #232 ) ;
#737 = ORIENTED_EDGE ( 'NONE', *, *, #162, .T. ) ;
#738 = EDGE_CURVE ( 'NONE', #1085, #220, #897, .T. ) ;
#739 = AXIS2_PLACEMENT_3D ( 'NONE', #475, #493, #925 ) ;
#740 = CIRCLE ( 'NONE', #918, 0.2000000000000000944 ) ;
#741 = LINE ( 'NONE', #1167, #945 ) ;
#742 = CARTESIAN_POINT ( 'NONE',  ( 0.000000000000000000, 0.000000000000000000, 0.8000000000000003775 ) ) ;
#743 = DIRECTION ( 'NONE',  ( 1.000000000000000000, 0.000000000000000000, 0.000000000000000000 ) ) ;
#744 = ORIENTED_EDGE ( 'NONE', *, *, #632, .F. ) ;
#745 = CONICAL_SURFACE ( 'NONE', #147, 0.5000000000000004441, 0.7853981633974446153 ) ;
#746 = CYLINDRICAL_SURFACE ( 'NONE', #169, 0.9999999999999991118 ) ;
#747 = CIRCLE ( 'NONE', #678, 11.09999999999999964 ) ;
#748 = DIRECTION ( 'NONE',  ( -1.000000000000000000, 0.000000000000000000, 0.000000000000000000 ) ) ;
#749 = ORIENTED_EDGE ( 'NONE', *, *, #623, .T. ) ;
#750 = DIRECTION ( 'NONE',  ( -0.000000000000000000, -0.000000000000000000, 1.000000000000000000 ) ) ;
#751 = VERTEX_POINT ( 'NONE', #998 ) ;
#752 = DIRECTION ( 'NONE',  ( -1.000000000000000000, 0.000000000000000000, 0.000000000000000000 ) ) ;
#753 = DIRECTION ( 'NONE',  ( -0.000000000000000000, -0.000000000000000000, -1.000000000000000000 ) ) ;
#754 = AXIS2_PLACEMENT_3D ( 'NONE', #980, #1199, #122 ) ;
#755 = DIRECTION ( 'NONE',  ( -1.000000000000000000, 0.000000000000000000, 0.000000000000000000 ) ) ;
#756 = CYLINDRICAL_SURFACE ( 'NONE', #1245, 1.000000000000000000 ) ;
#757 = EDGE_CURVE ( 'NONE', #464, #318, #1146, .T. ) ;
#758 = VERTEX_POINT ( 'NONE', #982 ) ;
#759 = EDGE_LOOP ( 'NONE', ( #70, #737 ) ) ;
#760 = VECTOR ( 'NONE', #198, 1000.000000000000000 ) ;
#761 = AXIS2_PLACEMENT_3D ( 'NONE', #1134, #1247, #304 ) ;
#762 = FACE_OUTER_BOUND ( 'NONE', #824, .T. ) ;
#763 = AXIS2_PLACEMENT_3D ( 'NONE', #992, #328, #752 ) ;
#764 = CARTESIAN_POINT ( 'NONE',  ( 0.000000000000000000, 0.000000000000000000, -1.399999999999999911 ) ) ;
#765 = CYLINDRICAL_SURFACE ( 'NONE', #1282, 1.000000000000000000 ) ;
#766 = ORIENTED_EDGE ( 'NONE', *, *, #979, .T. ) ;
#767 = ORIENTED_EDGE ( 'NONE', *, *, #712, .T. ) ;
#768 = DIRECTION ( 'NONE',  ( -1.000000000000000000, -1.224646799147353207E-16, 0.000000000000000000 ) ) ;
#769 = CIRCLE ( 'NONE', #174, 12.65000000000000036 ) ;
#770 = CARTESIAN_POINT ( 'NONE',  ( 5.938994047619050143, 5.940399793140653806, -5.200000000000001066 ) ) ;
#771 = ORIENTED_EDGE ( 'NONE', *, *, #367, .T. ) ;
#772 = ORIENTED_EDGE ( 'NONE', *, *, #1241, .T. ) ;
#773 = APPROVAL ( #572, 'UNSPECIFIED' ) ;
#774 = DIRECTION ( 'NONE',  ( -0.000000000000000000, -0.000000000000000000, 1.000000000000000000 ) ) ;
#775 = LINE ( 'NONE', #131, #1243 ) ;
#776 = ORIENTED_EDGE ( 'NONE', *, *, #144, .F. ) ;
#777 = FACE_OUTER_BOUND ( 'NONE', #612, .T. ) ;
#778 = CARTESIAN_POINT ( 'NONE',  ( 7.900000000000000355, 9.184850993605150903E-17, -5.200000000000001066 ) ) ;
#779 = EDGE_LOOP ( 'NONE', ( #601, #32, #875, #684 ) ) ;
#780 = EDGE_CURVE ( 'NONE', #529, #468, #1210, .T. ) ;
#781 = EDGE_LOOP ( 'NONE', ( #201, #1226, #1148, #312 ) ) ;
#782 = CARTESIAN_POINT ( 'NONE',  ( 0.000000000000000000, 0.000000000000000000, 13.10000000000000142 ) ) ;
#783 = VECTOR ( 'NONE', #403, 1000.000000000000114 ) ;
#784 = DIRECTION ( 'NONE',  ( -1.000000000000000000, 0.000000000000000000, 0.000000000000000000 ) ) ;
#785 = TOROIDAL_SURFACE ( 'NONE', #189, 15.19999999999999929, 0.8000000000000000444 ) ;
#786 = EDGE_LOOP ( 'NONE', ( #299, #1103, #508, #1255 ) ) ;
#787 = CC_DESIGN_SECURITY_CLASSIFICATION ( #1036, ( #257 ) ) ;
#788 = FACE_OUTER_BOUND ( 'NONE', #1203, .T. ) ;
#789 = VERTEX_POINT ( 'NONE', #546 ) ;
#790 = DIRECTION ( 'NONE',  ( 0.000000000000000000, 0.000000000000000000, 1.000000000000000000 ) ) ;
#791 = DIRECTION ( 'NONE',  ( 1.000000000000000000, 0.000000000000000000, 0.000000000000000000 ) ) ;
#792 = CIRCLE ( 'NONE', #1152, 9.500000000000000000 ) ;
#793 = DIRECTION ( 'NONE',  ( 0.000000000000000000, 0.000000000000000000, 1.000000000000000000 ) ) ;
#794 = VERTEX_POINT ( 'NONE', #1109 ) ;
#795 = FACE_BOUND ( 'NONE', #993, .T. ) ;
#796 = DIRECTION ( 'NONE',  ( 1.000000000000000000, 0.000000000000000000, 0.000000000000000000 ) ) ;
#797 = VERTEX_POINT ( 'NONE', #331 ) ;
#798 = ORIENTED_EDGE ( 'NONE', *, *, #270, .F. ) ;
#799 = DIRECTION ( 'NONE',  ( -1.000000000000000000, 0.000000000000000000, 0.000000000000000000 ) ) ;
#800 = ADVANCED_FACE ( 'NONE', ( #1205 ), #785, .T. ) ;
#801 = ORIENTED_EDGE ( 'NONE', *, *, #182, .F. ) ;
#802 = CARTESIAN_POINT ( 'NONE',  ( 0.000000000000000000, 0.000000000000000000, 13.10000000000000142 ) ) ;
#803 = VECTOR ( 'NONE', #545, 1000.000000000000000 ) ;
#804 = FACE_OUTER_BOUND ( 'NONE', #1091, .T. ) ;
#805 = ORIENTED_EDGE ( 'NONE', *, *, #712, .F. ) ;
#806 = AXIS2_PLACEMENT_3D ( 'NONE', #287, #909, #281 ) ;
#807 = CIRCLE ( 'NONE', #622, 11.80000000000000071 ) ;
#808 = DIRECTION ( 'NONE',  ( -1.000000000000000000, 0.000000000000000000, 0.000000000000000000 ) ) ;
#809 = CARTESIAN_POINT ( 'NONE',  ( 0.000000000000000000, 0.000000000000000000, 13.10000000000000142 ) ) ;
#810 = DIRECTION ( 'NONE',  ( 1.000000000000000000, 0.000000000000000000, 0.000000000000000000 ) ) ;
#811 = DIRECTION ( 'NONE',  ( 0.000000000000000000, 0.000000000000000000, -1.000000000000000000 ) ) ;
#812 = ORIENTED_EDGE ( 'NONE', *, *, #972, .F. ) ;
#813 = CARTESIAN_POINT ( 'NONE',  ( 0.000000000000000000, 0.000000000000000000, 13.70000000000000107 ) ) ;
#814 = CIRCLE ( 'NONE', #217, 9.500000000000000000 ) ;
#815 = CONICAL_SURFACE ( 'NONE', #996, 0.5000000000000004441, 0.7853981633974446153 ) ;
#816 = EDGE_CURVE ( 'NONE', #1105, #123, #659, .T. ) ;
#817 = LINE ( 'NONE', #1248, #81 ) ;
#818 = ADVANCED_FACE ( 'NONE', ( #438, #358 ), #467, .T. ) ;
#819 = DIRECTION ( 'NONE',  ( 0.000000000000000000, 0.000000000000000000, 1.000000000000000000 ) ) ;
#820 = DIRECTION ( 'NONE',  ( 0.000000000000000000, 0.000000000000000000, 1.000000000000000000 ) ) ;
#821 = ORIENTED_EDGE ( 'NONE', *, *, #1269, .F. ) ;
#822 = CARTESIAN_POINT ( 'NONE',  ( 11.00000000000000000, 0.000000000000000000, 14.50000000000000000 ) ) ;
#823 = DIRECTION ( 'NONE',  ( 0.000000000000000000, 0.000000000000000000, -1.000000000000000000 ) ) ;
#824 = EDGE_LOOP ( 'NONE', ( #978, #935, #63, #829 ) ) ;
#825 = CIRCLE ( 'NONE', #272, 0.2000000000000005107 ) ;
#826 = DIRECTION ( 'NONE',  ( 0.000000000000000000, 0.000000000000000000, 1.000000000000000000 ) ) ;
#827 = EDGE_CURVE ( 'NONE', #1006, #1363, #1099, .T. ) ;
#828 = CARTESIAN_POINT ( 'NONE',  ( 6.938994047619050143, 5.940399793140653806, -1.000000000000000000 ) ) ;
#829 = ORIENTED_EDGE ( 'NONE', *, *, #1262, .F. ) ;
#830 = LINE ( 'NONE', #1258, #1145 ) ;
#831 = AXIS2_PLACEMENT_3D ( 'NONE', #915, #819, #706 ) ;
#832 = CIRCLE ( 'NONE', #326, 0.8000000000000003775 ) ;
#833 = AXIS2_PLACEMENT_3D ( 'NONE', #1283, #469, #847 ) ;
#834 = CARTESIAN_POINT ( 'NONE',  ( 5.938994047619050143, -5.940399793140653806, -5.200000000000001066 ) ) ;
#835 = PERSON_AND_ORGANIZATION ( #971, #456 ) ;
#836 = CARTESIAN_POINT ( 'NONE',  ( 0.000000000000000000, 0.000000000000000000, 14.50000000000000000 ) ) ;
#837 = DIRECTION ( 'NONE',  ( -1.000000000000000000, 0.000000000000000000, 0.000000000000000000 ) ) ;
#838 = CARTESIAN_POINT ( 'NONE',  ( 0.000000000000000000, 0.000000000000000000, 14.10000000000000142 ) ) ;
#839 = COORDINATED_UNIVERSAL_TIME_OFFSET ( 4, 0, .AHEAD. ) ;
#840 = CARTESIAN_POINT ( 'NONE',  ( 0.000000000000000000, 0.000000000000000000, 14.10000000000000142 ) ) ;
#841 = DIRECTION ( 'NONE',  ( -1.000000000000000000, 0.000000000000000000, 0.000000000000000000 ) ) ;
#842 = EDGE_CURVE ( 'NONE', #751, #126, #1034, .T. ) ;
#843 = LINE ( 'NONE', #1062, #117 ) ;
#844 = CARTESIAN_POINT ( 'NONE',  ( 8.400000000000000355, 0.000000000000000000, -4.699999999999997513 ) ) ;
#845 = CYLINDRICAL_SURFACE ( 'NONE', #986, 9.500000000000000000 ) ;
#846 = CARTESIAN_POINT ( 'NONE',  ( 4.938994047619049255, 5.940399793140653806, -5.200000000000001066 ) ) ;
#847 = DIRECTION ( 'NONE',  ( 1.000000000000000000, 0.000000000000000000, 0.000000000000000000 ) ) ;
#848 = VECTOR ( 'NONE', #229, 1000.000000000000000 ) ;
#849 = APPROVAL_PERSON_ORGANIZATION ( #697, #320, #1129 ) ;
#850 = DIRECTION ( 'NONE',  ( -1.000000000000000000, 0.000000000000000000, 0.000000000000000000 ) ) ;
#851 = ORIENTED_EDGE ( 'NONE', *, *, #857, .T. ) ;
#852 = CARTESIAN_POINT ( 'NONE',  ( 0.000000000000000000, 0.000000000000000000, -1.399999999999999911 ) ) ;
#853 = ORIENTED_EDGE ( 'NONE', *, *, #79, .T. ) ;
#854 = CIRCLE ( 'NONE', #370, 10.90000000000000036 ) ;
#855 = FACE_OUTER_BOUND ( 'NONE', #58, .T. ) ;
#856 = EDGE_CURVE ( 'NONE', #6, #566, #497, .T. ) ;
#857 = EDGE_CURVE ( 'NONE', #794, #1085, #145, .T. ) ;
#858 = CYLINDRICAL_SURFACE ( 'NONE', #22, 12.00000000000000178 ) ;
#859 = DIRECTION ( 'NONE',  ( 0.000000000000000000, 0.000000000000000000, 1.000000000000000000 ) ) ;
#860 = CARTESIAN_POINT ( 'NONE',  ( 0.000000000000000000, 0.000000000000000000, -1.000000000000000000 ) ) ;
#861 = VERTEX_POINT ( 'NONE', #654 ) ;
#862 = ORIENTED_EDGE ( 'NONE', *, *, #592, .T. ) ;
#863 = ADVANCED_FACE ( 'NONE', ( #11, #989 ), #1285, .T. ) ;
#864 = DIRECTION ( 'NONE',  ( 0.000000000000000000, 0.000000000000000000, -1.000000000000000000 ) ) ;
#865 = DIRECTION ( 'NONE',  ( 0.000000000000000000, 0.000000000000000000, -1.000000000000000000 ) ) ;
#866 = DIRECTION ( 'NONE',  ( -0.000000000000000000, -0.000000000000000000, 1.000000000000000000 ) ) ;
#867 = VERTEX_POINT ( 'NONE', #139 ) ;
#868 = ORIENTED_EDGE ( 'NONE', *, *, #827, .F. ) ;
#869 = CIRCLE ( 'NONE', #451, 9.500000000000000000 ) ;
#870 = AXIS2_PLACEMENT_3D ( 'NONE', #400, #280, #68 ) ;
#871 = CARTESIAN_POINT ( 'NONE',  ( -8.400000000000000355, 0.000000000000000000, -5.200000000000001066 ) ) ;
#872 = LOCAL_TIME ( 14, 42, 57.00000000000000000, #1050 ) ;
#873 = DIRECTION ( 'NONE',  ( 1.000000000000000000, 0.000000000000000000, -0.000000000000000000 ) ) ;
#874 = DIRECTION ( 'NONE',  ( 0.000000000000000000, -1.000000000000000000, 0.000000000000000000 ) ) ;
#875 = ORIENTED_EDGE ( 'NONE', *, *, #876, .F. ) ;
#876 = EDGE_CURVE ( 'NONE', #794, #1298, #1019, .T. ) ;
#877 = EDGE_LOOP ( 'NONE', ( #327, #1287 ) ) ;
#878 = CARTESIAN_POINT ( 'NONE',  ( 0.000000000000000000, 0.000000000000000000, -1.399999999999999911 ) ) ;
#879 = AXIS2_PLACEMENT_3D ( 'NONE', #699, #600, #486 ) ;
#880 = CIRCLE ( 'NONE', #1306, 15.19999999999999929 ) ;
#881 = CARTESIAN_POINT ( 'NONE',  ( 6.938994047619050143, -5.940399793140653806, -5.200000000000001066 ) ) ;
#882 = ORIENTED_EDGE ( 'NONE', *, *, #185, .T. ) ;
#883 = EDGE_CURVE ( 'NONE', #669, #797, #814, .T. ) ;
#884 = DIRECTION ( 'NONE',  ( -0.7071067811865449082, 8.659560562354900811E-17, 0.7071067811865501263 ) ) ;
#885 = ORIENTED_EDGE ( 'NONE', *, *, #224, .T. ) ;
#886 = EDGE_LOOP ( 'NONE', ( #688, #393, #465, #98 ) ) ;
#887 = FACE_OUTER_BOUND ( 'NONE', #1328, .T. ) ;
#888 = VERTEX_POINT ( 'NONE', #1292 ) ;
#889 = CARTESIAN_POINT ( 'NONE',  ( 0.000000000000000000, 0.000000000000000000, 13.70000000000000107 ) ) ;
#890 = AXIS2_PLACEMENT_3D ( 'NONE', #1222, #481, #54 ) ;
#891 = ORIENTED_EDGE ( 'NONE', *, *, #251, .T. ) ;
#892 = CARTESIAN_POINT ( 'NONE',  ( 16.00000000000000000, 1.959434878635764737E-15, 13.70000000000000107 ) ) ;
#893 = EDGE_LOOP ( 'NONE', ( #213, #479, #868, #1061 ) ) ;
#894 = ORIENTED_EDGE ( 'NONE', *, *, #185, .F. ) ;
#895 =( LENGTH_UNIT ( ) NAMED_UNIT ( * ) SI_UNIT ( .MILLI., .METRE. ) );
#896 = DIRECTION ( 'NONE',  ( -1.000000000000000000, 0.000000000000000000, 0.000000000000000000 ) ) ;
#897 = CIRCLE ( 'NONE', #431, 1.000000000000000000 ) ;
#898 = ORIENTED_EDGE ( 'NONE', *, *, #947, .T. ) ;
#899 = CARTESIAN_POINT ( 'NONE',  ( 8.400000000000000355, 0.000000000000000000, -5.200000000000001066 ) ) ;
#900 = ORIENTED_EDGE ( 'NONE', *, *, #883, .F. ) ;
#901 = DIRECTION ( 'NONE',  ( 0.7071067811865449082, 0.000000000000000000, 0.7071067811865501263 ) ) ;
#902 = EDGE_CURVE ( 'NONE', #1122, #571, #461, .T. ) ;
#903 = DIRECTION ( 'NONE',  ( 1.224646799147353207E-16, 1.000000000000000000, -0.000000000000000000 ) ) ;
#904 = ORIENTED_EDGE ( 'NONE', *, *, #576, .F. ) ;
#905 = DIRECTION ( 'NONE',  ( 1.000000000000000000, 0.000000000000000000, 0.000000000000000000 ) ) ;
#906 = VERTEX_POINT ( 'NONE', #1200 ) ;
#907 = CARTESIAN_POINT ( 'NONE',  ( -8.400000000000000355, 0.000000000000000000, -5.200000000000001066 ) ) ;
#908 = CONICAL_SURFACE ( 'NONE', #1090, 0.5000000000000004441, 0.7853981633974446153 ) ;
#909 = DIRECTION ( 'NONE',  ( -0.000000000000000000, -0.000000000000000000, -1.000000000000000000 ) ) ;
#910 = APPROVAL ( #302, 'UNSPECIFIED' ) ;
#911 = ORIENTED_EDGE ( 'NONE', *, *, #1156, .T. ) ;
#912 = VECTOR ( 'NONE', #646, 1000.000000000000000 ) ;
#913 = FACE_OUTER_BOUND ( 'NONE', #969, .T. ) ;
#914 = PERSON_AND_ORGANIZATION ( #971, #456 ) ;
#915 = CARTESIAN_POINT ( 'NONE',  ( 0.000000000000000000, 0.000000000000000000, 14.10000000000000142 ) ) ;
#916 = CARTESIAN_POINT ( 'NONE',  ( -8.400000000000000355, 0.000000000000000000, -5.200000000000001066 ) ) ;
#917 = EDGE_LOOP ( 'NONE', ( #904, #155, #851, #649 ) ) ;
#918 = AXIS2_PLACEMENT_3D ( 'NONE', #296, #187, #503 ) ;
#919 = EDGE_CURVE ( 'NONE', #789, #240, #775, .T. ) ;
#920 = AXIS2_PLACEMENT_3D ( 'NONE', #30, #676, #154 ) ;
#921 = DIRECTION ( 'NONE',  ( -1.224646799147353207E-16, 1.000000000000000000, 0.000000000000000000 ) ) ;
#922 = CC_DESIGN_PERSON_AND_ORGANIZATION_ASSIGNMENT ( #1158, #1260, ( #257 ) ) ;
#923 = CARTESIAN_POINT ( 'NONE',  ( 6.938994047619050143, -5.940399793140653806, -1.000000000000000000 ) ) ;
#924 = APPLICATION_PROTOCOL_DEFINITION ( 'international standard', 'config_control_design', 1994, #377 ) ;
#925 = DIRECTION ( 'NONE',  ( -1.000000000000000000, 0.000000000000000000, 0.000000000000000000 ) ) ;
#926 = VECTOR ( 'NONE', #112, 1000.000000000000000 ) ;
#927 = ORIENTED_EDGE ( 'NONE', *, *, #450, .F. ) ;
#928 = DIRECTION ( 'NONE',  ( -1.000000000000000000, 1.224646799147350742E-16, 0.000000000000000000 ) ) ;
#929 = EDGE_CURVE ( 'NONE', #1027, #789, #36, .T. ) ;
#930 = AXIS2_PLACEMENT_3D ( 'NONE', #1165, #750, #841 ) ;
#931 = CARTESIAN_POINT ( 'NONE',  ( -11.80000000000000071, 0.000000000000000000, -1.399999999999999911 ) ) ;
#932 = DIRECTION ( 'NONE',  ( 0.000000000000000000, 0.000000000000000000, 1.000000000000000000 ) ) ;
#933 = EDGE_LOOP ( 'NONE', ( #1070, #1347 ) ) ;
#934 = CARTESIAN_POINT ( 'NONE',  ( 0.000000000000000000, 0.000000000000000000, 0.8000000000000003775 ) ) ;
#935 = ORIENTED_EDGE ( 'NONE', *, *, #347, .T. ) ;
#936 = CIRCLE ( 'NONE', #334, 12.00000000000000178 ) ;
#937 = DIRECTION ( 'NONE',  ( 0.000000000000000000, 0.000000000000000000, 1.000000000000000000 ) ) ;
#938 = CALENDAR_DATE ( 2026, 7, 4 ) ;
#939 = DIRECTION ( 'NONE',  ( 0.000000000000000000, 0.000000000000000000, 1.000000000000000000 ) ) ;
#940 = ORIENTED_EDGE ( 'NONE', *, *, #780, .F. ) ;
#941 = DIRECTION ( 'NONE',  ( 1.224646799147353207E-16, 1.000000000000000000, -0.000000000000000000 ) ) ;
#942 = EDGE_LOOP ( 'NONE', ( #821, #157, #1089, #578 ) ) ;
#943 = CIRCLE ( 'NONE', #209, 1.000000000000000000 ) ;
#944 = AXIS2_PLACEMENT_3D ( 'NONE', #49, #1339, #384 ) ;
#945 = VECTOR ( 'NONE', #884, 1000.000000000000000 ) ;
#946 = CARTESIAN_POINT ( 'NONE',  ( -8.400000000000000355, 0.000000000000000000, -4.699999999999995737 ) ) ;
#947 = EDGE_CURVE ( 'NONE', #888, #225, #284, .T. ) ;
#948 = DIRECTION ( 'NONE',  ( -1.000000000000000000, 0.000000000000000000, 0.000000000000000000 ) ) ;
#949 = FACE_BOUND ( 'NONE', #120, .T. ) ;
#950 = EDGE_CURVE ( 'NONE', #483, #1045, #397, .T. ) ;
#951 = DIRECTION ( 'NONE',  ( 0.000000000000000000, 0.000000000000000000, 1.000000000000000000 ) ) ;
#952 = APPROVAL_ROLE ( '' ) ;
#953 = LINE ( 'NONE', #1359, #337 ) ;
#954 = DIRECTION ( 'NONE',  ( 0.000000000000000000, 0.000000000000000000, -1.000000000000000000 ) ) ;
#955 = EDGE_LOOP ( 'NONE', ( #636, #772 ) ) ;
#956 = CIRCLE ( 'NONE', #180, 16.00000000000000000 ) ;
#957 = DIRECTION ( 'NONE',  ( -0.000000000000000000, -0.000000000000000000, 1.000000000000000000 ) ) ;
#958 = DIRECTION ( 'NONE',  ( 0.000000000000000000, 0.000000000000000000, -1.000000000000000000 ) ) ;
#959 = FACE_OUTER_BOUND ( 'NONE', #243, .T. ) ;
#960 = ORIENTED_EDGE ( 'NONE', *, *, #1253, .F. ) ;
#961 = EDGE_CURVE ( 'NONE', #464, #1006, #160, .T. ) ;
#962 = ADVANCED_FACE ( 'NONE', ( #804 ), #74, .T. ) ;
#963 = CIRCLE ( 'NONE', #761, 15.19999999999999929 ) ;
#964 = LINE ( 'NONE', #629, #926 ) ;
#965 = VECTOR ( 'NONE', #343, 1000.000000000000000 ) ;
#966 = DIRECTION ( 'NONE',  ( 0.000000000000000000, 0.000000000000000000, 1.000000000000000000 ) ) ;
#967 = CARTESIAN_POINT ( 'NONE',  ( -8.400000000000000355, 0.000000000000000000, -1.000000000000000000 ) ) ;
#968 = FACE_OUTER_BOUND ( 'NONE', #781, .T. ) ;
#969 = EDGE_LOOP ( 'NONE', ( #1208, #433, #911, #570 ) ) ;
#970 = AXIS2_PLACEMENT_3D ( 'NONE', #121, #214, #679 ) ;
#971 = PERSON ( 'UNSPECIFIED', 'UNSPECIFIED', 'UNSPECIFIED', ('UNSPECIFIED'), ('UNSPECIFIED'), ('UNSPECIFIED') ) ;
#972 = EDGE_CURVE ( 'NONE', #1173, #123, #1305, .T. ) ;
#973 = ORIENTED_EDGE ( 'NONE', *, *, #715, .T. ) ;
#974 = CARTESIAN_POINT ( 'NONE',  ( 0.000000000000000000, 0.000000000000000000, -1.199999999999999956 ) ) ;
#975 = DIRECTION ( 'NONE',  ( 0.000000000000000000, 0.000000000000000000, 1.000000000000000000 ) ) ;
#976 = DIRECTION ( 'NONE',  ( -1.000000000000000000, 0.000000000000000000, -0.000000000000000000 ) ) ;
#977 = ORIENTED_EDGE ( 'NONE', *, *, #842, .F. ) ;
#978 = ORIENTED_EDGE ( 'NONE', *, *, #510, .F. ) ;
#979 = EDGE_CURVE ( 'NONE', #161, #236, #769, .T. ) ;
#980 = CARTESIAN_POINT ( 'NONE',  ( 8.400000000000000355, 0.000000000000000000, -5.200000000000001066 ) ) ;
#981 = AXIS2_PLACEMENT_3D ( 'NONE', #466, #1284, #550 ) ;
#982 = CARTESIAN_POINT ( 'NONE',  ( -11.00000000000000000, 1.347111479062088405E-15, 14.50000000000000000 ) ) ;
#983 = DIRECTION ( 'NONE',  ( 0.000000000000000000, 0.000000000000000000, -1.000000000000000000 ) ) ;
#984 = ORIENTED_EDGE ( 'NONE', *, *, #395, .T. ) ;
#985 = ORIENTED_EDGE ( 'NONE', *, *, #856, .F. ) ;
#986 = AXIS2_PLACEMENT_3D ( 'NONE', #840, #204, #190 ) ;
#987 = LINE ( 'NONE', #17, #382 ) ;
#988 = ADVANCED_FACE ( 'NONE', ( #1125 ), #702, .T. ) ;
#989 = FACE_BOUND ( 'NONE', #1281, .T. ) ;
#990 = EDGE_LOOP ( 'NONE', ( #677, #997, #59, #335 ) ) ;
#991 = LINE ( 'NONE', #1025, #965 ) ;
#992 = CARTESIAN_POINT ( 'NONE',  ( 5.938994047619050143, -5.940399793140653806, -1.000000000000000000 ) ) ;
#993 = EDGE_LOOP ( 'NONE', ( #1309, #900 ) ) ;
#994 = CARTESIAN_POINT ( 'NONE',  ( 5.438994047619049255, 5.940399793140653806, -5.200000000000001066 ) ) ;
#995 = AXIS2_PLACEMENT_3D ( 'NONE', #690, #903, #1244 ) ;
#996 = AXIS2_PLACEMENT_3D ( 'NONE', #12, #132, #422 ) ;
#997 = ORIENTED_EDGE ( 'NONE', *, *, #378, .T. ) ;
#998 = CARTESIAN_POINT ( 'NONE',  ( -9.400000000000002132, 1.224646799147355672E-16, -1.000000000000000000 ) ) ;
#999 = VERTEX_POINT ( 'NONE', #69 ) ;
#1000 = DIRECTION ( 'NONE',  ( 1.000000000000000000, 0.000000000000000000, 0.000000000000000000 ) ) ;
#1001 = DIRECTION ( 'NONE',  ( -1.000000000000000000, 0.000000000000000000, 0.000000000000000000 ) ) ;
#1002 = ORIENTED_EDGE ( 'NONE', *, *, #291, .F. ) ;
#1003 = CARTESIAN_POINT ( 'NONE',  ( -10.90000000000000036, 1.334865011070615048E-15, -1.000000000000000000 ) ) ;
#1004 = DIRECTION ( 'NONE',  ( 0.000000000000000000, 0.000000000000000000, 1.000000000000000000 ) ) ;
#1005 = CIRCLE ( 'NONE', #292, 12.65000000000000036 ) ;
#1006 = VERTEX_POINT ( 'NONE', #385 ) ;
#1007 = PLANE ( 'NONE',  #944 ) ;
#1008 = DIRECTION ( 'NONE',  ( -1.000000000000000000, 0.000000000000000000, -0.000000000000000000 ) ) ;
#1009 = ORIENTED_EDGE ( 'NONE', *, *, #972, .T. ) ;
#1010 = EDGE_CURVE ( 'NONE', #126, #751, #1131, .T. ) ;
#1011 = DIRECTION ( 'NONE',  ( 0.000000000000000000, 0.000000000000000000, 1.000000000000000000 ) ) ;
#1012 = AXIS2_PLACEMENT_3D ( 'NONE', #618, #1053, #501 ) ;
#1013 = DIRECTION ( 'NONE',  ( 1.000000000000000000, 0.000000000000000000, 0.000000000000000000 ) ) ;
#1014 = ORIENTED_EDGE ( 'NONE', *, *, #919, .F. ) ;
#1015 = PRODUCT_DEFINITION_SHAPE ( 'NONE', 'NONE',  #528 ) ;
#1016 = CIRCLE ( 'NONE', #833, 12.00000000000000178 ) ;
#1017 = EDGE_CURVE ( 'NONE', #529, #1196, #1063, .T. ) ;
#1018 = DIRECTION ( 'NONE',  ( 0.000000000000000000, 0.000000000000000000, 1.000000000000000000 ) ) ;
#1019 = CIRCLE ( 'NONE', #523, 1.000000000000000000 ) ;
#1020 = CARTESIAN_POINT ( 'NONE',  ( 0.000000000000000000, 0.000000000000000000, 14.50000000000000000 ) ) ;
#1021 = VERTEX_POINT ( 'NONE', #499 ) ;
#1022 = DESIGN_CONTEXT ( 'detailed design', #396, 'design' ) ;
#1023 = EDGE_LOOP ( 'NONE', ( #662, #26 ) ) ;
#1024 = COORDINATED_UNIVERSAL_TIME_OFFSET ( 4, 0, .AHEAD. ) ;
#1025 = CARTESIAN_POINT ( 'NONE',  ( -12.65000000000000036, 1.549178200921401754E-15, 13.10000000000000142 ) ) ;
#1026 = DIRECTION ( 'NONE',  ( 1.000000000000000000, 0.000000000000000000, 0.000000000000000000 ) ) ;
#1027 = VERTEX_POINT ( 'NONE', #707 ) ;
#1028 = CC_DESIGN_DATE_AND_TIME_ASSIGNMENT ( #390, #259, ( #528 ) ) ;
#1029 = DIRECTION ( 'NONE',  ( 1.000000000000000000, 0.000000000000000000, 0.000000000000000000 ) ) ;
#1030 = LINE ( 'NONE', #1357, #65 ) ;
#1031 = DIRECTION ( 'NONE',  ( 0.000000000000000000, 0.000000000000000000, -1.000000000000000000 ) ) ;
#1032 = ADVANCED_FACE ( 'NONE', ( #57 ), #1296, .T. ) ;
#1033 = ORIENTED_EDGE ( 'NONE', *, *, #614, .T. ) ;
#1034 = CIRCLE ( 'NONE', #256, 1.000000000000000888 ) ;
#1035 = DIRECTION ( 'NONE',  ( 0.000000000000000000, 0.000000000000000000, 1.000000000000000000 ) ) ;
#1036 = SECURITY_CLASSIFICATION ( '', '', #726 ) ;
#1037 = CARTESIAN_POINT ( 'NONE',  ( -8.400000000000000355, 0.000000000000000000, -5.200000000000001066 ) ) ;
#1038 = DIRECTION ( 'NONE',  ( 0.7071067811865449082, 0.000000000000000000, 0.7071067811865501263 ) ) ;
#1039 = AXIS2_PLACEMENT_3D ( 'NONE', #637, #42, #670 ) ;
#1040 = ORIENTED_EDGE ( 'NONE', *, *, #1175, .T. ) ;
#1041 = PLANE ( 'NONE',  #1323 ) ;
#1042 = ORIENTED_EDGE ( 'NONE', *, *, #127, .F. ) ;
#1043 = CARTESIAN_POINT ( 'NONE',  ( 12.00000000000000178, 0.000000000000000000, -1.399999999999999911 ) ) ;
#1044 = CARTESIAN_POINT ( 'NONE',  ( -12.00000000000000178, 1.469576158976824144E-15, -1.399999999999999911 ) ) ;
#1045 = VERTEX_POINT ( 'NONE', #1237 ) ;
#1046 = FACE_OUTER_BOUND ( 'NONE', #85, .T. ) ;
#1047 = ADVANCED_FACE ( 'NONE', ( #266 ), #557, .T. ) ;
#1048 = TOROIDAL_SURFACE ( 'NONE', #356, 11.09999999999999964, 0.2000000000000000111 ) ;
#1049 = DIRECTION ( 'NONE',  ( 1.000000000000000000, 0.000000000000000000, 0.000000000000000000 ) ) ;
#1050 = COORDINATED_UNIVERSAL_TIME_OFFSET ( 4, 0, .AHEAD. ) ;
#1051 = EDGE_CURVE ( 'NONE', #797, #669, #869, .T. ) ;
#1052 = DIRECTION ( 'NONE',  ( -0.000000000000000000, -0.000000000000000000, 1.000000000000000000 ) ) ;
#1053 = DIRECTION ( 'NONE',  ( -0.000000000000000000, -0.000000000000000000, 1.000000000000000000 ) ) ;
#1054 = AXIS2_PLACEMENT_3D ( 'NONE', #379, #1327, #799 ) ;
#1055 = CIRCLE ( 'NONE', #454, 11.00000000000000000 ) ;
#1056 = VECTOR ( 'NONE', #901, 1000.000000000000000 ) ;
#1057 = LINE ( 'NONE', #615, #351 ) ;
#1058 = PERSON_AND_ORGANIZATION_ROLE ( 'design_supplier' ) ;
#1059 = CARTESIAN_POINT ( 'NONE',  ( -9.400000000000002132, 1.224646799147355672E-16, -4.699999999999995737 ) ) ;
#1060 = PLANE ( 'NONE',  #399 ) ;
#1061 = ORIENTED_EDGE ( 'NONE', *, *, #961, .F. ) ;
#1062 = CARTESIAN_POINT ( 'NONE',  ( 12.65000000000000036, 0.000000000000000000, 13.10000000000000142 ) ) ;
#1063 = CIRCLE ( 'NONE', #806, 15.19999999999999929 ) ;
#1064 = DIRECTION ( 'NONE',  ( 0.000000000000000000, 0.000000000000000000, -1.000000000000000000 ) ) ;
#1065 = CARTESIAN_POINT ( 'NONE',  ( 11.00000000000000000, 0.000000000000000000, 13.10000000000000142 ) ) ;
#1066 = EDGE_CURVE ( 'NONE', #1355, #714, #276, .T. ) ;
#1067 = EDGE_CURVE ( 'NONE', #1298, #794, #943, .T. ) ;
#1068 = DIRECTION ( 'NONE',  ( 1.000000000000000000, 0.000000000000000000, 0.000000000000000000 ) ) ;
#1069 = EDGE_CURVE ( 'NONE', #714, #1355, #692, .T. ) ;
#1070 = ORIENTED_EDGE ( 'NONE', *, *, #731, .T. ) ;
#1071 = FACE_OUTER_BOUND ( 'NONE', #582, .T. ) ;
#1072 = PLANE ( 'NONE',  #1331 ) ;
#1073 = AXIS2_PLACEMENT_3D ( 'NONE', #742, #939, #1366 ) ;
#1074 = DIRECTION ( 'NONE',  ( 1.000000000000000000, 0.000000000000000000, 0.000000000000000000 ) ) ;
#1075 = DIRECTION ( 'NONE',  ( -0.000000000000000000, -0.000000000000000000, 1.000000000000000000 ) ) ;
#1076 = ADVANCED_FACE ( 'NONE', ( #573 ), #1234, .T. ) ;
#1077 = EDGE_LOOP ( 'NONE', ( #927, #1100, #1360, #288 ) ) ;
#1078 = EDGE_LOOP ( 'NONE', ( #306, #51, #282, #423 ) ) ;
#1079 = TOROIDAL_SURFACE ( 'NONE', #166, 15.19999999999999929, 0.8000000000000000444 ) ;
#1080 = DIRECTION ( 'NONE',  ( -0.000000000000000000, -0.000000000000000000, 1.000000000000000000 ) ) ;
#1081 = DIRECTION ( 'NONE',  ( 1.000000000000000000, 0.000000000000000000, 0.000000000000000000 ) ) ;
#1082 = DIRECTION ( 'NONE',  ( 0.000000000000000000, 0.000000000000000000, 1.000000000000000000 ) ) ;
#1083 = CYLINDRICAL_SURFACE ( 'NONE', #219, 7.000000000000000000 ) ;
#1084 = VERTEX_POINT ( 'NONE', #1059 ) ;
#1085 = VERTEX_POINT ( 'NONE', #828 ) ;
#1086 = DIRECTION ( 'NONE',  ( -0.000000000000000000, -0.000000000000000000, 1.000000000000000000 ) ) ;
#1087 = CARTESIAN_POINT ( 'NONE',  ( 5.938994047619050143, 5.940399793140653806, -5.200000000000001066 ) ) ;
#1088 = DIRECTION ( 'NONE',  ( -1.000000000000000000, 0.000000000000000000, 0.000000000000000000 ) ) ;
#1089 = ORIENTED_EDGE ( 'NONE', *, *, #86, .T. ) ;
#1090 = AXIS2_PLACEMENT_3D ( 'NONE', #405, #951, #1381 ) ;
#1091 = EDGE_LOOP ( 'NONE', ( #1139, #749 ) ) ;
#1092 = EDGE_CURVE ( 'NONE', #1027, #1105, #1278, .T. ) ;
#1093 = CYLINDRICAL_SURFACE ( 'NONE', #533, 12.00000000000000178 ) ;
#1094 = AXIS2_PLACEMENT_3D ( 'NONE', #555, #1300, #29 ) ;
#1095 = DIRECTION ( 'NONE',  ( 1.000000000000000000, 0.000000000000000000, 0.000000000000000000 ) ) ;
#1096 = VERTEX_POINT ( 'NONE', #512 ) ;
#1097 = ORIENTED_EDGE ( 'NONE', *, *, #1198, .F. ) ;
#1098 = AXIS2_PLACEMENT_3D ( 'NONE', #91, #424, #517 ) ;
#1099 = CIRCLE ( 'NONE', #297, 10.90000000000000036 ) ;
#1100 = ORIENTED_EDGE ( 'NONE', *, *, #565, .T. ) ;
#1101 = CARTESIAN_POINT ( 'NONE',  ( 9.400000000000000355, 0.000000000000000000, -1.000000000000000000 ) ) ;
#1102 = CARTESIAN_POINT ( 'NONE',  ( 15.19999999999999929, 0.000000000000000000, 0.8000000000000003775 ) ) ;
#1103 = ORIENTED_EDGE ( 'NONE', *, *, #416, .T. ) ;
#1104 = DIRECTION ( 'NONE',  ( -1.000000000000000000, 0.000000000000000000, 0.000000000000000000 ) ) ;
#1105 = VERTEX_POINT ( 'NONE', #414 ) ;
#1106 = CIRCLE ( 'NONE', #970, 11.00000000000000000 ) ;
#1107 = COORDINATED_UNIVERSAL_TIME_OFFSET ( 4, 0, .AHEAD. ) ;
#1108 = TOROIDAL_SURFACE ( 'NONE', #504, 15.19999999999999929, 0.8000000000000000444 ) ;
#1109 = CARTESIAN_POINT ( 'NONE',  ( 6.938994047619050143, 5.940399793140653806, -4.699999999999997513 ) ) ;
#1110 = VERTEX_POINT ( 'NONE', #1065 ) ;
#1111 = FACE_OUTER_BOUND ( 'NONE', #1319, .T. ) ;
#1112 = CARTESIAN_POINT ( 'NONE',  ( 4.938994047619049255, 5.940399793140653806, -1.000000000000000000 ) ) ;
#1113 = ADVANCED_FACE ( 'NONE', ( #103 ), #845, .F. ) ;
#1114 = ORIENTED_EDGE ( 'NONE', *, *, #1156, .F. ) ;
#1115 = DIRECTION ( 'NONE',  ( -0.000000000000000000, -0.000000000000000000, 1.000000000000000000 ) ) ;
#1116 = CARTESIAN_POINT ( 'NONE',  ( -11.00000000000000000, 1.347111479062088405E-15, 13.10000000000000142 ) ) ;
#1117 = CARTESIAN_POINT ( 'NONE',  ( 7.000000000000000000, 0.000000000000000000, 14.10000000000000142 ) ) ;
#1118 = DIRECTION ( 'NONE',  ( 0.000000000000000000, 0.000000000000000000, 1.000000000000000000 ) ) ;
#1119 = TOROIDAL_SURFACE ( 'NONE', #1341, 11.80000000000000071, 0.2000000000000000111 ) ;
#1120 = EDGE_LOOP ( 'NONE', ( #1238, #553, #891, #776 ) ) ;
#1121 = EDGE_CURVE ( 'NONE', #199, #797, #727, .T. ) ;
#1122 = VERTEX_POINT ( 'NONE', #83 ) ;
#1123 = CIRCLE ( 'NONE', #516, 1.000000000000000000 ) ;
#1124 = CIRCLE ( 'NONE', #831, 7.000000000000000000 ) ;
#1125 = FACE_OUTER_BOUND ( 'NONE', #268, .T. ) ;
#1126 = EDGE_LOOP ( 'NONE', ( #374, #178 ) ) ;
#1127 = EDGE_CURVE ( 'NONE', #1096, #906, #524, .T. ) ;
#1128 = EDGE_LOOP ( 'NONE', ( #628, #1314, #206, #556 ) ) ;
#1129 = APPROVAL_ROLE ( '' ) ;
#1130 = ADVANCED_FACE ( 'NONE', ( #216 ), #720, .T. ) ;
#1131 = CIRCLE ( 'NONE', #879, 1.000000000000000888 ) ;
#1132 = DIRECTION ( 'NONE',  ( -0.000000000000000000, -0.000000000000000000, 1.000000000000000000 ) ) ;
#1133 = ORIENTED_EDGE ( 'NONE', *, *, #1269, .T. ) ;
#1134 = CARTESIAN_POINT ( 'NONE',  ( 0.000000000000000000, 0.000000000000000000, 0.000000000000000000 ) ) ;
#1135 = CARTESIAN_POINT ( 'NONE',  ( 0.000000000000000000, 0.000000000000000000, 13.70000000000000107 ) ) ;
#1136 = EDGE_CURVE ( 'NONE', #264, #468, #953, .T. ) ;
#1137 = DIRECTION ( 'NONE',  ( 0.000000000000000000, 0.000000000000000000, 1.000000000000000000 ) ) ;
#1138 = CARTESIAN_POINT ( 'NONE',  ( 0.000000000000000000, 0.000000000000000000, 0.8000000000000003775 ) ) ;
#1139 = ORIENTED_EDGE ( 'NONE', *, *, #1253, .T. ) ;
#1140 = DIRECTION ( 'NONE',  ( -0.000000000000000000, -0.000000000000000000, 1.000000000000000000 ) ) ;
#1141 = CIRCLE ( 'NONE', #890, 1.000000000000000000 ) ;
#1142 = LINE ( 'NONE', #1043, #195 ) ;
#1143 = DIRECTION ( 'NONE',  ( 1.000000000000000000, 0.000000000000000000, 0.000000000000000000 ) ) ;
#1144 = ORIENTED_EDGE ( 'NONE', *, *, #780, .T. ) ;
#1145 = VECTOR ( 'NONE', #1343, 1000.000000000000000 ) ;
#1146 = CIRCLE ( 'NONE', #920, 10.90000000000000036 ) ;
#1147 = DIRECTION ( 'NONE',  ( -0.000000000000000000, -0.000000000000000000, -1.000000000000000000 ) ) ;
#1148 = ORIENTED_EDGE ( 'NONE', *, *, #267, .F. ) ;
#1149 = APPROVAL_PERSON_ORGANIZATION ( #153, #773, #314 ) ;
#1150 = FACE_BOUND ( 'NONE', #495, .T. ) ;
#1151 = DIRECTION ( 'NONE',  ( -1.000000000000000000, 0.000000000000000000, 0.000000000000000000 ) ) ;
#1152 = AXIS2_PLACEMENT_3D ( 'NONE', #838, #412, #604 ) ;
#1153 = ORIENTED_EDGE ( 'NONE', *, *, #31, .T. ) ;
#1154 = CARTESIAN_POINT ( 'NONE',  ( -8.900000000000002132, 6.123233995736772199E-17, -5.200000000000001066 ) ) ;
#1155 = EDGE_CURVE ( 'NONE', #1221, #1304, #1123, .T. ) ;
#1156 = EDGE_CURVE ( 'NONE', #236, #161, #1005, .T. ) ;
#1157 = CARTESIAN_POINT ( 'NONE',  ( -7.399999999999999467, 0.000000000000000000, -5.200000000000001066 ) ) ;
#1158 = PERSON_AND_ORGANIZATION ( #971, #456 ) ;
#1159 = CARTESIAN_POINT ( 'NONE',  ( 4.938994047619049255, -5.940399793140653806, -1.000000000000000000 ) ) ;
#1160 = FACE_OUTER_BOUND ( 'NONE', #333, .T. ) ;
#1161 = ORIENTED_EDGE ( 'NONE', *, *, #165, .T. ) ;
#1162 = AXIS2_PLACEMENT_3D ( 'NONE', #436, #330, #46 ) ;
#1163 = PLANE ( 'NONE',  #674 ) ;
#1164 = FACE_OUTER_BOUND ( 'NONE', #140, .T. ) ;
#1165 = CARTESIAN_POINT ( 'NONE',  ( 0.000000000000000000, 0.000000000000000000, -1.399999999999999911 ) ) ;
#1166 = AXIS2_PLACEMENT_3D ( 'NONE', #1138, #820, #1143 ) ;
#1167 = CARTESIAN_POINT ( 'NONE',  ( 7.900000000000000355, 6.123233995736772199E-17, -5.200000000000001066 ) ) ;
#1168 = ADVANCED_FACE ( 'NONE', ( #532 ), #1048, .T. ) ;
#1169 = DATE_AND_TIME ( #616, #872 ) ;
#1170 = ADVANCED_FACE ( 'NONE', ( #611 ), #1119, .T. ) ;
#1171 = ADVANCED_FACE ( 'NONE', ( #1382 ), #88, .T. ) ;
#1172 = DIRECTION ( 'NONE',  ( 0.000000000000000000, 0.000000000000000000, -1.000000000000000000 ) ) ;
#1173 = VERTEX_POINT ( 'NONE', #1159 ) ;
#1174 = LINE ( 'NONE', #221, #341 ) ;
#1175 = EDGE_CURVE ( 'NONE', #441, #468, #511, .T. ) ;
#1176 = LINE ( 'NONE', #223, #211 ) ;
#1177 = VERTEX_POINT ( 'NONE', #303 ) ;
#1178 = CARTESIAN_POINT ( 'NONE',  ( 8.400000000000000355, 0.000000000000000000, -5.200000000000001066 ) ) ;
#1179 = CYLINDRICAL_SURFACE ( 'NONE', #188, 10.90000000000000036 ) ;
#1180 = UNCERTAINTY_MEASURE_WITH_UNIT (LENGTH_MEASURE( 1.000000000000000082E-05 ), #895, 'distance_accuracy_value', 'NONE');
#1181 = AXIS2_PLACEMENT_3D ( 'NONE', #1290, #966, #1081 ) ;
#1182 = DIRECTION ( 'NONE',  ( 1.000000000000000000, 0.000000000000000000, 0.000000000000000000 ) ) ;
#1183 = CARTESIAN_POINT ( 'NONE',  ( 0.000000000000000000, 0.000000000000000000, 14.50000000000000000 ) ) ;
#1184 = DIRECTION ( 'NONE',  ( 1.000000000000000000, 0.000000000000000000, 0.000000000000000000 ) ) ;
#1185 = EDGE_CURVE ( 'NONE', #1096, #342, #1289, .T. ) ;
#1186 = ORIENTED_EDGE ( 'NONE', *, *, #286, .T. ) ;
#1187 = ORIENTED_EDGE ( 'NONE', *, *, #1067, .F. ) ;
#1188 = AXIS2_PLACEMENT_3D ( 'NONE', #417, #1140, #607 ) ;
#1189 = AXIS2_PLACEMENT_3D ( 'NONE', #107, #531, #3 ) ;
#1190 = LINE ( 'NONE', #994, #803 ) ;
#1191 = DIRECTION ( 'NONE',  ( -1.000000000000000000, 0.000000000000000000, 0.000000000000000000 ) ) ;
#1192 = DIRECTION ( 'NONE',  ( -0.000000000000000000, -0.000000000000000000, 1.000000000000000000 ) ) ;
#1193 = ORIENTED_EDGE ( 'NONE', *, *, #1066, .T. ) ;
#1194 = CYLINDRICAL_SURFACE ( 'NONE', #164, 0.9999999999999991118 ) ;
#1195 = ADVANCED_FACE ( 'NONE', ( #1164 ), #1376, .T. ) ;
#1196 = VERTEX_POINT ( 'NONE', #605 ) ;
#1197 = AXIS2_PLACEMENT_3D ( 'NONE', #183, #1118, #1013 ) ;
#1198 = EDGE_CURVE ( 'NONE', #1122, #1298, #1190, .T. ) ;
#1199 = DIRECTION ( 'NONE',  ( 0.000000000000000000, 0.000000000000000000, 1.000000000000000000 ) ) ;
#1200 = CARTESIAN_POINT ( 'NONE',  ( -12.00000000000000178, 1.469576158976824144E-15, 0.000000000000000000 ) ) ;
#1201 = ORIENTED_EDGE ( 'NONE', *, *, #883, .T. ) ;
#1202 = AXIS2_PLACEMENT_3D ( 'NONE', #946, #498, #732 ) ;
#1203 = EDGE_LOOP ( 'NONE', ( #1193, #1288 ) ) ;
#1204 = DIRECTION ( 'NONE',  ( 1.000000000000000000, 0.000000000000000000, 0.000000000000000000 ) ) ;
#1205 = FACE_OUTER_BOUND ( 'NONE', #89, .T. ) ;
#1206 = ORIENTED_EDGE ( 'NONE', *, *, #1334, .T. ) ;
#1207 = PLANE ( 'NONE',  #645 ) ;
#1208 = ORIENTED_EDGE ( 'NONE', *, *, #950, .F. ) ;
#1209 = EDGE_CURVE ( 'NONE', #220, #1085, #311, .T. ) ;
#1210 = CIRCLE ( 'NONE', #603, 0.8000000000000000444 ) ;
#1211 = ADVANCED_FACE ( 'NONE', ( #887 ), #135, .T. ) ;
#1212 = CARTESIAN_POINT ( 'NONE',  ( 0.000000000000000000, 0.000000000000000000, 13.70000000000000284 ) ) ;
#1213 = APPROVAL_STATUS ( 'not_yet_approved' ) ;
#1214 = APPROVAL_PERSON_ORGANIZATION ( #835, #910, #952 ) ;
#1215 = ADVANCED_FACE ( 'NONE', ( #443 ), #228, .T. ) ;
#1216 = DIRECTION ( 'NONE',  ( -1.000000000000000000, 0.000000000000000000, 0.000000000000000000 ) ) ;
#1217 = ORIENTED_EDGE ( 'NONE', *, *, #231, .F. ) ;
#1218 = DIRECTION ( 'NONE',  ( 0.000000000000000000, 0.000000000000000000, -1.000000000000000000 ) ) ;
#1219 = ORIENTED_EDGE ( 'NONE', *, *, #367, .F. ) ;
#1220 = AXIS2_PLACEMENT_3D ( 'NONE', #844, #826, #208 ) ;
#1221 = VERTEX_POINT ( 'NONE', #344 ) ;
#1222 = CARTESIAN_POINT ( 'NONE',  ( 8.400000000000000355, 0.000000000000000000, -1.000000000000000000 ) ) ;
#1223 = EDGE_CURVE ( 'NONE', #342, #1096, #579, .T. ) ;
#1224 = DIRECTION ( 'NONE',  ( 1.000000000000000000, 0.000000000000000000, 0.000000000000000000 ) ) ;
#1225 = PRODUCT_RELATED_PRODUCT_CATEGORY ( 'detail', '', ( #364 ) ) ;
#1226 = ORIENTED_EDGE ( 'NONE', *, *, #919, .T. ) ;
#1227 = FACE_OUTER_BOUND ( 'NONE', #261, .T. ) ;
#1228 = EDGE_LOOP ( 'NONE', ( #853, #1153, #657, #1295 ) ) ;
#1229 = DIRECTION ( 'NONE',  ( 1.000000000000000000, 0.000000000000000000, 0.000000000000000000 ) ) ;
#1230 = CARTESIAN_POINT ( 'NONE',  ( 0.000000000000000000, 0.000000000000000000, 14.50000000000000000 ) ) ;
#1231 = ORIENTED_EDGE ( 'NONE', *, *, #614, .F. ) ;
#1232 = EDGE_CURVE ( 'NONE', #515, #415, #987, .T. ) ;
#1233 = EDGE_LOOP ( 'NONE', ( #359, #977 ) ) ;
#1234 = CONICAL_SURFACE ( 'NONE', #94, 0.5000000000000004441, 0.7853981633974446153 ) ;
#1235 = CYLINDRICAL_SURFACE ( 'NONE', #870, 10.90000000000000036 ) ;
#1236 = CIRCLE ( 'NONE', #7, 7.000000000000000000 ) ;
#1237 = CARTESIAN_POINT ( 'NONE',  ( 12.65000000000000036, 0.000000000000000000, 13.10000000000000142 ) ) ;
#1238 = ORIENTED_EDGE ( 'NONE', *, *, #1223, .T. ) ;
#1239 = CC_DESIGN_APPROVAL ( #773, ( #257 ) ) ;
#1240 = DIRECTION ( 'NONE',  ( -1.000000000000000000, -1.224646799147353207E-16, 0.000000000000000000 ) ) ;
#1241 = EDGE_CURVE ( 'NONE', #1380, #1177, #734, .T. ) ;
#1242 = DIRECTION ( 'NONE',  ( 1.000000000000000000, 0.000000000000000000, 0.000000000000000000 ) ) ;
#1243 = VECTOR ( 'NONE', #274, 1000.000000000000000 ) ;
#1244 = DIRECTION ( 'NONE',  ( -1.000000000000000000, 1.224646799147350742E-16, 0.000000000000000000 ) ) ;
#1245 = AXIS2_PLACEMENT_3D ( 'NONE', #317, #1286, #19 ) ;
#1246 = EDGE_LOOP ( 'NONE', ( #672, #805, #973, #766 ) ) ;
#1247 = DIRECTION ( 'NONE',  ( -0.000000000000000000, -0.000000000000000000, -1.000000000000000000 ) ) ;
#1248 = CARTESIAN_POINT ( 'NONE',  ( 6.438994047619050143, 5.940399793140653806, -5.200000000000001066 ) ) ;
#1249 = MANIFOLD_SOLID_BREP ( '\X2\0421043a044004430433043b0435043d04380435\X0\2', #1383 ) ;
#1250 = ORIENTED_EDGE ( 'NONE', *, *, #1136, .T. ) ;
#1251 = DIRECTION ( 'NONE',  ( -1.000000000000000000, 0.000000000000000000, -0.000000000000000000 ) ) ;
#1252 = CYLINDRICAL_SURFACE ( 'NONE', #1279, 1.000000000000001776 ) ;
#1253 = EDGE_CURVE ( 'NONE', #515, #404, #1362, .T. ) ;
#1254 = CARTESIAN_POINT ( 'NONE',  ( 0.000000000000000000, 0.000000000000000000, -1.199999999999999956 ) ) ;
#1255 = ORIENTED_EDGE ( 'NONE', *, *, #1232, .F. ) ;
#1256 = EDGE_CURVE ( 'NONE', #867, #906, #936, .T. ) ;
#1257 = AXIS2_PLACEMENT_3D ( 'NONE', #685, #250, #585 ) ;
#1258 = CARTESIAN_POINT ( 'NONE',  ( -16.00000000000000000, 0.000000000000000000, 14.50000000000000000 ) ) ;
#1259 = DIRECTION ( 'NONE',  ( -0.000000000000000000, -0.000000000000000000, 1.000000000000000000 ) ) ;
#1260 = PERSON_AND_ORGANIZATION_ROLE ( 'creator' ) ;
#1261 = DIRECTION ( 'NONE',  ( -1.000000000000000000, 0.000000000000000000, 0.000000000000000000 ) ) ;
#1262 = EDGE_CURVE ( 'NONE', #722, #318, #640, .T. ) ;
#1263 = DIRECTION ( 'NONE',  ( 1.000000000000000000, 0.000000000000000000, 0.000000000000000000 ) ) ;
#1264 = ORIENTED_EDGE ( 'NONE', *, *, #564, .F. ) ;
#1265 = CARTESIAN_POINT ( 'NONE',  ( 0.000000000000000000, 0.000000000000000000, 13.10000000000000142 ) ) ;
#1266 = DIRECTION ( 'NONE',  ( -0.000000000000000000, -0.000000000000000000, -1.000000000000000000 ) ) ;
#1267 = CIRCLE ( 'NONE', #1098, 7.000000000000000000 ) ;
#1268 = DIRECTION ( 'NONE',  ( -0.000000000000000000, -0.000000000000000000, 1.000000000000000000 ) ) ;
#1269 = EDGE_CURVE ( 'NONE', #342, #861, #825, .T. ) ;
#1270 = FACE_OUTER_BOUND ( 'NONE', #877, .T. ) ;
#1271 = CARTESIAN_POINT ( 'NONE',  ( 9.500000000000000000, 0.000000000000000000, 14.10000000000000142 ) ) ;
#1272 = DIRECTION ( 'NONE',  ( 1.000000000000000000, 0.000000000000000000, 0.000000000000000000 ) ) ;
#1273 = EDGE_CURVE ( 'NONE', #1110, #729, #458, .T. ) ;
#1274 = AXIS2_PLACEMENT_3D ( 'NONE', #260, #859, #1308 ) ;
#1275 = AXIS2_PLACEMENT_3D ( 'NONE', #1326, #366, #791 ) ;
#1276 = ADVANCED_FACE ( 'NONE', ( #762 ), #491, .T. ) ;
#1277 = DIRECTION ( 'NONE',  ( 0.000000000000000000, 0.000000000000000000, -1.000000000000000000 ) ) ;
#1278 = LINE ( 'NONE', #634, #141 ) ;
#1279 = AXIS2_PLACEMENT_3D ( 'NONE', #1037, #1374, #419 ) ;
#1280 = DIRECTION ( 'NONE',  ( -1.000000000000000000, 0.000000000000000000, 0.000000000000000000 ) ) ;
#1281 = EDGE_LOOP ( 'NONE', ( #275, #1114 ) ) ;
#1282 = AXIS2_PLACEMENT_3D ( 'NONE', #445, #1192, #1184 ) ;
#1283 = CARTESIAN_POINT ( 'NONE',  ( 0.000000000000000000, 0.000000000000000000, 0.000000000000000000 ) ) ;
#1284 = DIRECTION ( 'NONE',  ( 0.000000000000000000, 0.000000000000000000, -1.000000000000000000 ) ) ;
#1285 = PLANE ( 'NONE',  #73 ) ;
#1286 = DIRECTION ( 'NONE',  ( -0.000000000000000000, -0.000000000000000000, 1.000000000000000000 ) ) ;
#1287 = ORIENTED_EDGE ( 'NONE', *, *, #127, .T. ) ;
#1288 = ORIENTED_EDGE ( 'NONE', *, *, #1069, .T. ) ;
#1289 = CIRCLE ( 'NONE', #45, 12.00000000000000178 ) ;
#1290 = CARTESIAN_POINT ( 'NONE',  ( 0.000000000000000000, 0.000000000000000000, 13.70000000000000284 ) ) ;
#1291 = ADVANCED_FACE ( 'NONE', ( #653 ), #1093, .T. ) ;
#1292 = CARTESIAN_POINT ( 'NONE',  ( -16.00000000000000000, 0.000000000000000000, 13.70000000000000107 ) ) ;
#1293 = FACE_BOUND ( 'NONE', #1233, .T. ) ;
#1294 = ADVANCED_FACE ( 'NONE', ( #1307 ), #858, .T. ) ;
#1295 = ORIENTED_EDGE ( 'NONE', *, *, #41, .F. ) ;
#1296 = TOROIDAL_SURFACE ( 'NONE', #1166, 15.19999999999999929, 0.8000000000000000444 ) ;
#1297 = CIRCLE ( 'NONE', #518, 15.19999999999999929 ) ;
#1298 = VERTEX_POINT ( 'NONE', #252 ) ;
#1299 = CIRCLE ( 'NONE', #99, 11.00000000000000000 ) ;
#1300 = DIRECTION ( 'NONE',  ( -0.000000000000000000, -1.000000000000000000, -0.000000000000000000 ) ) ;
#1301 = CARTESIAN_POINT ( 'NONE',  ( 5.938994047619050143, 5.940399793140653806, -1.000000000000000000 ) ) ;
#1302 = CARTESIAN_POINT ( 'NONE',  ( 5.938994047619050143, 5.940399793140653806, -5.200000000000001066 ) ) ;
#1303 = EDGE_LOOP ( 'NONE', ( #455, #1161 ) ) ;
#1304 = VERTEX_POINT ( 'NONE', #1101 ) ;
#1305 = CIRCLE ( 'NONE', #1377, 1.000000000000000000 ) ;
#1306 = AXIS2_PLACEMENT_3D ( 'NONE', #239, #109, #310 ) ;
#1307 = FACE_OUTER_BOUND ( 'NONE', #1120, .T. ) ;
#1308 = DIRECTION ( 'NONE',  ( -1.000000000000000000, 0.000000000000000000, 0.000000000000000000 ) ) ;
#1309 = ORIENTED_EDGE ( 'NONE', *, *, #1051, .F. ) ;
#1310 = CARTESIAN_POINT ( 'NONE',  ( -10.90000000000000036, 1.334865011070615048E-15, -1.199999999999999956 ) ) ;
#1311 = AXIS2_PLACEMENT_3D ( 'NONE', #521, #725, #1049 ) ;
#1312 = CC_DESIGN_PERSON_AND_ORGANIZATION_ASSIGNMENT ( #285, #1351, ( #364 ) ) ;
#1313 = EDGE_CURVE ( 'NONE', #240, #1173, #143, .T. ) ;
#1314 = ORIENTED_EDGE ( 'NONE', *, *, #698, .F. ) ;
#1315 = ADVANCED_FACE ( 'NONE', ( #9 ), #539, .T. ) ;
#1316 = CONICAL_SURFACE ( 'NONE', #111, 0.5000000000000004441, 0.7853981633974447263 ) ;
#1317 = CARTESIAN_POINT ( 'NONE',  ( 0.000000000000000000, 0.000000000000000000, 0.000000000000000000 ) ) ;
#1318 = DIRECTION ( 'NONE',  ( 0.000000000000000000, 0.000000000000000000, 1.000000000000000000 ) ) ;
#1319 = EDGE_LOOP ( 'NONE', ( #411, #771 ) ) ;
#1320 = FACE_OUTER_BOUND ( 'NONE', #355, .T. ) ;
#1321 = EDGE_LOOP ( 'NONE', ( #20, #1336 ) ) ;
#1322 = ADVANCED_FACE ( 'NONE', ( #273 ), #1316, .T. ) ;
#1323 = AXIS2_PLACEMENT_3D ( 'NONE', #1356, #823, #1251 ) ;
#1324 = CIRCLE ( 'NONE', #718, 12.65000000000000036 ) ;
#1325 = CARTESIAN_POINT ( 'NONE',  ( 0.000000000000000000, 0.000000000000000000, 14.10000000000000142 ) ) ;
#1326 = CARTESIAN_POINT ( 'NONE',  ( 0.000000000000000000, 0.000000000000000000, 0.000000000000000000 ) ) ;
#1327 = DIRECTION ( 'NONE',  ( 0.000000000000000000, 0.000000000000000000, -1.000000000000000000 ) ) ;
#1328 = EDGE_LOOP ( 'NONE', ( #470, #446, #985, #116 ) ) ;
#1329 = DIRECTION ( 'NONE',  ( 0.000000000000000000, 0.000000000000000000, 1.000000000000000000 ) ) ;
#1330 = ORIENTED_EDGE ( 'NONE', *, *, #592, .F. ) ;
#1331 = AXIS2_PLACEMENT_3D ( 'NONE', #148, #1218, #1008 ) ;
#1332 = VERTEX_POINT ( 'NONE', #1117 ) ;
#1333 = CYLINDRICAL_SURFACE ( 'NONE', #279, 7.000000000000000000 ) ;
#1334 = EDGE_CURVE ( 'NONE', #1304, #1221, #1141, .T. ) ;
#1335 = DIRECTION ( 'NONE',  ( 1.000000000000000000, 0.000000000000000000, 0.000000000000000000 ) ) ;
#1336 = ORIENTED_EDGE ( 'NONE', *, *, #1155, .F. ) ;
#1337 = FACE_OUTER_BOUND ( 'NONE', #1246, .T. ) ;
#1338 = ORIENTED_EDGE ( 'NONE', *, *, #1066, .F. ) ;
#1339 = DIRECTION ( 'NONE',  ( 0.000000000000000000, 0.000000000000000000, 1.000000000000000000 ) ) ;
#1340 = EDGE_CURVE ( 'NONE', #691, #1110, #1299, .T. ) ;
#1341 = AXIS2_PLACEMENT_3D ( 'NONE', #1254, #958, #948 ) ;
#1342 = ORIENTED_EDGE ( 'NONE', *, *, #136, .T. ) ;
#1343 = DIRECTION ( 'NONE',  ( -0.000000000000000000, -0.000000000000000000, -1.000000000000000000 ) ) ;
#1344 = CYLINDRICAL_SURFACE ( 'NONE', #246, 12.65000000000000036 ) ;
#1345 = CALENDAR_DATE ( 2026, 7, 4 ) ;
#1346 = CARTESIAN_POINT ( 'NONE',  ( 5.938994047619050143, 5.940399793140653806, -4.699999999999997513 ) ) ;
#1347 = ORIENTED_EDGE ( 'NONE', *, *, #902, .T. ) ;
#1348 = FACE_OUTER_BOUND ( 'NONE', #440, .T. ) ;
#1349 = VECTOR ( 'NONE', #537, 1000.000000000000000 ) ;
#1350 = CARTESIAN_POINT ( 'NONE',  ( -7.000000000000000000, 8.572527594031473190E-16, 14.10000000000000142 ) ) ;
#1351 = PERSON_AND_ORGANIZATION_ROLE ( 'design_owner' ) ;
#1352 = FACE_OUTER_BOUND ( 'NONE', #1077, .T. ) ;
#1353 = DIRECTION ( 'NONE',  ( -1.000000000000000000, 0.000000000000000000, 0.000000000000000000 ) ) ;
#1354 = AXIS2_PLACEMENT_3D ( 'NONE', #387, #1147, #1029 ) ;
#1355 = VERTEX_POINT ( 'NONE', #176 ) ;
#1356 = CARTESIAN_POINT ( 'NONE',  ( 5.938994047619050143, -5.940399793140653806, -5.200000000000001066 ) ) ;
#1357 = CARTESIAN_POINT ( 'NONE',  ( 7.400000000000001243, 1.224646799147352961E-16, -5.200000000000001066 ) ) ;
#1358 = EDGE_CURVE ( 'NONE', #1355, #6, #485, .T. ) ;
#1359 = CARTESIAN_POINT ( 'NONE',  ( 16.00000000000000000, 1.959434878635764737E-15, 14.50000000000000000 ) ) ;
#1360 = ORIENTED_EDGE ( 'NONE', *, *, #961, .T. ) ;
#1361 = DIRECTION ( 'NONE',  ( 0.000000000000000000, 0.000000000000000000, 1.000000000000000000 ) ) ;
#1362 = CIRCLE ( 'NONE', #710, 0.5000000000000004441 ) ;
#1363 = VERTEX_POINT ( 'NONE', #1003 ) ;
#1364 = DIRECTION ( 'NONE',  ( -0.000000000000000000, -0.000000000000000000, 1.000000000000000000 ) ) ;
#1365 = ADVANCED_FACE ( 'NONE', ( #588 ), #1333, .F. ) ;
#1366 = DIRECTION ( 'NONE',  ( 1.000000000000000000, 0.000000000000000000, 0.000000000000000000 ) ) ;
#1367 = CIRCLE ( 'NONE', #413, 0.8000000000000003775 ) ;
#1368 = ORIENTED_EDGE ( 'NONE', *, *, #694, .F. ) ;
#1369 = CIRCLE ( 'NONE', #478, 0.2000000000000005107 ) ;
#1370 = LINE ( 'NONE', #97, #106 ) ;
#1371 = CIRCLE ( 'NONE', #763, 1.000000000000000000 ) ;
#1372 = ORIENTED_EDGE ( 'NONE', *, *, #429, .F. ) ;
#1373 = LOCAL_TIME ( 14, 42, 57.00000000000000000, #1024 ) ;
#1374 = DIRECTION ( 'NONE',  ( -0.000000000000000000, -0.000000000000000000, 1.000000000000000000 ) ) ;
#1375 = PERSON_AND_ORGANIZATION ( #971, #456 ) ;
#1376 = CYLINDRICAL_SURFACE ( 'NONE', #471, 16.00000000000000000 ) ;
#1377 = AXIS2_PLACEMENT_3D ( 'NONE', #482, #1031, #589 ) ;
#1378 = CARTESIAN_POINT ( 'NONE',  ( 0.000000000000000000, 0.000000000000000000, -1.399999999999999911 ) ) ;
#1379 = CC_DESIGN_PERSON_AND_ORGANIZATION_ASSIGNMENT ( #914, #159, ( #528 ) ) ;
#1380 = VERTEX_POINT ( 'NONE', #673 ) ;
#1381 = DIRECTION ( 'NONE',  ( 1.000000000000000000, 0.000000000000000000, 0.000000000000000000 ) ) ;
#1382 = FACE_OUTER_BOUND ( 'NONE', #500, .T. ) ;
#1383 = CLOSED_SHELL ( 'NONE', ( #1047, #1276, #480, #372, #569, #1211, #1322, #1076, #1215, #525, #119, #651, #549, #1113, #434, #2, #305, #1294, #1195, #1171, #863, #664, #818, #1291, #675, #494, #663, #321, #138, #323, #60, #102, #1365, #1130, #242, #191, #1315, #962, #488, #428, #388, #329, #650, #988, #207, #77, #1032, #800, #1168, #1170 ) ) ;
ENDSEC;
END-ISO-10303-21;
