ISO-10303-21;
HEADER;
FILE_DESCRIPTION (( 'STEP AP214' ),
    '1' );
FILE_NAME ('Model_ME3-CO.STEP',
    '2026-04-08T06:23:16',
    ( '' ),
    ( '' ),
    'SwSTEP 2.0',
    'SolidWorks 2024',
    '' );
FILE_SCHEMA (( 'AUTOMOTIVE_DESIGN' ));
ENDSEC;

DATA;
#1 = ADVANCED_FACE ( 'NONE', ( #294 ), #647, .T. ) ;
#2 = LINE ( 'NONE', #346, #838 ) ;
#3 = EDGE_LOOP ( 'NONE', ( #297, #338, #455, #97 ) ) ;
#4 = LINE ( 'NONE', #126, #768 ) ;
#5 = DIRECTION ( 'NONE',  ( 1.000000000000000000, 0.000000000000000000, 0.000000000000000000 ) ) ;
#6 = VECTOR ( 'NONE', #402, 1000.000000000000000 ) ;
#7 = ORIENTED_EDGE ( 'NONE', *, *, #386, .F. ) ;
#8 = ADVANCED_FACE ( 'NONE', ( #634 ), #765, .T. ) ;
#9 = DIRECTION ( 'NONE',  ( 1.000000000000000000, 0.000000000000000000, 0.000000000000000000 ) ) ;
#10 = FACE_BOUND ( 'NONE', #710, .T. ) ;
#11 = LINE ( 'NONE', #206, #118 ) ;
#12 = ORIENTED_EDGE ( 'NONE', *, *, #137, .F. ) ;
#13 = ADVANCED_FACE ( 'NONE', ( #486 ), #174, .T. ) ;
#14 = DIRECTION ( 'NONE',  ( -1.000000000000000000, 0.000000000000000000, 0.000000000000000000 ) ) ;
#15 = DIRECTION ( 'NONE',  ( 1.000000000000000000, 0.000000000000000000, -0.000000000000000000 ) ) ;
#16 = CARTESIAN_POINT ( 'NONE',  ( -8.850000000000001421, 1.083812417245407876E-15, 16.39999999999999858 ) ) ;
#17 = ORIENTED_EDGE ( 'NONE', *, *, #801, .F. ) ;
#18 = CARTESIAN_POINT ( 'NONE',  ( -7.000000000000000000, 8.572527594031473190E-16, 0.4000000000000000222 ) ) ;
#19 = FACE_BOUND ( 'NONE', #381, .T. ) ;
#20 = AXIS2_PLACEMENT_3D ( 'NONE', #754, #555, #14 ) ;
#21 = AXIS2_PLACEMENT_3D ( 'NONE', #786, #521, #648 ) ;
#22 = ORIENTED_EDGE ( 'NONE', *, *, #216, .T. ) ;
#23 = LINE ( 'NONE', #689, #131 ) ;
#24 = CARTESIAN_POINT ( 'NONE',  ( 8.850000000000001421, 0.000000000000000000, 15.69999999999999929 ) ) ;
#25 = ORIENTED_EDGE ( 'NONE', *, *, #189, .T. ) ;
#26 = ADVANCED_FACE ( 'NONE', ( #760, #751, #353, #490 ), #506, .T. ) ;
#27 = FACE_OUTER_BOUND ( 'NONE', #707, .T. ) ;
#28 = DIRECTION ( 'NONE',  ( 0.000000000000000000, 0.000000000000000000, 1.000000000000000000 ) ) ;
#29 = DIRECTION ( 'NONE',  ( 1.000000000000000000, 0.000000000000000000, -0.000000000000000000 ) ) ;
#30 = ORIENTED_EDGE ( 'NONE', *, *, #764, .T. ) ;
#31 = DIRECTION ( 'NONE',  ( -0.000000000000000000, -0.000000000000000000, -1.000000000000000000 ) ) ;
#32 = DIRECTION ( 'NONE',  ( -0.7071067811865459074, 0.000000000000000000, -0.7071067811865491270 ) ) ;
#33 = DIRECTION ( 'NONE',  ( 0.000000000000000000, 0.000000000000000000, -1.000000000000000000 ) ) ;
#34 = AXIS2_PLACEMENT_3D ( 'NONE', #528, #662, #144 ) ;
#35 = EDGE_LOOP ( 'NONE', ( #162, #116 ) ) ;
#36 = ADVANCED_FACE ( 'NONE', ( #426 ), #245, .F. ) ;
#37 = AXIS2_PLACEMENT_3D ( 'NONE', #337, #85, #280 ) ;
#38 = EDGE_CURVE ( 'NONE', #562, #571, #600, .T. ) ;
#39 = FACE_OUTER_BOUND ( 'NONE', #837, .T. ) ;
#40 = LINE ( 'NONE', #682, #753 ) ;
#41 = EDGE_LOOP ( 'NONE', ( #155, #776 ) ) ;
#42 = VERTEX_POINT ( 'NONE', #627 ) ;
#43 = PRESENTATION_STYLE_ASSIGNMENT (( #445 ) ) ;
#44 = CARTESIAN_POINT ( 'NONE',  ( 4.774999999999999467, 4.775000000000001243, 20.69999999999999929 ) ) ;
#45 = ORIENTED_EDGE ( 'NONE', *, *, #124, .T. ) ;
#46 = CARTESIAN_POINT ( 'NONE',  ( -3.450000000000001510, 4.774999999999999467, 20.69999999999999929 ) ) ;
#47 = ORIENTED_EDGE ( 'NONE', *, *, #655, .F. ) ;
#48 = PRESENTATION_LAYER_ASSIGNMENT (  '', '', ( #809 ) ) ;
#49 = FACE_OUTER_BOUND ( 'NONE', #194, .T. ) ;
#50 = SURFACE_STYLE_FILL_AREA ( #112 ) ;
#51 = PRODUCT_DEFINITION ( 'UNKNOWN', '', #536, #341 ) ;
#52 = DIRECTION ( 'NONE',  ( 0.000000000000000000, 0.000000000000000000, 1.000000000000000000 ) ) ;
#53 = VERTEX_POINT ( 'NONE', #300 ) ;
#54 = EDGE_CURVE ( 'NONE', #161, #53, #620, .T. ) ;
#55 = CARTESIAN_POINT ( 'NONE',  ( 9.199999999999999289, 0.000000000000000000, 0.8000000000000003775 ) ) ;
#56 = ORIENTED_EDGE ( 'NONE', *, *, #189, .F. ) ;
#57 = APPLICATION_PROTOCOL_DEFINITION ( 'draft international standard', 'automotive_design', 1998, #419 ) ;
#58 = DIRECTION ( 'NONE',  ( 1.000000000000000000, 0.000000000000000000, 0.000000000000000000 ) ) ;
#59 = ORIENTED_EDGE ( 'NONE', *, *, #425, .T. ) ;
#60 =( GEOMETRIC_REPRESENTATION_CONTEXT ( 3 ) GLOBAL_UNCERTAINTY_ASSIGNED_CONTEXT ( ( #83 ) ) GLOBAL_UNIT_ASSIGNED_CONTEXT ( ( #771, #575, #462 ) ) REPRESENTATION_CONTEXT ( 'NONE', 'WORKASPACE' ) );
#61 = VECTOR ( 'NONE', #275, 1000.000000000000000 ) ;
#62 = ADVANCED_FACE ( 'NONE', ( #772 ), #701, .T. ) ;
#63 = LINE ( 'NONE', #665, #6 ) ;
#64 = CYLINDRICAL_SURFACE ( 'NONE', #228, 8.850000000000001421 ) ;
#65 = VERTEX_POINT ( 'NONE', #645 ) ;
#66 = AXIS2_PLACEMENT_3D ( 'NONE', #508, #516, #178 ) ;
#67 = EDGE_CURVE ( 'NONE', #679, #571, #123, .T. ) ;
#68 = ADVANCED_FACE ( 'NONE', ( #442 ), #315, .T. ) ;
#69 = DIRECTION ( 'NONE',  ( 0.000000000000000000, 0.000000000000000000, -1.000000000000000000 ) ) ;
#70 = ORIENTED_EDGE ( 'NONE', *, *, #67, .F. ) ;
#71 = DIRECTION ( 'NONE',  ( 1.000000000000000000, 0.000000000000000000, -0.000000000000000000 ) ) ;
#72 = CARTESIAN_POINT ( 'NONE',  ( 0.000000000000000000, 0.000000000000000000, 0.8000000000000003775 ) ) ;
#73 = EDGE_LOOP ( 'NONE', ( #806, #215 ) ) ;
#74 = CIRCLE ( 'NONE', #628, 8.850000000000001421 ) ;
#75 = CIRCLE ( 'NONE', #752, 1.324999999999999734 ) ;
#76 = CARTESIAN_POINT ( 'NONE',  ( 5.300000000000000711, 4.775000000000001243, 20.69999999999999929 ) ) ;
#77 = EDGE_LOOP ( 'NONE', ( #385, #59, #22, #511 ) ) ;
#78 = DIRECTION ( 'NONE',  ( 1.000000000000000000, 0.000000000000000000, 0.000000000000000000 ) ) ;
#79 = DIRECTION ( 'NONE',  ( -0.7071067811865459074, 0.000000000000000000, -0.7071067811865491270 ) ) ;
#80 = CARTESIAN_POINT ( 'NONE',  ( 0.000000000000000000, 0.000000000000000000, 0.4000000000000000222 ) ) ;
#81 = VERTEX_POINT ( 'NONE', #775 ) ;
#82 = CARTESIAN_POINT ( 'NONE',  ( -4.775000000000001243, -4.775000000000001243, 15.69999999999999929 ) ) ;
#83 = UNCERTAINTY_MEASURE_WITH_UNIT (LENGTH_MEASURE( 1.000000000000000082E-05 ), #771, 'distance_accuracy_value', 'NONE');
#84 = DIRECTION ( 'NONE',  ( 1.000000000000000000, 0.000000000000000000, 0.000000000000000000 ) ) ;
#85 = DIRECTION ( 'NONE',  ( 1.224646799147353207E-16, 1.000000000000000000, -0.000000000000000000 ) ) ;
#86 = VERTEX_POINT ( 'NONE', #858 ) ;
#87 = EDGE_CURVE ( 'NONE', #783, #128, #440, .T. ) ;
#88 = AXIS2_PLACEMENT_3D ( 'NONE', #158, #533, #539 ) ;
#89 = CARTESIAN_POINT ( 'NONE',  ( 0.000000000000000000, 0.000000000000000000, 16.39999999999999858 ) ) ;
#90 = DIRECTION ( 'NONE',  ( 0.000000000000000000, 0.000000000000000000, -1.000000000000000000 ) ) ;
#91 = AXIS2_PLACEMENT_3D ( 'NONE', #359, #406, #550 ) ;
#92 = AXIS2_PLACEMENT_3D ( 'NONE', #253, #706, #127 ) ;
#93 = VERTEX_POINT ( 'NONE', #377 ) ;
#94 = AXIS2_PLACEMENT_3D ( 'NONE', #836, #626, #609 ) ;
#95 = DIRECTION ( 'NONE',  ( 0.000000000000000000, 0.000000000000000000, 1.000000000000000000 ) ) ;
#96 = DIRECTION ( 'NONE',  ( -0.000000000000000000, -0.000000000000000000, -1.000000000000000000 ) ) ;
#97 = ORIENTED_EDGE ( 'NONE', *, *, #176, .F. ) ;
#98 = DIRECTION ( 'NONE',  ( 0.000000000000000000, 0.000000000000000000, 1.000000000000000000 ) ) ;
#99 = ADVANCED_FACE ( 'NONE', ( #641 ), #64, .F. ) ;
#100 = DIRECTION ( 'NONE',  ( -1.000000000000000000, 0.000000000000000000, 0.000000000000000000 ) ) ;
#101 = FACE_OUTER_BOUND ( 'NONE', #41, .T. ) ;
#102 =( NAMED_UNIT ( * ) SI_UNIT ( $, .STERADIAN. ) SOLID_ANGLE_UNIT ( ) );
#103 = CARTESIAN_POINT ( 'NONE',  ( 0.000000000000000000, 0.000000000000000000, 15.59999999999999787 ) ) ;
#104 =( GEOMETRIC_REPRESENTATION_CONTEXT ( 3 ) GLOBAL_UNCERTAINTY_ASSIGNED_CONTEXT ( ( #211 ) ) GLOBAL_UNIT_ASSIGNED_CONTEXT ( ( #233, #314, #102 ) ) REPRESENTATION_CONTEXT ( 'NONE', 'WORKASPACE' ) );
#105 = ORIENTED_EDGE ( 'NONE', *, *, #805, .F. ) ;
#106 = AXIS2_PLACEMENT_3D ( 'NONE', #856, #652, #9 ) ;
#107 = EDGE_LOOP ( 'NONE', ( #171, #468, #518, #254 ) ) ;
#108 = DIRECTION ( 'NONE',  ( -1.000000000000000000, 0.000000000000000000, 0.000000000000000000 ) ) ;
#109 = VERTEX_POINT ( 'NONE', #390 ) ;
#110 = ORIENTED_EDGE ( 'NONE', *, *, #272, .F. ) ;
#111 = CARTESIAN_POINT ( 'NONE',  ( -10.00000000000000000, 0.000000000000000000, 0.8000000000000003775 ) ) ;
#112 = FILL_AREA_STYLE ('',( #763 ) ) ;
#113 = DIRECTION ( 'NONE',  ( -1.000000000000000000, 0.000000000000000000, 0.000000000000000000 ) ) ;
#114 = EDGE_CURVE ( 'NONE', #460, #810, #597, .T. ) ;
#115 = DIRECTION ( 'NONE',  ( -0.000000000000000000, -0.000000000000000000, -1.000000000000000000 ) ) ;
#116 = ORIENTED_EDGE ( 'NONE', *, *, #694, .T. ) ;
#117 = CIRCLE ( 'NONE', #686, 1.324999999999999734 ) ;
#118 = VECTOR ( 'NONE', #208, 1000.000000000000000 ) ;
#119 = CARTESIAN_POINT ( 'NONE',  ( 4.774999999999999467, 4.775000000000001243, 19.89999999999999858 ) ) ;
#120 = DIRECTION ( 'NONE',  ( -0.000000000000000000, -0.000000000000000000, 1.000000000000000000 ) ) ;
#121 = AXIS2_PLACEMENT_3D ( 'NONE', #839, #429, #29 ) ;
#122 = ORIENTED_EDGE ( 'NONE', *, *, #774, .T. ) ;
#123 = LINE ( 'NONE', #384, #325 ) ;
#124 = EDGE_CURVE ( 'NONE', #465, #816, #488, .T. ) ;
#125 = ORIENTED_EDGE ( 'NONE', *, *, #572, .F. ) ;
#126 = CARTESIAN_POINT ( 'NONE',  ( -8.050000000000000711, 0.000000000000000000, 0.4000000000000000222 ) ) ;
#127 = DIRECTION ( 'NONE',  ( -1.000000000000000000, 0.000000000000000000, 0.000000000000000000 ) ) ;
#128 = VERTEX_POINT ( 'NONE', #326 ) ;
#129 = AXIS2_PLACEMENT_3D ( 'NONE', #582, #785, #130 ) ;
#130 = DIRECTION ( 'NONE',  ( 1.000000000000000000, 0.000000000000000000, 0.000000000000000000 ) ) ;
#131 = VECTOR ( 'NONE', #831, 1000.000000000000114 ) ;
#132 = DIRECTION ( 'NONE',  ( 0.000000000000000000, 0.000000000000000000, 1.000000000000000000 ) ) ;
#133 = ORIENTED_EDGE ( 'NONE', *, *, #339, .T. ) ;
#134 = CARTESIAN_POINT ( 'NONE',  ( 4.774999999999999467, 4.775000000000001243, 20.69999999999999929 ) ) ;
#135 = LINE ( 'NONE', #794, #195 ) ;
#136 = ORIENTED_EDGE ( 'NONE', *, *, #425, .F. ) ;
#137 = EDGE_CURVE ( 'NONE', #109, #42, #843, .T. ) ;
#138 = DIRECTION ( 'NONE',  ( 1.000000000000000000, 0.000000000000000000, 0.000000000000000000 ) ) ;
#139 = ORIENTED_EDGE ( 'NONE', *, *, #770, .F. ) ;
#140 = DIRECTION ( 'NONE',  ( -1.000000000000000000, 0.000000000000000000, 0.000000000000000000 ) ) ;
#141 = LINE ( 'NONE', #674, #538 ) ;
#142 = DIRECTION ( 'NONE',  ( -0.000000000000000000, -0.000000000000000000, -1.000000000000000000 ) ) ;
#143 = ORIENTED_EDGE ( 'NONE', *, *, #466, .T. ) ;
#144 = DIRECTION ( 'NONE',  ( -1.000000000000000000, 0.000000000000000000, -0.000000000000000000 ) ) ;
#145 = ORIENTED_EDGE ( 'NONE', *, *, #667, .F. ) ;
#146 = EDGE_CURVE ( 'NONE', #327, #810, #299, .T. ) ;
#147 = FACE_OUTER_BOUND ( 'NONE', #580, .T. ) ;
#148 = DIRECTION ( 'NONE',  ( 0.000000000000000000, 0.000000000000000000, -1.000000000000000000 ) ) ;
#149 = DIRECTION ( 'NONE',  ( 0.000000000000000000, 0.000000000000000000, -1.000000000000000000 ) ) ;
#150 = ORIENTED_EDGE ( 'NONE', *, *, #255, .F. ) ;
#151 = ADVANCED_FACE ( 'NONE', ( #319 ), #310, .T. ) ;
#152 = CARTESIAN_POINT ( 'NONE',  ( -4.775000000000001243, 4.774999999999999467, 20.69999999999999929 ) ) ;
#153 = AXIS2_PLACEMENT_3D ( 'NONE', #82, #232, #545 ) ;
#154 = FACE_OUTER_BOUND ( 'NONE', #220, .T. ) ;
#155 = ORIENTED_EDGE ( 'NONE', *, *, #745, .T. ) ;
#156 = AXIS2_PLACEMENT_3D ( 'NONE', #601, #201, #724 ) ;
#157 = PRODUCT_DEFINITION_SHAPE ( 'NONE', 'NONE',  #51 ) ;
#158 = CARTESIAN_POINT ( 'NONE',  ( 4.774999999999999467, 4.775000000000001243, 20.69999999999999929 ) ) ;
#159 = ADVANCED_FACE ( 'NONE', ( #454 ), #443, .T. ) ;
#160 = CARTESIAN_POINT ( 'NONE',  ( 7.000000000000000000, 0.000000000000000000, 0.4000000000000000222 ) ) ;
#161 = VERTEX_POINT ( 'NONE', #579 ) ;
#162 = ORIENTED_EDGE ( 'NONE', *, *, #316, .T. ) ;
#163 = CYLINDRICAL_SURFACE ( 'NONE', #630, 1.324999999999999734 ) ;
#164 = DIRECTION ( 'NONE',  ( 1.000000000000000000, 0.000000000000000000, 0.000000000000000000 ) ) ;
#165 = CARTESIAN_POINT ( 'NONE',  ( -6.100000000000001421, -4.775000000000001243, 20.69999999999999929 ) ) ;
#166 = CARTESIAN_POINT ( 'NONE',  ( -4.775000000000001243, 4.774999999999999467, 20.69999999999999929 ) ) ;
#167 = CIRCLE ( 'NONE', #458, 0.5250000000000011324 ) ;
#168 = DIRECTION ( 'NONE',  ( 0.000000000000000000, 0.000000000000000000, 1.000000000000000000 ) ) ;
#169 = MECHANICAL_DESIGN_GEOMETRIC_PRESENTATION_REPRESENTATION (  '', ( #809 ), #60 ) ;
#170 = VECTOR ( 'NONE', #457, 1000.000000000000000 ) ;
#171 = ORIENTED_EDGE ( 'NONE', *, *, #569, .F. ) ;
#172 = AXIS2_PLACEMENT_3D ( 'NONE', #134, #342, #15 ) ;
#173 = DIRECTION ( 'NONE',  ( -1.000000000000000000, 0.000000000000000000, 0.000000000000000000 ) ) ;
#174 = CYLINDRICAL_SURFACE ( 'NONE', #463, 1.324999999999999734 ) ;
#175 = ORIENTED_EDGE ( 'NONE', *, *, #526, .F. ) ;
#176 = EDGE_CURVE ( 'NONE', #642, #327, #273, .T. ) ;
#177 = FACE_OUTER_BOUND ( 'NONE', #260, .T. ) ;
#178 = DIRECTION ( 'NONE',  ( -1.000000000000000000, 0.000000000000000000, 0.000000000000000000 ) ) ;
#179 = VERTEX_POINT ( 'NONE', #720 ) ;
#180 = EDGE_CURVE ( 'NONE', #53, #197, #380, .T. ) ;
#181 = CARTESIAN_POINT ( 'NONE',  ( -4.250000000000000000, 4.774999999999999467, 20.69999999999999929 ) ) ;
#182 = DIRECTION ( 'NONE',  ( 0.000000000000000000, 0.000000000000000000, -1.000000000000000000 ) ) ;
#183 = ORIENTED_EDGE ( 'NONE', *, *, #680, .F. ) ;
#184 = AXIS2_PLACEMENT_3D ( 'NONE', #788, #193, #448 ) ;
#185 = CONICAL_SURFACE ( 'NONE', #713, 0.5250000000000011324, 0.7853981633974459475 ) ;
#186 = CARTESIAN_POINT ( 'NONE',  ( 9.199999999999999289, 0.000000000000000000, 0.000000000000000000 ) ) ;
#187 = EDGE_CURVE ( 'NONE', #42, #109, #117, .T. ) ;
#188 = CARTESIAN_POINT ( 'NONE',  ( -4.250000000000000000, -4.775000000000001243, 20.69999999999999929 ) ) ;
#189 = EDGE_CURVE ( 'NONE', #179, #562, #257, .T. ) ;
#190 = VERTEX_POINT ( 'NONE', #188 ) ;
#191 = CARTESIAN_POINT ( 'NONE',  ( 8.050000000000000711, 9.858406733136194415E-16, 0.4000000000000000222 ) ) ;
#192 = EDGE_CURVE ( 'NONE', #284, #654, #75, .T. ) ;
#193 = DIRECTION ( 'NONE',  ( 0.000000000000000000, 0.000000000000000000, 1.000000000000000000 ) ) ;
#194 = EDGE_LOOP ( 'NONE', ( #266, #369, #859, #444 ) ) ;
#195 = VECTOR ( 'NONE', #400, 1000.000000000000000 ) ;
#196 = DIRECTION ( 'NONE',  ( 0.000000000000000000, 0.000000000000000000, -1.000000000000000000 ) ) ;
#197 = VERTEX_POINT ( 'NONE', #744 ) ;
#198 = CIRCLE ( 'NONE', #446, 1.324999999999999734 ) ;
#199 = CIRCLE ( 'NONE', #212, 8.050000000000000711 ) ;
#200 = CIRCLE ( 'NONE', #726, 1.324999999999999734 ) ;
#201 = DIRECTION ( 'NONE',  ( 0.000000000000000000, 0.000000000000000000, -1.000000000000000000 ) ) ;
#202 = CARTESIAN_POINT ( 'NONE',  ( 9.199999999999999289, 0.000000000000000000, 15.59999999999999787 ) ) ;
#203 = ORIENTED_EDGE ( 'NONE', *, *, #770, .T. ) ;
#204 = CARTESIAN_POINT ( 'NONE',  ( 3.449999999999999734, 4.775000000000001243, 20.69999999999999929 ) ) ;
#205 = DIRECTION ( 'NONE',  ( -0.000000000000000000, -0.000000000000000000, 1.000000000000000000 ) ) ;
#206 = CARTESIAN_POINT ( 'NONE',  ( -6.100000000000001421, 4.774999999999999467, 20.69999999999999929 ) ) ;
#207 = ORIENTED_EDGE ( 'NONE', *, *, #584, .F. ) ;
#208 = DIRECTION ( 'NONE',  ( -0.000000000000000000, -0.000000000000000000, -1.000000000000000000 ) ) ;
#209 = VERTEX_POINT ( 'NONE', #666 ) ;
#210 = DIRECTION ( 'NONE',  ( 1.000000000000000000, 0.000000000000000000, 0.000000000000000000 ) ) ;
#211 = UNCERTAINTY_MEASURE_WITH_UNIT (LENGTH_MEASURE( 1.000000000000000082E-05 ), #233, 'distance_accuracy_value', 'NONE');
#212 = AXIS2_PLACEMENT_3D ( 'NONE', #779, #239, #578 ) ;
#213 = CARTESIAN_POINT ( 'NONE',  ( -8.850000000000001421, 1.083812417245407876E-15, 15.69999999999999929 ) ) ;
#214 = LINE ( 'NONE', #725, #170 ) ;
#215 = ORIENTED_EDGE ( 'NONE', *, *, #272, .T. ) ;
#216 = EDGE_CURVE ( 'NONE', #241, #93, #632, .T. ) ;
#217 = DIRECTION ( 'NONE',  ( 0.000000000000000000, 0.000000000000000000, -1.000000000000000000 ) ) ;
#218 = DIRECTION ( 'NONE',  ( 1.000000000000000000, 0.000000000000000000, 0.000000000000000000 ) ) ;
#219 = EDGE_CURVE ( 'NONE', #783, #654, #214, .T. ) ;
#220 = EDGE_LOOP ( 'NONE', ( #110, #133, #635, #145 ) ) ;
#221 = CARTESIAN_POINT ( 'NONE',  ( -4.775000000000001243, -4.775000000000001243, 20.69999999999999929 ) ) ;
#222 = CARTESIAN_POINT ( 'NONE',  ( -4.775000000000001243, -4.775000000000001243, 19.89999999999999858 ) ) ;
#223 = ORIENTED_EDGE ( 'NONE', *, *, #599, .T. ) ;
#224 = ORIENTED_EDGE ( 'NONE', *, *, #38, .F. ) ;
#225 = CYLINDRICAL_SURFACE ( 'NONE', #711, 7.000000000000000000 ) ;
#226 = AXIS2_PLACEMENT_3D ( 'NONE', #152, #95, #354 ) ;
#227 = CARTESIAN_POINT ( 'NONE',  ( 10.00000000000000000, 1.224646799147353256E-15, 15.59999999999999787 ) ) ;
#228 = AXIS2_PLACEMENT_3D ( 'NONE', #709, #120, #58 ) ;
#229 = EDGE_LOOP ( 'NONE', ( #237, #532, #248, #603 ) ) ;
#230 = CIRCLE ( 'NONE', #393, 1.324999999999999734 ) ;
#231 = ORIENTED_EDGE ( 'NONE', *, *, #87, .T. ) ;
#232 = DIRECTION ( 'NONE',  ( 0.000000000000000000, 0.000000000000000000, 1.000000000000000000 ) ) ;
#233 =( LENGTH_UNIT ( ) NAMED_UNIT ( * ) SI_UNIT ( .MILLI., .METRE. ) );
#234 = CYLINDRICAL_SURFACE ( 'NONE', #94, 8.050000000000000711 ) ;
#235 = ADVANCED_FACE ( 'NONE', ( #470 ), #614, .T. ) ;
#236 = ORIENTED_EDGE ( 'NONE', *, *, #728, .F. ) ;
#237 = ORIENTED_EDGE ( 'NONE', *, *, #764, .F. ) ;
#238 = DIRECTION ( 'NONE',  ( 0.000000000000000000, 0.000000000000000000, -1.000000000000000000 ) ) ;
#239 = DIRECTION ( 'NONE',  ( 0.000000000000000000, 0.000000000000000000, -1.000000000000000000 ) ) ;
#240 = DIRECTION ( 'NONE',  ( 0.000000000000000000, 0.000000000000000000, -1.000000000000000000 ) ) ;
#241 = VERTEX_POINT ( 'NONE', #329 ) ;
#242 = ORIENTED_EDGE ( 'NONE', *, *, #704, .F. ) ;
#243 = CARTESIAN_POINT ( 'NONE',  ( -4.775000000000001243, -4.775000000000001243, 20.69999999999999929 ) ) ;
#244 = ADVANCED_FACE ( 'NONE', ( #409 ), #737, .T. ) ;
#245 = CYLINDRICAL_SURFACE ( 'NONE', #303, 8.850000000000001421 ) ;
#246 = COLOUR_RGB ( '',0.7921568627450980005, 0.8196078431372548767, 0.9333333333333333481 ) ;
#247 = CIRCLE ( 'NONE', #847, 7.000000000000000000 ) ;
#248 = ORIENTED_EDGE ( 'NONE', *, *, #255, .T. ) ;
#249 = DIRECTION ( 'NONE',  ( 1.224646799147353207E-16, 1.000000000000000000, -0.000000000000000000 ) ) ;
#250 = ORIENTED_EDGE ( 'NONE', *, *, #398, .F. ) ;
#251 = DIRECTION ( 'NONE',  ( -1.000000000000000000, 0.000000000000000000, 0.000000000000000000 ) ) ;
#252 = DIRECTION ( 'NONE',  ( 1.000000000000000000, 0.000000000000000000, 0.000000000000000000 ) ) ;
#253 = CARTESIAN_POINT ( 'NONE',  ( 0.000000000000000000, 0.000000000000000000, 16.39999999999999858 ) ) ;
#254 = ORIENTED_EDGE ( 'NONE', *, *, #688, .F. ) ;
#255 = EDGE_CURVE ( 'NONE', #684, #810, #396, .T. ) ;
#256 = CARTESIAN_POINT ( 'NONE',  ( 0.000000000000000000, 0.000000000000000000, 0.2000000000000000111 ) ) ;
#257 = LINE ( 'NONE', #513, #514 ) ;
#258 = TOROIDAL_SURFACE ( 'NONE', #735, 9.199999999999999289, 0.8000000000000000444 ) ;
#259 = TOROIDAL_SURFACE ( 'NONE', #365, 9.199999999999999289, 0.8000000000000000444 ) ;
#260 = EDGE_LOOP ( 'NONE', ( #70, #529, #25, #727 ) ) ;
#261 = AXIS2_PLACEMENT_3D ( 'NONE', #531, #142, #675 ) ;
#262 = DIRECTION ( 'NONE',  ( 1.000000000000000000, 0.000000000000000000, 0.000000000000000000 ) ) ;
#263 = ORIENTED_EDGE ( 'NONE', *, *, #394, .T. ) ;
#264 = CARTESIAN_POINT ( 'NONE',  ( -3.450000000000001510, -4.775000000000001243, 19.89999999999999858 ) ) ;
#265 = DIRECTION ( 'NONE',  ( 1.000000000000000000, 0.000000000000000000, 0.000000000000000000 ) ) ;
#266 = ORIENTED_EDGE ( 'NONE', *, *, #370, .F. ) ;
#267 = CIRCLE ( 'NONE', #802, 9.199999999999999289 ) ;
#268 = CYLINDRICAL_SURFACE ( 'NONE', #437, 1.324999999999999734 ) ;
#269 = DIRECTION ( 'NONE',  ( 1.000000000000000000, 0.000000000000000000, 0.000000000000000000 ) ) ;
#270 = ADVANCED_FACE ( 'NONE', ( #19, #523 ), #276, .T. ) ;
#271 = ORIENTED_EDGE ( 'NONE', *, *, #745, .F. ) ;
#272 = EDGE_CURVE ( 'NONE', #698, #757, #658, .T. ) ;
#273 = CIRCLE ( 'NONE', #335, 0.8000000000000000444 ) ;
#274 = CIRCLE ( 'NONE', #795, 8.850000000000001421 ) ;
#275 = DIRECTION ( 'NONE',  ( -0.000000000000000000, -0.000000000000000000, 1.000000000000000000 ) ) ;
#276 = PLANE ( 'NONE',  #34 ) ;
#277 = ORIENTED_EDGE ( 'NONE', *, *, #375, .F. ) ;
#278 = AXIS2_PLACEMENT_3D ( 'NONE', #548, #356, #623 ) ;
#279 = DIRECTION ( 'NONE',  ( -0.000000000000000000, -0.000000000000000000, -1.000000000000000000 ) ) ;
#280 = DIRECTION ( 'NONE',  ( -1.000000000000000000, 1.224646799147353207E-16, 0.000000000000000000 ) ) ;
#281 = ORIENTED_EDGE ( 'NONE', *, *, #187, .T. ) ;
#282 = CARTESIAN_POINT ( 'NONE',  ( 0.000000000000000000, 0.000000000000000000, 0.000000000000000000 ) ) ;
#283 = CARTESIAN_POINT ( 'NONE',  ( -4.775000000000001243, -4.775000000000001243, 15.69999999999999929 ) ) ;
#284 = VERTEX_POINT ( 'NONE', #541 ) ;
#285 = FACE_OUTER_BOUND ( 'NONE', #638, .T. ) ;
#286 = AXIS2_PLACEMENT_3D ( 'NONE', #693, #98, #360 ) ;
#287 = AXIS2_PLACEMENT_3D ( 'NONE', #849, #249, #846 ) ;
#288 = CIRCLE ( 'NONE', #489, 10.00000000000000000 ) ;
#289 = CARTESIAN_POINT ( 'NONE',  ( 0.000000000000000000, 0.000000000000000000, 16.39999999999999858 ) ) ;
#290 = CARTESIAN_POINT ( 'NONE',  ( 10.00000000000000000, 1.224646799147353256E-15, 0.8000000000000003775 ) ) ;
#291 = EDGE_LOOP ( 'NONE', ( #368, #740, #105, #405 ) ) ;
#292 = DIRECTION ( 'NONE',  ( -0.000000000000000000, -0.000000000000000000, 1.000000000000000000 ) ) ;
#293 = DIRECTION ( 'NONE',  ( 0.000000000000000000, 0.000000000000000000, 1.000000000000000000 ) ) ;
#294 = FACE_OUTER_BOUND ( 'NONE', #3, .T. ) ;
#295 = DIRECTION ( 'NONE',  ( -1.000000000000000000, 0.000000000000000000, 0.000000000000000000 ) ) ;
#296 = VERTEX_POINT ( 'NONE', #477 ) ;
#297 = ORIENTED_EDGE ( 'NONE', *, *, #694, .F. ) ;
#298 = LINE ( 'NONE', #165, #615 ) ;
#299 = CIRCLE ( 'NONE', #21, 10.00000000000000000 ) ;
#300 = CARTESIAN_POINT ( 'NONE',  ( -3.450000000000001510, 4.774999999999999467, 19.89999999999999858 ) ) ;
#301 = AXIS2_PLACEMENT_3D ( 'NONE', #289, #540, #759 ) ;
#302 = DIRECTION ( 'NONE',  ( 0.000000000000000000, 0.000000000000000000, 1.000000000000000000 ) ) ;
#303 = AXIS2_PLACEMENT_3D ( 'NONE', #691, #552, #823 ) ;
#304 = EDGE_LOOP ( 'NONE', ( #558, #320, #833, #281 ) ) ;
#305 = ORIENTED_EDGE ( 'NONE', *, *, #180, .T. ) ;
#306 = DIRECTION ( 'NONE',  ( -0.000000000000000000, -0.000000000000000000, -1.000000000000000000 ) ) ;
#307 = DIRECTION ( 'NONE',  ( -0.000000000000000000, -0.000000000000000000, -1.000000000000000000 ) ) ;
#308 = SURFACE_SIDE_STYLE ('',( #50 ) ) ;
#309 = AXIS2_PLACEMENT_3D ( 'NONE', #625, #31, #140 ) ;
#310 = PLANE ( 'NONE',  #184 ) ;
#311 = CIRCLE ( 'NONE', #349, 7.000000000000000000 ) ;
#312 = ORIENTED_EDGE ( 'NONE', *, *, #339, .F. ) ;
#313 = CIRCLE ( 'NONE', #527, 0.5250000000000011324 ) ;
#314 =( NAMED_UNIT ( * ) PLANE_ANGLE_UNIT ( ) SI_UNIT ( $, .RADIAN. ) );
#315 = CYLINDRICAL_SURFACE ( 'NONE', #66, 1.324999999999999734 ) ;
#316 = EDGE_CURVE ( 'NONE', #642, #460, #267, .T. ) ;
#317 = ORIENTED_EDGE ( 'NONE', *, *, #572, .T. ) ;
#318 = LINE ( 'NONE', #716, #421 ) ;
#319 = FACE_OUTER_BOUND ( 'NONE', #389, .T. ) ;
#320 = ORIENTED_EDGE ( 'NONE', *, *, #192, .T. ) ;
#321 = CARTESIAN_POINT ( 'NONE',  ( -4.775000000000001243, 4.774999999999999467, 20.69999999999999929 ) ) ;
#322 = CIRCLE ( 'NONE', #286, 1.324999999999999734 ) ;
#323 = ORIENTED_EDGE ( 'NONE', *, *, #526, .T. ) ;
#324 = AXIS2_PLACEMENT_3D ( 'NONE', #399, #594, #71 ) ;
#325 = VECTOR ( 'NONE', #388, 1000.000000000000000 ) ;
#326 = CARTESIAN_POINT ( 'NONE',  ( 5.300000000000000711, 4.775000000000001243, 20.69999999999999929 ) ) ;
#327 = VERTEX_POINT ( 'NONE', #290 ) ;
#328 = CARTESIAN_POINT ( 'NONE',  ( 8.050000000000000711, 9.858406733136194415E-16, 0.000000000000000000 ) ) ;
#329 = CARTESIAN_POINT ( 'NONE',  ( -3.450000000000001510, -4.775000000000001243, 15.69999999999999929 ) ) ;
#330 = EDGE_CURVE ( 'NONE', #190, #438, #2, .T. ) ;
#331 = VERTEX_POINT ( 'NONE', #605 ) ;
#332 = PRODUCT_CONTEXT ( 'NONE', #800, 'mechanical' ) ;
#333 = DIRECTION ( 'NONE',  ( 0.000000000000000000, 0.000000000000000000, -1.000000000000000000 ) ) ;
#334 = VERTEX_POINT ( 'NONE', #16 ) ;
#335 = AXIS2_PLACEMENT_3D ( 'NONE', #55, #510, #182 ) ;
#336 = AXIS2_PLACEMENT_3D ( 'NONE', #677, #28, #84 ) ;
#337 = CARTESIAN_POINT ( 'NONE',  ( -9.199999999999999289, 1.126675055215564822E-15, 15.59999999999999787 ) ) ;
#338 = ORIENTED_EDGE ( 'NONE', *, *, #114, .T. ) ;
#339 = EDGE_CURVE ( 'NONE', #698, #449, #135, .T. ) ;
#340 = DIRECTION ( 'NONE',  ( 1.000000000000000000, 0.000000000000000000, 0.000000000000000000 ) ) ;
#341 = PRODUCT_DEFINITION_CONTEXT ( 'detailed design', #419, 'design' ) ;
#342 = DIRECTION ( 'NONE',  ( 0.000000000000000000, 0.000000000000000000, 1.000000000000000000 ) ) ;
#343 = DIRECTION ( 'NONE',  ( 1.000000000000000000, 0.000000000000000000, 0.000000000000000000 ) ) ;
#344 = ORIENTED_EDGE ( 'NONE', *, *, #584, .T. ) ;
#345 = DIRECTION ( 'NONE',  ( -0.000000000000000000, -0.000000000000000000, -1.000000000000000000 ) ) ;
#346 = CARTESIAN_POINT ( 'NONE',  ( -4.250000000000000000, -4.775000000000001243, 20.69999999999999929 ) ) ;
#347 = ORIENTED_EDGE ( 'NONE', *, *, #569, .T. ) ;
#348 = FACE_OUTER_BOUND ( 'NONE', #374, .T. ) ;
#349 = AXIS2_PLACEMENT_3D ( 'NONE', #256, #512, #441 ) ;
#350 = CIRCLE ( 'NONE', #827, 10.00000000000000000 ) ;
#351 = FACE_OUTER_BOUND ( 'NONE', #773, .T. ) ;
#352 = DIRECTION ( 'NONE',  ( -1.000000000000000000, 0.000000000000000000, 0.000000000000000000 ) ) ;
#353 = FACE_BOUND ( 'NONE', #668, .T. ) ;
#354 = DIRECTION ( 'NONE',  ( 1.000000000000000000, 0.000000000000000000, 0.000000000000000000 ) ) ;
#355 = FACE_OUTER_BOUND ( 'NONE', #587, .T. ) ;
#356 = DIRECTION ( 'NONE',  ( 0.000000000000000000, 0.000000000000000000, 1.000000000000000000 ) ) ;
#357 = EDGE_CURVE ( 'NONE', #179, #679, #247, .T. ) ;
#358 = VERTEX_POINT ( 'NONE', #678 ) ;
#359 = CARTESIAN_POINT ( 'NONE',  ( 0.000000000000000000, 0.000000000000000000, 15.59999999999999787 ) ) ;
#360 = DIRECTION ( 'NONE',  ( 1.000000000000000000, 0.000000000000000000, 0.000000000000000000 ) ) ;
#361 = ORIENTED_EDGE ( 'NONE', *, *, #617, .F. ) ;
#362 = FACE_BOUND ( 'NONE', #637, .T. ) ;
#363 = CONICAL_SURFACE ( 'NONE', #88, 0.5250000000000011324, 0.7853981633974463916 ) ;
#364 = CARTESIAN_POINT ( 'NONE',  ( 0.000000000000000000, 0.000000000000000000, 0.4000000000000000222 ) ) ;
#365 = AXIS2_PLACEMENT_3D ( 'NONE', #851, #563, #252 ) ;
#366 = DIRECTION ( 'NONE',  ( -0.000000000000000000, -0.000000000000000000, -1.000000000000000000 ) ) ;
#367 = DIRECTION ( 'NONE',  ( 0.000000000000000000, 0.000000000000000000, 1.000000000000000000 ) ) ;
#368 = ORIENTED_EDGE ( 'NONE', *, *, #394, .F. ) ;
#369 = ORIENTED_EDGE ( 'NONE', *, *, #547, .F. ) ;
#370 = EDGE_CURVE ( 'NONE', #684, #209, #423, .T. ) ;
#371 = EDGE_CURVE ( 'NONE', #810, #327, #288, .T. ) ;
#372 = CARTESIAN_POINT ( 'NONE',  ( 3.449999999999999734, 4.775000000000001243, 19.89999999999999858 ) ) ;
#373 = ORIENTED_EDGE ( 'NONE', *, *, #316, .F. ) ;
#374 = EDGE_LOOP ( 'NONE', ( #361, #472, #672, #56 ) ) ;
#375 = EDGE_CURVE ( 'NONE', #492, #549, #687, .T. ) ;
#376 = DIRECTION ( 'NONE',  ( 0.000000000000000000, 0.000000000000000000, 1.000000000000000000 ) ) ;
#377 = CARTESIAN_POINT ( 'NONE',  ( -6.100000000000001421, -4.775000000000001243, 15.69999999999999929 ) ) ;
#378 = ORIENTED_EDGE ( 'NONE', *, *, #655, .T. ) ;
#379 = AXIS2_PLACEMENT_3D ( 'NONE', #631, #302, #834 ) ;
#380 = LINE ( 'NONE', #46, #780 ) ;
#381 = EDGE_LOOP ( 'NONE', ( #224, #17 ) ) ;
#382 = CIRCLE ( 'NONE', #156, 8.050000000000000711 ) ;
#383 = EDGE_CURVE ( 'NONE', #161, #65, #11, .T. ) ;
#384 = CARTESIAN_POINT ( 'NONE',  ( -7.000000000000000000, 8.572527594031473190E-16, 0.2000000000000000111 ) ) ;
#385 = ORIENTED_EDGE ( 'NONE', *, *, #398, .T. ) ;
#386 = EDGE_CURVE ( 'NONE', #128, #284, #467, .T. ) ;
#387 = DIRECTION ( 'NONE',  ( -0.000000000000000000, -0.000000000000000000, -1.000000000000000000 ) ) ;
#388 = DIRECTION ( 'NONE',  ( -0.000000000000000000, -0.000000000000000000, 1.000000000000000000 ) ) ;
#389 = EDGE_LOOP ( 'NONE', ( #378, #203 ) ) ;
#390 = CARTESIAN_POINT ( 'NONE',  ( 6.099999999999999645, 4.775000000000001243, 15.69999999999999929 ) ) ;
#391 = CONICAL_SURFACE ( 'NONE', #20, 0.5250000000000011324, 0.7853981633974459475 ) ;
#392 = EDGE_LOOP ( 'NONE', ( #478, #535, #719, #223 ) ) ;
#393 = AXIS2_PLACEMENT_3D ( 'NONE', #222, #696, #412 ) ;
#394 = EDGE_CURVE ( 'NONE', #128, #783, #313, .T. ) ;
#395 = FACE_OUTER_BOUND ( 'NONE', #35, .T. ) ;
#396 = LINE ( 'NONE', #413, #422 ) ;
#397 = ORIENTED_EDGE ( 'NONE', *, *, #599, .F. ) ;
#398 = EDGE_CURVE ( 'NONE', #81, #438, #200, .T. ) ;
#399 = CARTESIAN_POINT ( 'NONE',  ( 0.000000000000000000, 0.000000000000000000, 0.000000000000000000 ) ) ;
#400 = DIRECTION ( 'NONE',  ( -0.000000000000000000, -0.000000000000000000, -1.000000000000000000 ) ) ;
#401 = ORIENTED_EDGE ( 'NONE', *, *, #617, .T. ) ;
#402 = DIRECTION ( 'NONE',  ( -0.000000000000000000, -0.000000000000000000, -1.000000000000000000 ) ) ;
#403 = DIRECTION ( 'NONE',  ( -1.000000000000000000, 0.000000000000000000, 0.000000000000000000 ) ) ;
#404 = ADVANCED_FACE ( 'NONE', ( #417 ), #598, .T. ) ;
#405 = ORIENTED_EDGE ( 'NONE', *, *, #219, .F. ) ;
#406 = DIRECTION ( 'NONE',  ( 0.000000000000000000, 0.000000000000000000, 1.000000000000000000 ) ) ;
#407 = AXIS2_PLACEMENT_3D ( 'NONE', #683, #90, #352 ) ;
#408 = FACE_OUTER_BOUND ( 'NONE', #392, .T. ) ;
#409 = FACE_OUTER_BOUND ( 'NONE', #749, .T. ) ;
#410 = EDGE_CURVE ( 'NONE', #86, #296, #619, .T. ) ;
#411 = ORIENTED_EDGE ( 'NONE', *, *, #87, .F. ) ;
#412 = DIRECTION ( 'NONE',  ( 1.000000000000000000, 0.000000000000000000, 0.000000000000000000 ) ) ;
#413 = CARTESIAN_POINT ( 'NONE',  ( -10.00000000000000000, 0.000000000000000000, 16.39999999999999858 ) ) ;
#414 = ORIENTED_EDGE ( 'NONE', *, *, #330, .F. ) ;
#415 = CARTESIAN_POINT ( 'NONE',  ( -8.050000000000000711, 0.000000000000000000, 0.000000000000000000 ) ) ;
#416 = CARTESIAN_POINT ( 'NONE',  ( 0.000000000000000000, 0.000000000000000000, 16.39999999999999858 ) ) ;
#417 = FACE_OUTER_BOUND ( 'NONE', #524, .T. ) ;
#418 = ORIENTED_EDGE ( 'NONE', *, *, #383, .F. ) ;
#419 = APPLICATION_CONTEXT ( 'automotive_design' ) ;
#420 = EDGE_CURVE ( 'NONE', #331, #334, #476, .T. ) ;
#421 = VECTOR ( 'NONE', #306, 1000.000000000000000 ) ;
#422 = VECTOR ( 'NONE', #732, 1000.000000000000000 ) ;
#423 = CIRCLE ( 'NONE', #37, 0.8000000000000003775 ) ;
#424 = DIRECTION ( 'NONE',  ( -1.000000000000000000, 0.000000000000000000, -0.000000000000000000 ) ) ;
#425 = EDGE_CURVE ( 'NONE', #438, #241, #63, .T. ) ;
#426 = FACE_OUTER_BOUND ( 'NONE', #661, .T. ) ;
#427 = CARTESIAN_POINT ( 'NONE',  ( 10.00000000000000000, 1.224646799147353256E-15, 16.39999999999999858 ) ) ;
#428 = DIRECTION ( 'NONE',  ( 1.000000000000000000, 0.000000000000000000, 0.000000000000000000 ) ) ;
#429 = DIRECTION ( 'NONE',  ( 0.000000000000000000, 0.000000000000000000, 1.000000000000000000 ) ) ;
#430 = ORIENTED_EDGE ( 'NONE', *, *, #357, .T. ) ;
#431 = CYLINDRICAL_SURFACE ( 'NONE', #739, 10.00000000000000000 ) ;
#432 = CARTESIAN_POINT ( 'NONE',  ( 0.000000000000000000, 0.000000000000000000, 0.4000000000000000222 ) ) ;
#433 = ORIENTED_EDGE ( 'NONE', *, *, #520, .F. ) ;
#434 = EDGE_CURVE ( 'NONE', #449, #733, #382, .T. ) ;
#435 = VECTOR ( 'NONE', #743, 1000.000000000000000 ) ;
#436 = CARTESIAN_POINT ( 'NONE',  ( 0.000000000000000000, 0.000000000000000000, 15.69999999999999929 ) ) ;
#437 = AXIS2_PLACEMENT_3D ( 'NONE', #670, #279, #736 ) ;
#438 = VERTEX_POINT ( 'NONE', #264 ) ;
#439 = ORIENTED_EDGE ( 'NONE', *, *, #192, .F. ) ;
#440 = CIRCLE ( 'NONE', #543, 0.5250000000000011324 ) ;
#441 = DIRECTION ( 'NONE',  ( -1.000000000000000000, 0.000000000000000000, 0.000000000000000000 ) ) ;
#442 = FACE_OUTER_BOUND ( 'NONE', #819, .T. ) ;
#443 = CYLINDRICAL_SURFACE ( 'NONE', #92, 10.00000000000000000 ) ;
#444 = ORIENTED_EDGE ( 'NONE', *, *, #530, .F. ) ;
#445 = SURFACE_STYLE_USAGE ( .BOTH. , #308 ) ;
#446 = AXIS2_PLACEMENT_3D ( 'NONE', #119, #705, #507 ) ;
#447 = ADVANCED_FACE ( 'NONE', ( #395, #10 ), #519, .F. ) ;
#448 = DIRECTION ( 'NONE',  ( 1.000000000000000000, 0.000000000000000000, -0.000000000000000000 ) ) ;
#449 = VERTEX_POINT ( 'NONE', #328 ) ;
#450 = VECTOR ( 'NONE', #205, 1000.000000000000000 ) ;
#451 = FACE_OUTER_BOUND ( 'NONE', #826, .T. ) ;
#452 = CARTESIAN_POINT ( 'NONE',  ( 4.774999999999999467, 4.775000000000001243, 19.89999999999999858 ) ) ;
#453 = ORIENTED_EDGE ( 'NONE', *, *, #146, .T. ) ;
#454 = FACE_OUTER_BOUND ( 'NONE', #790, .T. ) ;
#455 = ORIENTED_EDGE ( 'NONE', *, *, #146, .F. ) ;
#456 = ADVANCED_FACE ( 'NONE', ( #408 ), #268, .T. ) ;
#457 = DIRECTION ( 'NONE',  ( -0.7071067811865462405, 0.000000000000000000, -0.7071067811865489050 ) ) ;
#458 = AXIS2_PLACEMENT_3D ( 'NONE', #221, #484, #750 ) ;
#459 = TOROIDAL_SURFACE ( 'NONE', #91, 9.199999999999999289, 0.8000000000000000444 ) ;
#460 = VERTEX_POINT ( 'NONE', #803 ) ;
#461 = APPLICATION_PROTOCOL_DEFINITION ( 'draft international standard', 'automotive_design', 1998, #800 ) ;
#462 =( NAMED_UNIT ( * ) SI_UNIT ( $, .STERADIAN. ) SOLID_ANGLE_UNIT ( ) );
#463 = AXIS2_PLACEMENT_3D ( 'NONE', #44, #307, #564 ) ;
#464 = DIRECTION ( 'NONE',  ( 0.000000000000000000, -1.000000000000000000, 0.000000000000000000 ) ) ;
#465 = VERTEX_POINT ( 'NONE', #469 ) ;
#466 = EDGE_CURVE ( 'NONE', #358, #81, #141, .T. ) ;
#467 = LINE ( 'NONE', #76, #811 ) ;
#468 = ORIENTED_EDGE ( 'NONE', *, *, #124, .F. ) ;
#469 = CARTESIAN_POINT ( 'NONE',  ( -5.300000000000002487, 4.774999999999999467, 20.69999999999999929 ) ) ;
#470 = FACE_OUTER_BOUND ( 'NONE', #107, .T. ) ;
#471 = ADVANCED_FACE ( 'NONE', ( #793 ), #604, .T. ) ;
#472 = ORIENTED_EDGE ( 'NONE', *, *, #67, .T. ) ;
#473 = AXIS2_PLACEMENT_3D ( 'NONE', #669, #651, #722 ) ;
#474 = ADVANCED_BREP_SHAPE_REPRESENTATION ( 'Model_ME3-CO', ( #664, #473 ), #104 ) ;
#475 = LINE ( 'NONE', #427, #435 ) ;
#476 = LINE ( 'NONE', #213, #450 ) ;
#477 = CARTESIAN_POINT ( 'NONE',  ( 8.850000000000001421, 0.000000000000000000, 16.39999999999999858 ) ) ;
#478 = ORIENTED_EDGE ( 'NONE', *, *, #180, .F. ) ;
#479 = DIRECTION ( 'NONE',  ( 0.000000000000000000, 0.000000000000000000, 1.000000000000000000 ) ) ;
#480 = DIRECTION ( 'NONE',  ( 0.000000000000000000, 0.000000000000000000, 1.000000000000000000 ) ) ;
#481 = CARTESIAN_POINT ( 'NONE',  ( -4.775000000000001243, -4.775000000000001243, 19.89999999999999858 ) ) ;
#482 = ORIENTED_EDGE ( 'NONE', *, *, #774, .F. ) ;
#483 = EDGE_CURVE ( 'NONE', #733, #449, #644, .T. ) ;
#484 = DIRECTION ( 'NONE',  ( 0.000000000000000000, 0.000000000000000000, 1.000000000000000000 ) ) ;
#485 = PLANE ( 'NONE',  #769 ) ;
#486 = FACE_OUTER_BOUND ( 'NONE', #304, .T. ) ;
#487 = ADVANCED_FACE ( 'NONE', ( #351 ), #485, .T. ) ;
#488 = CIRCLE ( 'NONE', #741, 0.5250000000000011324 ) ;
#489 = AXIS2_PLACEMENT_3D ( 'NONE', #72, #804, #269 ) ;
#490 = FACE_OUTER_BOUND ( 'NONE', #501, .T. ) ;
#491 = CLOSED_SHELL ( 'NONE', ( #767, #712, #1, #554, #703, #404, #62, #244, #789, #68, #36, #159, #588, #778, #447, #99, #26, #456, #8, #738, #151, #13, #471, #742, #517, #235, #649, #270, #622, #821, #857, #487 ) ) ;
#492 = VERTEX_POINT ( 'NONE', #227 ) ;
#493 = CARTESIAN_POINT ( 'NONE',  ( 4.249999999999998224, 4.775000000000001243, 20.69999999999999929 ) ) ;
#494 = EDGE_CURVE ( 'NONE', #465, #161, #40, .T. ) ;
#495 = DIRECTION ( 'NONE',  ( -1.000000000000000000, 0.000000000000000000, 0.000000000000000000 ) ) ;
#496 = ORIENTED_EDGE ( 'NONE', *, *, #805, .T. ) ;
#497 = DIRECTION ( 'NONE',  ( 0.000000000000000000, 0.000000000000000000, 1.000000000000000000 ) ) ;
#498 = DIRECTION ( 'NONE',  ( 1.000000000000000000, 0.000000000000000000, 0.000000000000000000 ) ) ;
#499 = CARTESIAN_POINT ( 'NONE',  ( -4.775000000000001243, 4.774999999999999467, 15.69999999999999929 ) ) ;
#500 = ORIENTED_EDGE ( 'NONE', *, *, #820, .T. ) ;
#501 = EDGE_LOOP ( 'NONE', ( #500, #509 ) ) ;
#502 = DIRECTION ( 'NONE',  ( -0.000000000000000000, -0.000000000000000000, -1.000000000000000000 ) ) ;
#503 = VECTOR ( 'NONE', #387, 1000.000000000000000 ) ;
#504 = AXIS2_PLACEMENT_3D ( 'NONE', #80, #69, #592 ) ;
#505 = AXIS2_PLACEMENT_3D ( 'NONE', #499, #480, #551 ) ;
#506 = PLANE ( 'NONE',  #121 ) ;
#507 = DIRECTION ( 'NONE',  ( 1.000000000000000000, 0.000000000000000000, 0.000000000000000000 ) ) ;
#508 = CARTESIAN_POINT ( 'NONE',  ( -4.775000000000001243, 4.774999999999999467, 20.69999999999999929 ) ) ;
#509 = ORIENTED_EDGE ( 'NONE', *, *, #704, .T. ) ;
#510 = DIRECTION ( 'NONE',  ( 0.000000000000000000, -1.000000000000000000, 0.000000000000000000 ) ) ;
#511 = ORIENTED_EDGE ( 'NONE', *, *, #542, .F. ) ;
#512 = DIRECTION ( 'NONE',  ( 0.000000000000000000, 0.000000000000000000, -1.000000000000000000 ) ) ;
#513 = CARTESIAN_POINT ( 'NONE',  ( 7.000000000000000000, 0.000000000000000000, 0.2000000000000000111 ) ) ;
#514 = VECTOR ( 'NONE', #782, 1000.000000000000000 ) ;
#515 = ORIENTED_EDGE ( 'NONE', *, *, #420, .T. ) ;
#516 = DIRECTION ( 'NONE',  ( -0.000000000000000000, -0.000000000000000000, -1.000000000000000000 ) ) ;
#517 = ADVANCED_FACE ( 'NONE', ( #355 ), #185, .T. ) ;
#518 = ORIENTED_EDGE ( 'NONE', *, *, #494, .T. ) ;
#519 = PLANE ( 'NONE',  #324 ) ;
#520 = EDGE_CURVE ( 'NONE', #197, #65, #673, .T. ) ;
#521 = DIRECTION ( 'NONE',  ( 0.000000000000000000, 0.000000000000000000, 1.000000000000000000 ) ) ;
#522 = ORIENTED_EDGE ( 'NONE', *, *, #54, .T. ) ;
#523 = FACE_OUTER_BOUND ( 'NONE', #73, .T. ) ;
#524 = EDGE_LOOP ( 'NONE', ( #139, #799, #250, #730 ) ) ;
#525 = AXIS2_PLACEMENT_3D ( 'NONE', #854, #590, #265 ) ;
#526 = EDGE_CURVE ( 'NONE', #438, #81, #230, .T. ) ;
#527 = AXIS2_PLACEMENT_3D ( 'NONE', #748, #293, #815 ) ;
#528 = CARTESIAN_POINT ( 'NONE',  ( 0.000000000000000000, 0.000000000000000000, 0.4000000000000000222 ) ) ;
#529 = ORIENTED_EDGE ( 'NONE', *, *, #357, .F. ) ;
#530 = EDGE_CURVE ( 'NONE', #209, #549, #781, .T. ) ;
#531 = CARTESIAN_POINT ( 'NONE',  ( 4.774999999999999467, 4.775000000000001243, 20.69999999999999929 ) ) ;
#532 = ORIENTED_EDGE ( 'NONE', *, *, #547, .T. ) ;
#533 = DIRECTION ( 'NONE',  ( 0.000000000000000000, 0.000000000000000000, -1.000000000000000000 ) ) ;
#534 = CARTESIAN_POINT ( 'NONE',  ( 0.000000000000000000, 0.000000000000000000, 0.2000000000000000111 ) ) ;
#535 = ORIENTED_EDGE ( 'NONE', *, *, #688, .T. ) ;
#536 = PRODUCT_DEFINITION_FORMATION_WITH_SPECIFIED_SOURCE ( 'ANY', '', #829, .NOT_KNOWN. ) ;
#537 = AXIS2_PLACEMENT_3D ( 'NONE', #633, #835, #498 ) ;
#538 = VECTOR ( 'NONE', #79, 1000.000000000000114 ) ;
#539 = DIRECTION ( 'NONE',  ( -1.000000000000000000, 0.000000000000000000, 0.000000000000000000 ) ) ;
#540 = DIRECTION ( 'NONE',  ( 0.000000000000000000, 0.000000000000000000, 1.000000000000000000 ) ) ;
#541 = CARTESIAN_POINT ( 'NONE',  ( 6.099999999999999645, 4.775000000000001243, 19.89999999999999858 ) ) ;
#542 = EDGE_CURVE ( 'NONE', #81, #93, #298, .T. ) ;
#543 = AXIS2_PLACEMENT_3D ( 'NONE', #570, #52, #262 ) ;
#544 = EDGE_LOOP ( 'NONE', ( #663, #12 ) ) ;
#545 = DIRECTION ( 'NONE',  ( 1.000000000000000000, 0.000000000000000000, 0.000000000000000000 ) ) ;
#546 = CARTESIAN_POINT ( 'NONE',  ( 0.000000000000000000, 0.000000000000000000, 0.2000000000000000111 ) ) ;
#547 = EDGE_CURVE ( 'NONE', #492, #684, #350, .T. ) ;
#548 = CARTESIAN_POINT ( 'NONE',  ( 0.000000000000000000, 0.000000000000000000, 0.8000000000000003775 ) ) ;
#549 = VERTEX_POINT ( 'NONE', #556 ) ;
#550 = DIRECTION ( 'NONE',  ( 1.000000000000000000, 0.000000000000000000, 0.000000000000000000 ) ) ;
#551 = DIRECTION ( 'NONE',  ( 1.000000000000000000, 0.000000000000000000, 0.000000000000000000 ) ) ;
#552 = DIRECTION ( 'NONE',  ( -0.000000000000000000, -0.000000000000000000, 1.000000000000000000 ) ) ;
#553 = ORIENTED_EDGE ( 'NONE', *, *, #483, .T. ) ;
#554 = ADVANCED_FACE ( 'NONE', ( #154 ), #234, .F. ) ;
#555 = DIRECTION ( 'NONE',  ( 0.000000000000000000, 0.000000000000000000, -1.000000000000000000 ) ) ;
#556 = CARTESIAN_POINT ( 'NONE',  ( 9.199999999999999289, 0.000000000000000000, 16.39999999999999858 ) ) ;
#557 = CARTESIAN_POINT ( 'NONE',  ( -4.775000000000001243, 4.774999999999999467, 19.89999999999999858 ) ) ;
#558 = ORIENTED_EDGE ( 'NONE', *, *, #611, .F. ) ;
#559 = PLANE ( 'NONE',  #379 ) ;
#560 = CARTESIAN_POINT ( 'NONE',  ( -4.775000000000001243, -4.775000000000001243, 20.69999999999999929 ) ) ;
#561 = EDGE_LOOP ( 'NONE', ( #787, #591, #841, #317 ) ) ;
#562 = VERTEX_POINT ( 'NONE', #160 ) ;
#563 = DIRECTION ( 'NONE',  ( 0.000000000000000000, 0.000000000000000000, 1.000000000000000000 ) ) ;
#564 = DIRECTION ( 'NONE',  ( -1.000000000000000000, 0.000000000000000000, 0.000000000000000000 ) ) ;
#565 = EDGE_LOOP ( 'NONE', ( #45, #122 ) ) ;
#566 = AXIS2_PLACEMENT_3D ( 'NONE', #364, #238, #251 ) ;
#567 = CIRCLE ( 'NONE', #685, 10.00000000000000000 ) ;
#568 = CIRCLE ( 'NONE', #301, 8.850000000000001421 ) ;
#569 = EDGE_CURVE ( 'NONE', #816, #53, #23, .T. ) ;
#570 = CARTESIAN_POINT ( 'NONE',  ( 4.774999999999999467, 4.775000000000001243, 20.69999999999999929 ) ) ;
#571 = VERTEX_POINT ( 'NONE', #18 ) ;
#572 = EDGE_CURVE ( 'NONE', #296, #334, #568, .T. ) ;
#573 = AXIS2_PLACEMENT_3D ( 'NONE', #166, #168, #700 ) ;
#574 = CYLINDRICAL_SURFACE ( 'NONE', #643, 7.000000000000000000 ) ;
#575 =( NAMED_UNIT ( * ) PLANE_ANGLE_UNIT ( ) SI_UNIT ( $, .RADIAN. ) );
#576 = CARTESIAN_POINT ( 'NONE',  ( 4.774999999999999467, 4.775000000000001243, 15.69999999999999929 ) ) ;
#577 = ORIENTED_EDGE ( 'NONE', *, *, #434, .F. ) ;
#578 = DIRECTION ( 'NONE',  ( -1.000000000000000000, 0.000000000000000000, 0.000000000000000000 ) ) ;
#579 = CARTESIAN_POINT ( 'NONE',  ( -6.100000000000001421, 4.774999999999999467, 19.89999999999999858 ) ) ;
#580 = EDGE_LOOP ( 'NONE', ( #136, #323, #746, #796 ) ) ;
#581 = PRODUCT_RELATED_PRODUCT_CATEGORY ( 'part', '', ( #829 ) ) ;
#582 = CARTESIAN_POINT ( 'NONE',  ( 0.000000000000000000, 0.000000000000000000, 0.000000000000000000 ) ) ;
#583 = CIRCLE ( 'NONE', #840, 9.199999999999999289 ) ;
#584 = EDGE_CURVE ( 'NONE', #334, #296, #274, .T. ) ;
#585 = CIRCLE ( 'NONE', #129, 9.199999999999999289 ) ;
#586 = DIRECTION ( 'NONE',  ( 0.000000000000000000, 0.000000000000000000, 1.000000000000000000 ) ) ;
#587 = EDGE_LOOP ( 'NONE', ( #414, #47, #143, #175 ) ) ;
#588 = ADVANCED_FACE ( 'NONE', ( #814 ), #431, .T. ) ;
#589 = DIRECTION ( 'NONE',  ( -0.000000000000000000, -0.000000000000000000, -1.000000000000000000 ) ) ;
#590 = DIRECTION ( 'NONE',  ( 0.000000000000000000, 0.000000000000000000, 1.000000000000000000 ) ) ;
#591 = ORIENTED_EDGE ( 'NONE', *, *, #820, .F. ) ;
#592 = DIRECTION ( 'NONE',  ( -1.000000000000000000, 0.000000000000000000, 0.000000000000000000 ) ) ;
#593 = ORIENTED_EDGE ( 'NONE', *, *, #717, .T. ) ;
#594 = DIRECTION ( 'NONE',  ( 0.000000000000000000, 0.000000000000000000, 1.000000000000000000 ) ) ;
#595 = CARTESIAN_POINT ( 'NONE',  ( -4.775000000000001243, 4.774999999999999467, 20.69999999999999929 ) ) ;
#596 = EDGE_LOOP ( 'NONE', ( #236, #756 ) ) ;
#597 = CIRCLE ( 'NONE', #287, 0.8000000000000003775 ) ;
#598 = CONICAL_SURFACE ( 'NONE', #407, 0.5250000000000011324, 0.7853981633974459475 ) ;
#599 = EDGE_CURVE ( 'NONE', #65, #197, #322, .T. ) ;
#600 = CIRCLE ( 'NONE', #784, 7.000000000000000000 ) ;
#601 = CARTESIAN_POINT ( 'NONE',  ( 0.000000000000000000, 0.000000000000000000, 0.000000000000000000 ) ) ;
#602 = DIRECTION ( 'NONE',  ( 0.7071067811865462405, 8.659560562354915602E-17, -0.7071067811865489050 ) ) ;
#603 = ORIENTED_EDGE ( 'NONE', *, *, #371, .T. ) ;
#604 = PLANE ( 'NONE',  #172 ) ;
#605 = CARTESIAN_POINT ( 'NONE',  ( -8.850000000000001421, 1.083812417245407876E-15, 15.69999999999999929 ) ) ;
#606 = ORIENTED_EDGE ( 'NONE', *, *, #667, .T. ) ;
#607 = DIRECTION ( 'NONE',  ( 0.000000000000000000, 0.000000000000000000, 1.000000000000000000 ) ) ;
#608 = EDGE_CURVE ( 'NONE', #757, #698, #199, .T. ) ;
#609 = DIRECTION ( 'NONE',  ( -1.000000000000000000, 0.000000000000000000, 0.000000000000000000 ) ) ;
#610 = DIRECTION ( 'NONE',  ( 0.000000000000000000, 0.000000000000000000, -1.000000000000000000 ) ) ;
#611 = EDGE_CURVE ( 'NONE', #284, #109, #318, .T. ) ;
#612 = ORIENTED_EDGE ( 'NONE', *, *, #608, .F. ) ;
#613 = CIRCLE ( 'NONE', #842, 8.850000000000001421 ) ;
#614 = CONICAL_SURFACE ( 'NONE', #792, 0.5250000000000011324, 0.7853981633974459475 ) ;
#615 = VECTOR ( 'NONE', #618, 1000.000000000000000 ) ;
#616 = CARTESIAN_POINT ( 'NONE',  ( 0.000000000000000000, 0.000000000000000000, 0.2000000000000000111 ) ) ;
#617 = EDGE_CURVE ( 'NONE', #679, #179, #311, .T. ) ;
#618 = DIRECTION ( 'NONE',  ( -0.000000000000000000, -0.000000000000000000, -1.000000000000000000 ) ) ;
#619 = LINE ( 'NONE', #24, #61 ) ;
#620 = CIRCLE ( 'NONE', #690, 1.324999999999999734 ) ;
#621 = ORIENTED_EDGE ( 'NONE', *, *, #483, .F. ) ;
#622 = ADVANCED_FACE ( 'NONE', ( #39 ), #259, .T. ) ;
#623 = DIRECTION ( 'NONE',  ( 1.000000000000000000, 0.000000000000000000, 0.000000000000000000 ) ) ;
#624 = ORIENTED_EDGE ( 'NONE', *, *, #114, .F. ) ;
#625 = CARTESIAN_POINT ( 'NONE',  ( -4.775000000000001243, -4.775000000000001243, 20.69999999999999929 ) ) ;
#626 = DIRECTION ( 'NONE',  ( -0.000000000000000000, -0.000000000000000000, -1.000000000000000000 ) ) ;
#627 = CARTESIAN_POINT ( 'NONE',  ( 3.449999999999999734, 4.775000000000001243, 15.69999999999999929 ) ) ;
#628 = AXIS2_PLACEMENT_3D ( 'NONE', #436, #497, #164 ) ;
#629 = ORIENTED_EDGE ( 'NONE', *, *, #494, .F. ) ;
#630 = AXIS2_PLACEMENT_3D ( 'NONE', #243, #502, #173 ) ;
#631 = CARTESIAN_POINT ( 'NONE',  ( 0.000000000000000000, 0.000000000000000000, 16.39999999999999858 ) ) ;
#632 = CIRCLE ( 'NONE', #825, 1.324999999999999734 ) ;
#633 = CARTESIAN_POINT ( 'NONE',  ( -4.775000000000001243, -4.775000000000001243, 20.69999999999999929 ) ) ;
#634 = FACE_OUTER_BOUND ( 'NONE', #565, .T. ) ;
#635 = ORIENTED_EDGE ( 'NONE', *, *, #434, .T. ) ;
#636 = CARTESIAN_POINT ( 'NONE',  ( -7.000000000000000000, 8.572527594031473190E-16, 0.2000000000000000111 ) ) ;
#637 = EDGE_LOOP ( 'NONE', ( #125, #207 ) ) ;
#638 = EDGE_LOOP ( 'NONE', ( #761, #848, #271, #277 ) ) ;
#639 = DIRECTION ( 'NONE',  ( 1.000000000000000000, 0.000000000000000000, 0.000000000000000000 ) ) ;
#640 = CARTESIAN_POINT ( 'NONE',  ( 0.000000000000000000, 0.000000000000000000, 0.4000000000000000222 ) ) ;
#641 = FACE_OUTER_BOUND ( 'NONE', #561, .T. ) ;
#642 = VERTEX_POINT ( 'NONE', #186 ) ;
#643 = AXIS2_PLACEMENT_3D ( 'NONE', #762, #830, #708 ) ;
#644 = CIRCLE ( 'NONE', #660, 8.050000000000000711 ) ;
#645 = CARTESIAN_POINT ( 'NONE',  ( -6.100000000000001421, 4.774999999999999467, 15.69999999999999929 ) ) ;
#646 = ORIENTED_EDGE ( 'NONE', *, *, #54, .F. ) ;
#647 = TOROIDAL_SURFACE ( 'NONE', #278, 9.199999999999999289, 0.8000000000000000444 ) ;
#648 = DIRECTION ( 'NONE',  ( 1.000000000000000000, 0.000000000000000000, 0.000000000000000000 ) ) ;
#649 = ADVANCED_FACE ( 'NONE', ( #451 ), #699, .F. ) ;
#650 = ORIENTED_EDGE ( 'NONE', *, *, #410, .F. ) ;
#651 = DIRECTION ( 'NONE',  ( 0.000000000000000000, 0.000000000000000000, 1.000000000000000000 ) ) ;
#652 = DIRECTION ( 'NONE',  ( 0.000000000000000000, 0.000000000000000000, -1.000000000000000000 ) ) ;
#653 = CARTESIAN_POINT ( 'NONE',  ( 4.774999999999999467, 4.775000000000001243, 20.69999999999999929 ) ) ;
#654 = VERTEX_POINT ( 'NONE', #372 ) ;
#655 = EDGE_CURVE ( 'NONE', #358, #190, #723, .T. ) ;
#656 = SHAPE_DEFINITION_REPRESENTATION ( #157, #474 ) ;
#657 = AXIS2_PLACEMENT_3D ( 'NONE', #640, #366, #108 ) ;
#658 = CIRCLE ( 'NONE', #504, 8.050000000000000711 ) ;
#659 = DIRECTION ( 'NONE',  ( 0.000000000000000000, 0.000000000000000000, -1.000000000000000000 ) ) ;
#660 = AXIS2_PLACEMENT_3D ( 'NONE', #282, #217, #755 ) ;
#661 = EDGE_LOOP ( 'NONE', ( #242, #515, #344, #650 ) ) ;
#662 = DIRECTION ( 'NONE',  ( 0.000000000000000000, 0.000000000000000000, -1.000000000000000000 ) ) ;
#663 = ORIENTED_EDGE ( 'NONE', *, *, #187, .F. ) ;
#664 = MANIFOLD_SOLID_BREP ( '\X2\0411043e0431044b0448043a0430\X0\-\X2\0412044b0442044f043d04430442044c\X0\3', #491 ) ;
#665 = CARTESIAN_POINT ( 'NONE',  ( -3.450000000000001510, -4.775000000000001243, 20.69999999999999929 ) ) ;
#666 = CARTESIAN_POINT ( 'NONE',  ( -9.199999999999999289, 1.175660927181458842E-15, 16.39999999999999858 ) ) ;
#667 = EDGE_CURVE ( 'NONE', #757, #733, #4, .T. ) ;
#668 = EDGE_LOOP ( 'NONE', ( #397, #433 ) ) ;
#669 = CARTESIAN_POINT ( 'NONE',  ( 0.000000000000000000, 0.000000000000000000, 0.000000000000000000 ) ) ;
#670 = CARTESIAN_POINT ( 'NONE',  ( -4.775000000000001243, 4.774999999999999467, 20.69999999999999929 ) ) ;
#671 = DIRECTION ( 'NONE',  ( 0.7071067811865459074, 8.659560562354913137E-17, -0.7071067811865491270 ) ) ;
#672 = ORIENTED_EDGE ( 'NONE', *, *, #801, .T. ) ;
#673 = CIRCLE ( 'NONE', #505, 1.324999999999999734 ) ;
#674 = CARTESIAN_POINT ( 'NONE',  ( -5.300000000000002487, -4.775000000000001243, 20.69999999999999929 ) ) ;
#675 = DIRECTION ( 'NONE',  ( -1.000000000000000000, 0.000000000000000000, 0.000000000000000000 ) ) ;
#676 = EDGE_LOOP ( 'NONE', ( #482, #347, #646, #629 ) ) ;
#677 = CARTESIAN_POINT ( 'NONE',  ( 0.000000000000000000, 0.000000000000000000, 16.39999999999999858 ) ) ;
#678 = CARTESIAN_POINT ( 'NONE',  ( -5.300000000000002487, -4.775000000000001243, 20.69999999999999929 ) ) ;
#679 = VERTEX_POINT ( 'NONE', #636 ) ;
#680 = EDGE_CURVE ( 'NONE', #654, #42, #797, .T. ) ;
#681 = CARTESIAN_POINT ( 'NONE',  ( 0.000000000000000000, 0.000000000000000000, 16.39999999999999858 ) ) ;
#682 = CARTESIAN_POINT ( 'NONE',  ( -5.300000000000002487, 4.774999999999999467, 20.69999999999999929 ) ) ;
#683 = CARTESIAN_POINT ( 'NONE',  ( -4.775000000000001243, -4.775000000000001243, 20.69999999999999929 ) ) ;
#684 = VERTEX_POINT ( 'NONE', #731 ) ;
#685 = AXIS2_PLACEMENT_3D ( 'NONE', #828, #822, #340 ) ;
#686 = AXIS2_PLACEMENT_3D ( 'NONE', #576, #714, #852 ) ;
#687 = CIRCLE ( 'NONE', #844, 0.8000000000000003775 ) ;
#688 = EDGE_CURVE ( 'NONE', #53, #161, #791, .T. ) ;
#689 = CARTESIAN_POINT ( 'NONE',  ( -4.250000000000000000, 4.774999999999999467, 20.69999999999999929 ) ) ;
#690 = AXIS2_PLACEMENT_3D ( 'NONE', #557, #832, #697 ) ;
#691 = CARTESIAN_POINT ( 'NONE',  ( 0.000000000000000000, 0.000000000000000000, 15.69999999999999929 ) ) ;
#692 = CARTESIAN_POINT ( 'NONE',  ( -8.050000000000000711, 0.000000000000000000, 0.4000000000000000222 ) ) ;
#693 = CARTESIAN_POINT ( 'NONE',  ( -4.775000000000001243, 4.774999999999999467, 15.69999999999999929 ) ) ;
#694 = EDGE_CURVE ( 'NONE', #460, #642, #585, .T. ) ;
#695 = CARTESIAN_POINT ( 'NONE',  ( 0.000000000000000000, 0.000000000000000000, 0.000000000000000000 ) ) ;
#696 = DIRECTION ( 'NONE',  ( 0.000000000000000000, 0.000000000000000000, -1.000000000000000000 ) ) ;
#697 = DIRECTION ( 'NONE',  ( 1.000000000000000000, 0.000000000000000000, 0.000000000000000000 ) ) ;
#698 = VERTEX_POINT ( 'NONE', #191 ) ;
#699 = CYLINDRICAL_SURFACE ( 'NONE', #657, 8.050000000000000711 ) ;
#700 = DIRECTION ( 'NONE',  ( 1.000000000000000000, 0.000000000000000000, -0.000000000000000000 ) ) ;
#701 = CONICAL_SURFACE ( 'NONE', #813, 0.5250000000000011324, 0.7853981633974463916 ) ;
#702 = ORIENTED_EDGE ( 'NONE', *, *, #371, .F. ) ;
#703 = ADVANCED_FACE ( 'NONE', ( #747 ), #391, .T. ) ;
#704 = EDGE_CURVE ( 'NONE', #331, #86, #613, .T. ) ;
#705 = DIRECTION ( 'NONE',  ( 0.000000000000000000, 0.000000000000000000, -1.000000000000000000 ) ) ;
#706 = DIRECTION ( 'NONE',  ( -0.000000000000000000, -0.000000000000000000, -1.000000000000000000 ) ) ;
#707 = EDGE_LOOP ( 'NONE', ( #7, #411, #721, #439 ) ) ;
#708 = DIRECTION ( 'NONE',  ( 1.000000000000000000, 0.000000000000000000, 0.000000000000000000 ) ) ;
#709 = CARTESIAN_POINT ( 'NONE',  ( 0.000000000000000000, 0.000000000000000000, 15.69999999999999929 ) ) ;
#710 = EDGE_LOOP ( 'NONE', ( #621, #577 ) ) ;
#711 = AXIS2_PLACEMENT_3D ( 'NONE', #616, #292, #817 ) ;
#712 = ADVANCED_FACE ( 'NONE', ( #285 ), #459, .T. ) ;
#713 = AXIS2_PLACEMENT_3D ( 'NONE', #560, #240, #495 ) ;
#714 = DIRECTION ( 'NONE',  ( 0.000000000000000000, 0.000000000000000000, 1.000000000000000000 ) ) ;
#715 = EDGE_LOOP ( 'NONE', ( #231, #263 ) ) ;
#716 = CARTESIAN_POINT ( 'NONE',  ( 6.099999999999999645, 4.775000000000001243, 20.69999999999999929 ) ) ;
#717 = EDGE_CURVE ( 'NONE', #684, #492, #567, .T. ) ;
#718 = DIRECTION ( 'NONE',  ( 1.000000000000000000, 0.000000000000000000, 0.000000000000000000 ) ) ;
#719 = ORIENTED_EDGE ( 'NONE', *, *, #383, .T. ) ;
#720 = CARTESIAN_POINT ( 'NONE',  ( 7.000000000000000000, 0.000000000000000000, 0.2000000000000000111 ) ) ;
#721 = ORIENTED_EDGE ( 'NONE', *, *, #219, .T. ) ;
#722 = DIRECTION ( 'NONE',  ( 1.000000000000000000, 0.000000000000000000, 0.000000000000000000 ) ) ;
#723 = CIRCLE ( 'NONE', #537, 0.5250000000000011324 ) ;
#724 = DIRECTION ( 'NONE',  ( -1.000000000000000000, 0.000000000000000000, 0.000000000000000000 ) ) ;
#725 = CARTESIAN_POINT ( 'NONE',  ( 4.249999999999998224, 4.775000000000001243, 20.69999999999999929 ) ) ;
#726 = AXIS2_PLACEMENT_3D ( 'NONE', #481, #149, #218 ) ;
#727 = ORIENTED_EDGE ( 'NONE', *, *, #38, .T. ) ;
#728 = EDGE_CURVE ( 'NONE', #93, #241, #824, .T. ) ;
#729 = DIRECTION ( 'NONE',  ( -0.000000000000000000, -0.000000000000000000, -1.000000000000000000 ) ) ;
#730 = ORIENTED_EDGE ( 'NONE', *, *, #466, .F. ) ;
#731 = CARTESIAN_POINT ( 'NONE',  ( -10.00000000000000000, 0.000000000000000000, 15.59999999999999787 ) ) ;
#732 = DIRECTION ( 'NONE',  ( -0.000000000000000000, -0.000000000000000000, -1.000000000000000000 ) ) ;
#733 = VERTEX_POINT ( 'NONE', #415 ) ;
#734 = CYLINDRICAL_SURFACE ( 'NONE', #309, 1.324999999999999734 ) ;
#735 = AXIS2_PLACEMENT_3D ( 'NONE', #845, #376, #639 ) ;
#736 = DIRECTION ( 'NONE',  ( -1.000000000000000000, 0.000000000000000000, 0.000000000000000000 ) ) ;
#737 = CYLINDRICAL_SURFACE ( 'NONE', #261, 1.324999999999999734 ) ;
#738 = ADVANCED_FACE ( 'NONE', ( #147 ), #734, .T. ) ;
#739 = AXIS2_PLACEMENT_3D ( 'NONE', #89, #96, #295 ) ;
#740 = ORIENTED_EDGE ( 'NONE', *, *, #386, .T. ) ;
#741 = AXIS2_PLACEMENT_3D ( 'NONE', #321, #586, #718 ) ;
#742 = ADVANCED_FACE ( 'NONE', ( #27 ), #363, .T. ) ;
#743 = DIRECTION ( 'NONE',  ( -0.000000000000000000, -0.000000000000000000, -1.000000000000000000 ) ) ;
#744 = CARTESIAN_POINT ( 'NONE',  ( -3.450000000000001510, 4.774999999999999467, 15.69999999999999929 ) ) ;
#745 = EDGE_CURVE ( 'NONE', #549, #209, #583, .T. ) ;
#746 = ORIENTED_EDGE ( 'NONE', *, *, #542, .T. ) ;
#747 = FACE_OUTER_BOUND ( 'NONE', #676, .T. ) ;
#748 = CARTESIAN_POINT ( 'NONE',  ( 4.774999999999999467, 4.775000000000001243, 20.69999999999999929 ) ) ;
#749 = EDGE_LOOP ( 'NONE', ( #496, #853, #766, #183 ) ) ;
#750 = DIRECTION ( 'NONE',  ( 1.000000000000000000, 0.000000000000000000, 0.000000000000000000 ) ) ;
#751 = FACE_BOUND ( 'NONE', #596, .T. ) ;
#752 = AXIS2_PLACEMENT_3D ( 'NONE', #452, #196, #138 ) ;
#753 = VECTOR ( 'NONE', #32, 1000.000000000000114 ) ;
#754 = CARTESIAN_POINT ( 'NONE',  ( -4.775000000000001243, 4.774999999999999467, 20.69999999999999929 ) ) ;
#755 = DIRECTION ( 'NONE',  ( -1.000000000000000000, 0.000000000000000000, 0.000000000000000000 ) ) ;
#756 = ORIENTED_EDGE ( 'NONE', *, *, #216, .F. ) ;
#757 = VERTEX_POINT ( 'NONE', #692 ) ;
#758 = FACE_OUTER_BOUND ( 'NONE', #77, .T. ) ;
#759 = DIRECTION ( 'NONE',  ( 1.000000000000000000, 0.000000000000000000, 0.000000000000000000 ) ) ;
#760 = FACE_BOUND ( 'NONE', #544, .T. ) ;
#761 = ORIENTED_EDGE ( 'NONE', *, *, #717, .F. ) ;
#762 = CARTESIAN_POINT ( 'NONE',  ( 0.000000000000000000, 0.000000000000000000, 0.2000000000000000111 ) ) ;
#763 = FILL_AREA_STYLE_COLOUR ( '', #246 ) ;
#764 = EDGE_CURVE ( 'NONE', #492, #327, #475, .T. ) ;
#765 = PLANE ( 'NONE',  #573 ) ;
#766 = ORIENTED_EDGE ( 'NONE', *, *, #137, .T. ) ;
#767 = ADVANCED_FACE ( 'NONE', ( #348 ), #225, .T. ) ;
#768 = VECTOR ( 'NONE', #589, 1000.000000000000000 ) ;
#769 = AXIS2_PLACEMENT_3D ( 'NONE', #546, #148, #424 ) ;
#770 = EDGE_CURVE ( 'NONE', #190, #358, #167, .T. ) ;
#771 =( LENGTH_UNIT ( ) NAMED_UNIT ( * ) SI_UNIT ( .MILLI., .METRE. ) );
#772 = FACE_OUTER_BOUND ( 'NONE', #291, .T. ) ;
#773 = EDGE_LOOP ( 'NONE', ( #430, #401 ) ) ;
#774 = EDGE_CURVE ( 'NONE', #816, #465, #807, .T. ) ;
#775 = CARTESIAN_POINT ( 'NONE',  ( -6.100000000000001421, -4.775000000000001243, 19.89999999999999858 ) ) ;
#776 = ORIENTED_EDGE ( 'NONE', *, *, #530, .T. ) ;
#777 = CIRCLE ( 'NONE', #566, 7.000000000000000000 ) ;
#778 = ADVANCED_FACE ( 'NONE', ( #101, #362 ), #559, .T. ) ;
#779 = CARTESIAN_POINT ( 'NONE',  ( 0.000000000000000000, 0.000000000000000000, 0.4000000000000000222 ) ) ;
#780 = VECTOR ( 'NONE', #115, 1000.000000000000000 ) ;
#781 = CIRCLE ( 'NONE', #336, 9.199999999999999289 ) ;
#782 = DIRECTION ( 'NONE',  ( -0.000000000000000000, -0.000000000000000000, 1.000000000000000000 ) ) ;
#783 = VERTEX_POINT ( 'NONE', #493 ) ;
#784 = AXIS2_PLACEMENT_3D ( 'NONE', #432, #33, #100 ) ;
#785 = DIRECTION ( 'NONE',  ( -0.000000000000000000, -0.000000000000000000, -1.000000000000000000 ) ) ;
#786 = CARTESIAN_POINT ( 'NONE',  ( 0.000000000000000000, 0.000000000000000000, 0.8000000000000003775 ) ) ;
#787 = ORIENTED_EDGE ( 'NONE', *, *, #420, .F. ) ;
#788 = CARTESIAN_POINT ( 'NONE',  ( -4.775000000000001243, -4.775000000000001243, 20.69999999999999929 ) ) ;
#789 = ADVANCED_FACE ( 'NONE', ( #758 ), #163, .T. ) ;
#790 = EDGE_LOOP ( 'NONE', ( #593, #30, #453, #150 ) ) ;
#791 = CIRCLE ( 'NONE', #106, 1.324999999999999734 ) ;
#792 = AXIS2_PLACEMENT_3D ( 'NONE', #595, #610, #403 ) ;
#793 = FACE_OUTER_BOUND ( 'NONE', #715, .T. ) ;
#794 = CARTESIAN_POINT ( 'NONE',  ( 8.050000000000000711, 9.858406733136194415E-16, 0.4000000000000000222 ) ) ;
#795 = AXIS2_PLACEMENT_3D ( 'NONE', #416, #367, #428 ) ;
#796 = ORIENTED_EDGE ( 'NONE', *, *, #728, .T. ) ;
#797 = LINE ( 'NONE', #204, #503 ) ;
#798 = DIRECTION ( 'NONE',  ( -1.000000000000000000, 0.000000000000000000, 0.000000000000000000 ) ) ;
#799 = ORIENTED_EDGE ( 'NONE', *, *, #330, .T. ) ;
#800 = APPLICATION_CONTEXT ( 'automotive_design' ) ;
#801 = EDGE_CURVE ( 'NONE', #571, #562, #777, .T. ) ;
#802 = AXIS2_PLACEMENT_3D ( 'NONE', #695, #729, #5 ) ;
#803 = CARTESIAN_POINT ( 'NONE',  ( -9.199999999999999289, 1.175660927181458842E-15, 0.000000000000000000 ) ) ;
#804 = DIRECTION ( 'NONE',  ( 0.000000000000000000, 0.000000000000000000, 1.000000000000000000 ) ) ;
#805 = EDGE_CURVE ( 'NONE', #654, #284, #198, .T. ) ;
#806 = ORIENTED_EDGE ( 'NONE', *, *, #608, .T. ) ;
#807 = CIRCLE ( 'NONE', #226, 0.5250000000000011324 ) ;
#808 = DIRECTION ( 'NONE',  ( 0.000000000000000000, 0.000000000000000000, -1.000000000000000000 ) ) ;
#809 = STYLED_ITEM ( 'NONE', ( #43 ), #664 ) ;
#810 = VERTEX_POINT ( 'NONE', #111 ) ;
#811 = VECTOR ( 'NONE', #602, 1000.000000000000000 ) ;
#812 = CARTESIAN_POINT ( 'NONE',  ( 0.000000000000000000, 0.000000000000000000, 15.69999999999999929 ) ) ;
#813 = AXIS2_PLACEMENT_3D ( 'NONE', #653, #659, #113 ) ;
#814 = FACE_OUTER_BOUND ( 'NONE', #229, .T. ) ;
#815 = DIRECTION ( 'NONE',  ( 1.000000000000000000, 0.000000000000000000, 0.000000000000000000 ) ) ;
#816 = VERTEX_POINT ( 'NONE', #181 ) ;
#817 = DIRECTION ( 'NONE',  ( 1.000000000000000000, 0.000000000000000000, 0.000000000000000000 ) ) ;
#818 = DIRECTION ( 'NONE',  ( 1.000000000000000000, 0.000000000000000000, 0.000000000000000000 ) ) ;
#819 = EDGE_LOOP ( 'NONE', ( #522, #305, #850, #418 ) ) ;
#820 = EDGE_CURVE ( 'NONE', #86, #331, #74, .T. ) ;
#821 = ADVANCED_FACE ( 'NONE', ( #49 ), #258, .T. ) ;
#822 = DIRECTION ( 'NONE',  ( -0.000000000000000000, -0.000000000000000000, -1.000000000000000000 ) ) ;
#823 = DIRECTION ( 'NONE',  ( 1.000000000000000000, 0.000000000000000000, 0.000000000000000000 ) ) ;
#824 = CIRCLE ( 'NONE', #153, 1.324999999999999734 ) ;
#825 = AXIS2_PLACEMENT_3D ( 'NONE', #283, #132, #343 ) ;
#826 = EDGE_LOOP ( 'NONE', ( #312, #612, #606, #553 ) ) ;
#827 = AXIS2_PLACEMENT_3D ( 'NONE', #103, #345, #818 ) ;
#828 = CARTESIAN_POINT ( 'NONE',  ( 0.000000000000000000, 0.000000000000000000, 15.59999999999999787 ) ) ;
#829 = PRODUCT ( 'Model_ME3-CO', 'Model_ME3-CO', '', ( #332 ) ) ;
#830 = DIRECTION ( 'NONE',  ( -0.000000000000000000, -0.000000000000000000, 1.000000000000000000 ) ) ;
#831 = DIRECTION ( 'NONE',  ( 0.7071067811865459074, 8.659560562354913137E-17, -0.7071067811865491270 ) ) ;
#832 = DIRECTION ( 'NONE',  ( 0.000000000000000000, 0.000000000000000000, -1.000000000000000000 ) ) ;
#833 = ORIENTED_EDGE ( 'NONE', *, *, #680, .T. ) ;
#834 = DIRECTION ( 'NONE',  ( 1.000000000000000000, 0.000000000000000000, -0.000000000000000000 ) ) ;
#835 = DIRECTION ( 'NONE',  ( 0.000000000000000000, 0.000000000000000000, 1.000000000000000000 ) ) ;
#836 = CARTESIAN_POINT ( 'NONE',  ( 0.000000000000000000, 0.000000000000000000, 0.4000000000000000222 ) ) ;
#837 = EDGE_LOOP ( 'NONE', ( #624, #373, #855, #702 ) ) ;
#838 = VECTOR ( 'NONE', #671, 1000.000000000000114 ) ;
#839 = CARTESIAN_POINT ( 'NONE',  ( 0.000000000000000000, 0.000000000000000000, 15.69999999999999929 ) ) ;
#840 = AXIS2_PLACEMENT_3D ( 'NONE', #681, #607, #210 ) ;
#841 = ORIENTED_EDGE ( 'NONE', *, *, #410, .T. ) ;
#842 = AXIS2_PLACEMENT_3D ( 'NONE', #812, #479, #78 ) ;
#843 = CIRCLE ( 'NONE', #525, 1.324999999999999734 ) ;
#844 = AXIS2_PLACEMENT_3D ( 'NONE', #202, #464, #333 ) ;
#845 = CARTESIAN_POINT ( 'NONE',  ( 0.000000000000000000, 0.000000000000000000, 15.59999999999999787 ) ) ;
#846 = DIRECTION ( 'NONE',  ( -1.000000000000000000, 1.224646799147353207E-16, 0.000000000000000000 ) ) ;
#847 = AXIS2_PLACEMENT_3D ( 'NONE', #534, #808, #798 ) ;
#848 = ORIENTED_EDGE ( 'NONE', *, *, #370, .T. ) ;
#849 = CARTESIAN_POINT ( 'NONE',  ( -9.199999999999999289, 1.126675055215564822E-15, 0.8000000000000003775 ) ) ;
#850 = ORIENTED_EDGE ( 'NONE', *, *, #520, .T. ) ;
#851 = CARTESIAN_POINT ( 'NONE',  ( 0.000000000000000000, 0.000000000000000000, 0.8000000000000003775 ) ) ;
#852 = DIRECTION ( 'NONE',  ( 1.000000000000000000, 0.000000000000000000, 0.000000000000000000 ) ) ;
#853 = ORIENTED_EDGE ( 'NONE', *, *, #611, .T. ) ;
#854 = CARTESIAN_POINT ( 'NONE',  ( 4.774999999999999467, 4.775000000000001243, 15.69999999999999929 ) ) ;
#855 = ORIENTED_EDGE ( 'NONE', *, *, #176, .T. ) ;
#856 = CARTESIAN_POINT ( 'NONE',  ( -4.775000000000001243, 4.774999999999999467, 19.89999999999999858 ) ) ;
#857 = ADVANCED_FACE ( 'NONE', ( #177 ), #574, .T. ) ;
#858 = CARTESIAN_POINT ( 'NONE',  ( 8.850000000000001421, 0.000000000000000000, 15.69999999999999929 ) ) ;
#859 = ORIENTED_EDGE ( 'NONE', *, *, #375, .T. ) ;
ENDSEC;
END-ISO-10303-21;
